{"glyphs":{"0":{"ha":850,"x_min":0,"x_max":0,"o":"m 425 -19 b 83 378 211 -19 83 119 l 83 594 b 425 992 83 844 211 992 b 767 594 639 992 767 844 l 767 378 b 425 -19 767 119 639 -19 m 425 86 b 650 386 575 86 650 197 l 650 586 b 425 886 650 764 575 886 b 200 586 275 886 200 764 l 200 386 b 425 86 200 197 275 86 m 425 397 b 336 486 378 397 336 439 b 425 575 336 533 378 575 b 514 486 472 575 514 533 b 425 397 514 439 472 397 "},"1":{"ha":850,"x_min":0,"x_max":0,"o":"m 99 108 l 374 108 l 374 921 l 357 921 l 197 556 l 82 556 l 82 564 l 264 972 l 490 972 l 490 108 l 765 108 l 765 0 l 99 0 "},"2":{"ha":850,"x_min":0,"x_max":0,"o":"m 97 167 b 414 467 97 344 219 424 b 647 672 578 503 647 574 l 647 681 b 431 883 647 781 583 883 b 206 644 289 883 206 789 l 206 583 l 89 583 l 89 653 b 431 992 89 831 208 992 b 764 693 656 992 764 842 l 764 668 b 472 367 764 521 675 411 b 214 150 296 328 214 272 l 214 108 l 756 108 l 756 0 l 97 0 "},"3":{"ha":850,"x_min":0,"x_max":0,"o":"m 440 -19 b 88 303 221 -19 88 125 l 88 378 l 204 378 l 204 311 b 438 89 204 172 304 89 b 654 289 560 89 654 178 l 654 297 b 460 483 654 414 571 483 l 329 483 l 329 644 l 646 847 l 646 864 l 96 864 l 96 972 l 746 972 l 746 794 l 429 592 l 429 575 l 485 575 b 771 301 632 575 771 478 l 771 276 b 440 -19 771 108 629 -19 "},"4":{"ha":850,"x_min":0,"x_max":0,"o":"m 518 183 l 68 183 l 68 344 l 408 972 l 635 972 l 635 292 l 785 292 l 785 183 l 635 183 l 635 0 l 518 0 m 518 292 l 518 922 l 501 922 l 168 308 l 168 292 "},"5":{"ha":850,"x_min":0,"x_max":0,"o":"m 442 -19 b 92 311 217 -19 92 122 l 92 350 l 208 350 l 208 319 b 442 89 208 167 303 89 b 667 336 592 89 667 206 l 667 344 b 469 550 667 458 586 550 b 328 458 392 550 339 500 l 108 458 l 108 972 l 717 972 l 717 864 l 222 864 l 222 517 l 239 517 b 478 658 278 592 356 658 b 783 350 656 658 783 536 l 783 325 b 442 -19 783 142 664 -19 "},"6":{"ha":850,"x_min":0,"x_max":0,"o":"m 425 -19 b 88 301 233 -19 88 113 l 88 656 b 422 992 88 861 239 992 b 746 689 608 992 746 875 l 629 689 b 419 889 629 808 550 889 b 204 656 294 889 204 794 l 204 511 l 221 511 b 454 642 265 592 353 642 b 763 322 633 642 763 522 l 763 306 b 425 -19 763 114 617 -19 m 425 83 b 646 303 560 83 646 175 l 646 319 b 425 539 646 449 553 539 b 204 325 300 539 204 444 l 204 299 b 425 83 204 175 290 83 "},"7":{"ha":850,"x_min":0,"x_max":0,"o":"m 167 50 b 251 250 167 117 193 163 l 650 847 l 650 864 l 100 864 l 100 972 l 750 972 l 750 803 l 340 183 b 281 42 301 125 281 86 l 281 0 l 167 0 "},"8":{"ha":850,"x_min":0,"x_max":0,"o":"m 413 -19 b 88 244 217 -19 88 94 l 88 261 b 268 496 88 394 176 469 l 268 513 b 113 722 185 540 113 614 l 113 739 b 421 992 113 886 238 992 l 429 992 b 738 739 613 992 738 886 l 738 722 b 582 513 738 614 665 540 l 582 496 b 763 261 674 469 763 394 l 763 244 b 438 -19 763 94 633 -19 l 413 -19 m 425 558 b 621 719 540 558 621 628 l 621 728 b 425 886 621 822 543 886 b 229 728 307 886 229 822 l 229 719 b 425 558 229 628 310 558 m 433 86 b 646 261 558 86 646 158 l 646 269 b 429 450 646 383 557 450 l 421 450 b 204 269 293 450 204 383 l 204 261 b 417 86 204 158 292 86 "},"9":{"ha":850,"x_min":0,"x_max":0,"o":"m 428 -19 b 104 283 238 -19 104 97 l 221 283 b 431 83 221 164 300 83 b 646 317 556 83 646 178 l 646 461 l 629 461 b 399 331 588 381 504 331 b 88 646 218 331 88 446 l 88 663 b 425 992 88 854 229 992 b 763 667 621 992 763 856 l 763 317 b 428 -19 763 111 615 -19 m 425 433 b 646 643 550 433 646 524 l 646 669 b 425 889 646 793 560 889 b 204 665 290 889 204 793 l 204 649 b 425 433 204 519 297 433 "},"A":{"ha":850,"x_min":0,"x_max":0,"o":"m 315 972 l 535 972 l 829 0 l 704 0 l 633 242 l 217 242 l 146 0 l 21 0 m 601 350 l 433 922 l 417 922 l 249 350 "},"Á":{"ha":850,"x_min":0,"x_max":0,"o":"m 476 1239 l 601 1239 l 485 1075 l 385 1075 m 315 972 l 535 972 l 829 0 l 704 0 l 633 242 l 217 242 l 146 0 l 21 0 m 601 350 l 433 922 l 417 922 l 249 350 "},"Ă":{"ha":850,"x_min":0,"x_max":0,"o":"m 425 1075 b 275 1225 333 1075 275 1136 l 275 1239 l 371 1239 l 371 1222 b 425 1168 371 1193 390 1168 b 479 1222 460 1168 479 1193 l 479 1239 l 575 1239 l 575 1225 b 425 1075 575 1136 517 1075 m 315 972 l 535 972 l 829 0 l 704 0 l 633 242 l 217 242 l 146 0 l 21 0 m 601 350 l 433 922 l 417 922 l 249 350 "},"Ắ":{"ha":850,"x_min":0,"x_max":0,"o":"m 482 1410 l 607 1410 l 490 1246 l 390 1246 m 425 1014 b 275 1164 333 1014 275 1075 l 275 1178 l 371 1178 l 371 1161 b 425 1107 371 1132 390 1107 b 479 1161 460 1107 479 1132 l 479 1178 l 575 1178 l 575 1164 b 425 1014 575 1075 517 1014 m 315 972 l 535 972 l 829 0 l 704 0 l 633 242 l 217 242 l 146 0 l 21 0 m 601 350 l 433 922 l 417 922 l 249 350 "},"Ặ":{"ha":850,"x_min":0,"x_max":0,"o":"m 425 1075 b 275 1225 333 1075 275 1136 l 275 1239 l 371 1239 l 371 1222 b 425 1168 371 1193 390 1168 b 479 1222 460 1168 479 1193 l 479 1239 l 575 1239 l 575 1225 b 425 1075 575 1136 517 1075 m 315 972 l 535 972 l 829 0 l 704 0 l 633 242 l 217 242 l 146 0 l 21 0 m 601 350 l 433 922 l 417 922 l 249 350 m 425 -283 b 328 -186 372 -283 328 -239 b 425 -89 328 -133 372 -89 b 522 -186 478 -89 522 -133 b 425 -283 522 -239 478 -283 "},"Ằ":{"ha":850,"x_min":0,"x_max":0,"o":"m 267 1410 l 392 1410 l 483 1246 l 383 1246 m 425 1014 b 275 1164 333 1014 275 1075 l 275 1178 l 371 1178 l 371 1161 b 425 1107 371 1132 390 1107 b 479 1161 460 1107 479 1132 l 479 1178 l 575 1178 l 575 1164 b 425 1014 575 1075 517 1014 m 315 972 l 535 972 l 829 0 l 704 0 l 633 242 l 217 242 l 146 0 l 21 0 m 601 350 l 433 922 l 417 922 l 249 350 "},"Ẳ":{"ha":850,"x_min":0,"x_max":0,"o":"m 356 1340 l 356 1349 l 461 1349 b 496 1329 467 1338 479 1329 b 544 1382 522 1329 544 1349 b 489 1440 544 1422 517 1440 b 422 1385 449 1440 428 1413 l 356 1410 b 490 1507 369 1465 411 1507 b 619 1381 563 1507 619 1457 b 514 1263 619 1317 578 1263 b 439 1307 475 1263 450 1279 l 431 1307 l 451 1213 l 383 1213 m 425 1014 b 275 1164 333 1014 275 1075 l 275 1178 l 371 1178 l 371 1161 b 425 1107 371 1132 390 1107 b 479 1161 460 1107 479 1132 l 479 1178 l 575 1178 l 575 1164 b 425 1014 575 1075 517 1014 m 315 972 l 535 972 l 829 0 l 704 0 l 633 242 l 217 242 l 146 0 l 21 0 m 601 350 l 433 922 l 417 922 l 249 350 "},"Ẵ":{"ha":850,"x_min":0,"x_max":0,"o":"m 501 1219 b 400 1285 454 1219 425 1242 b 354 1332 382 1318 369 1332 b 318 1310 344 1332 335 1329 l 261 1242 l 193 1300 l 251 1368 b 360 1426 278 1400 310 1426 b 460 1360 414 1426 435 1400 b 507 1314 482 1324 493 1314 b 539 1335 517 1314 525 1318 l 599 1404 l 667 1346 l 610 1278 b 501 1219 582 1244 546 1219 m 425 1014 b 275 1164 333 1014 275 1075 l 275 1178 l 371 1178 l 371 1161 b 425 1107 371 1132 390 1107 b 479 1161 460 1107 479 1132 l 479 1178 l 575 1178 l 575 1164 b 425 1014 575 1075 517 1014 m 315 972 l 535 972 l 829 0 l 704 0 l 633 242 l 217 242 l 146 0 l 21 0 m 601 350 l 433 922 l 417 922 l 249 350 "},"Ǎ":{"ha":850,"x_min":0,"x_max":0,"o":"m 228 1239 l 344 1239 l 417 1117 l 433 1117 l 506 1239 l 622 1239 l 511 1075 l 339 1075 m 315 972 l 535 972 l 829 0 l 704 0 l 633 242 l 217 242 l 146 0 l 21 0 m 601 350 l 433 922 l 417 922 l 249 350 "},"Â":{"ha":850,"x_min":0,"x_max":0,"o":"m 339 1239 l 511 1239 l 622 1075 l 506 1075 l 433 1197 l 417 1197 l 344 1075 l 228 1075 m 315 972 l 535 972 l 829 0 l 704 0 l 633 242 l 217 242 l 146 0 l 21 0 m 601 350 l 433 922 l 417 922 l 249 350 "},"Ấ":{"ha":850,"x_min":0,"x_max":0,"o":"m 665 1361 l 790 1361 l 674 1197 l 574 1197 m 339 1239 l 511 1239 l 622 1075 l 506 1075 l 433 1197 l 417 1197 l 344 1075 l 228 1075 m 315 972 l 535 972 l 829 0 l 704 0 l 633 242 l 217 242 l 146 0 l 21 0 m 601 350 l 433 922 l 417 922 l 249 350 "},"Ậ":{"ha":850,"x_min":0,"x_max":0,"o":"m 339 1239 l 511 1239 l 622 1075 l 506 1075 l 433 1197 l 417 1197 l 344 1075 l 228 1075 m 315 972 l 535 972 l 829 0 l 704 0 l 633 242 l 217 242 l 146 0 l 21 0 m 601 350 l 433 922 l 417 922 l 249 350 m 425 -283 b 328 -186 372 -283 328 -239 b 425 -89 328 -133 372 -89 b 522 -186 478 -89 522 -133 b 425 -283 522 -239 478 -283 "},"Ầ":{"ha":850,"x_min":0,"x_max":0,"o":"m 47 1361 l 172 1361 l 264 1197 l 164 1197 m 339 1239 l 511 1239 l 622 1075 l 506 1075 l 433 1197 l 417 1197 l 344 1075 l 228 1075 m 315 972 l 535 972 l 829 0 l 704 0 l 633 242 l 217 242 l 146 0 l 21 0 m 601 350 l 433 922 l 417 922 l 249 350 "},"Ẩ":{"ha":850,"x_min":0,"x_max":0,"o":"m 563 1319 l 563 1328 l 668 1328 b 703 1308 674 1317 686 1308 b 751 1361 729 1308 751 1328 b 696 1419 751 1401 724 1419 b 629 1364 656 1419 635 1392 l 563 1389 b 697 1486 576 1444 618 1486 b 826 1360 769 1486 826 1436 b 721 1242 826 1296 785 1242 b 646 1286 682 1242 657 1258 l 638 1286 l 658 1192 l 590 1192 m 339 1239 l 511 1239 l 622 1075 l 506 1075 l 433 1197 l 417 1197 l 344 1075 l 228 1075 m 315 972 l 535 972 l 829 0 l 704 0 l 633 242 l 217 242 l 146 0 l 21 0 m 601 350 l 433 922 l 417 922 l 249 350 "},"Ẫ":{"ha":850,"x_min":0,"x_max":0,"o":"m 501 1213 b 400 1278 454 1213 425 1235 b 354 1325 382 1311 369 1325 b 318 1303 344 1325 335 1322 l 261 1235 l 193 1293 l 251 1361 b 360 1419 278 1393 310 1419 b 460 1353 414 1419 435 1393 b 507 1307 482 1317 493 1307 b 539 1328 517 1307 525 1311 l 599 1397 l 667 1339 l 610 1271 b 501 1213 582 1238 546 1213 m 339 1178 l 511 1178 l 622 1014 l 506 1014 l 433 1136 l 417 1136 l 344 1014 l 228 1014 m 315 972 l 535 972 l 829 0 l 704 0 l 633 242 l 217 242 l 146 0 l 21 0 m 601 350 l 433 922 l 417 922 l 249 350 "},"Ä":{"ha":850,"x_min":0,"x_max":0,"o":"m 564 1081 b 467 1178 511 1081 467 1125 b 564 1275 467 1231 511 1275 b 661 1178 617 1275 661 1231 b 564 1081 661 1125 617 1081 m 286 1081 b 189 1178 233 1081 189 1125 b 286 1275 189 1231 233 1275 b 383 1178 339 1275 383 1231 b 286 1081 383 1125 339 1081 m 315 972 l 535 972 l 829 0 l 704 0 l 633 242 l 217 242 l 146 0 l 21 0 m 601 350 l 433 922 l 417 922 l 249 350 "},"Ạ":{"ha":850,"x_min":0,"x_max":0,"o":"m 315 972 l 535 972 l 829 0 l 704 0 l 633 242 l 217 242 l 146 0 l 21 0 m 601 350 l 433 922 l 417 922 l 249 350 m 425 -283 b 328 -186 372 -283 328 -239 b 425 -89 328 -133 372 -89 b 522 -186 478 -89 522 -133 b 425 -283 522 -239 478 -283 "},"À":{"ha":850,"x_min":0,"x_max":0,"o":"m 261 1239 l 386 1239 l 478 1075 l 378 1075 m 315 972 l 535 972 l 829 0 l 704 0 l 633 242 l 217 242 l 146 0 l 21 0 m 601 350 l 433 922 l 417 922 l 249 350 "},"Ả":{"ha":850,"x_min":0,"x_max":0,"o":"m 350 1169 l 350 1178 l 456 1178 b 490 1158 461 1167 474 1158 b 539 1211 517 1158 539 1178 b 483 1269 539 1251 511 1269 b 417 1214 443 1269 422 1242 l 350 1239 b 485 1336 364 1294 406 1336 b 614 1210 557 1336 614 1286 b 508 1092 614 1146 572 1092 b 433 1136 469 1092 444 1108 l 425 1136 l 446 1042 l 378 1042 m 315 972 l 535 972 l 829 0 l 704 0 l 633 242 l 217 242 l 146 0 l 21 0 m 601 350 l 433 922 l 417 922 l 249 350 "},"Ā":{"ha":850,"x_min":0,"x_max":0,"o":"m 243 1167 l 607 1167 l 607 1075 l 243 1075 m 315 972 l 535 972 l 829 0 l 704 0 l 633 242 l 217 242 l 146 0 l 21 0 m 601 350 l 433 922 l 417 922 l 249 350 "},"Ą":{"ha":850,"x_min":0,"x_max":0,"o":"m 789 -228 b 681 -125 735 -228 681 -193 b 685 -92 681 -115 682 -106 l 704 0 l 633 242 l 217 242 l 146 0 l 21 0 l 315 972 l 535 972 l 829 0 l 800 0 l 778 -94 b 776 -106 776 -101 776 -104 b 808 -136 776 -125 789 -136 l 867 -136 l 867 -228 l 789 -228 m 601 350 l 433 922 l 417 922 l 249 350 "},"Å":{"ha":850,"x_min":0,"x_max":0,"o":"m 425 1075 b 283 1217 346 1075 283 1138 b 425 1358 283 1296 346 1358 b 567 1217 504 1358 567 1296 b 425 1075 567 1138 504 1075 m 425 1158 b 483 1217 458 1158 483 1183 b 425 1275 483 1250 458 1275 b 367 1217 392 1275 367 1250 b 425 1158 367 1183 392 1158 m 315 972 l 535 972 l 829 0 l 704 0 l 633 242 l 217 242 l 146 0 l 21 0 m 601 350 l 433 922 l 417 922 l 249 350 "},"Ã":{"ha":850,"x_min":0,"x_max":0,"o":"m 496 1049 b 394 1114 449 1049 419 1071 b 349 1161 376 1147 364 1161 b 313 1139 339 1161 329 1158 l 256 1071 l 188 1129 l 246 1197 b 354 1256 272 1229 304 1256 b 454 1189 408 1256 429 1229 b 501 1143 476 1153 488 1143 b 533 1164 511 1143 519 1147 l 593 1233 l 661 1175 l 604 1107 b 496 1049 576 1074 540 1049 m 315 972 l 535 972 l 829 0 l 704 0 l 633 242 l 217 242 l 146 0 l 21 0 m 601 350 l 433 922 l 417 922 l 249 350 "},"Æ":{"ha":850,"x_min":0,"x_max":0,"o":"m 315 972 l 750 972 l 750 864 l 533 864 l 533 542 l 742 542 l 742 433 l 533 433 l 533 108 l 758 108 l 758 0 l 417 0 l 417 242 l 217 242 l 146 0 l 21 0 m 417 350 l 417 864 l 400 864 l 249 350 "},"B":{"ha":850,"x_min":0,"x_max":0,"o":"m 79 108 l 163 108 l 163 864 l 79 864 l 79 972 l 472 972 b 760 719 658 972 760 864 l 760 703 b 596 496 760 597 688 521 l 596 479 b 760 271 688 454 760 375 l 760 254 b 472 0 760 108 658 0 l 79 0 m 468 542 b 649 703 579 542 649 603 l 649 711 b 464 864 649 806 572 864 l 279 864 l 279 542 m 464 108 b 649 263 572 108 649 167 l 649 271 b 468 433 649 369 579 433 l 279 433 l 279 108 "},"Ƀ":{"ha":850,"x_min":0,"x_max":0,"o":"m 79 108 l 163 108 l 163 217 l 79 217 l 79 325 l 163 325 l 163 864 l 79 864 l 79 972 l 472 972 b 760 719 658 972 760 864 l 760 703 b 596 496 760 597 688 521 l 596 479 b 760 271 688 454 760 375 l 760 254 b 472 0 760 108 658 0 l 79 0 m 468 542 b 649 703 579 542 649 603 l 649 711 b 464 864 649 806 572 864 l 279 864 l 279 542 m 464 108 b 649 263 572 108 649 167 l 649 271 b 468 433 649 369 579 433 l 279 433 l 279 325 l 429 325 l 429 217 l 279 217 l 279 108 "},"C":{"ha":850,"x_min":0,"x_max":0,"o":"m 431 -19 b 89 378 217 -19 89 119 l 89 594 b 431 992 89 844 217 992 b 772 639 653 992 772 836 l 772 622 l 656 622 l 656 639 b 431 883 653 767 589 883 b 206 586 281 883 206 764 l 206 386 b 431 89 206 197 281 89 b 656 333 589 89 656 206 l 656 350 l 772 350 l 772 333 b 431 -19 772 136 653 -19 "},"Ć":{"ha":850,"x_min":0,"x_max":0,"o":"m 476 1239 l 601 1239 l 485 1075 l 385 1075 m 431 -19 b 89 378 217 -19 89 119 l 89 594 b 431 992 89 844 217 992 b 772 639 653 992 772 836 l 772 622 l 656 622 l 656 639 b 431 883 653 767 589 883 b 206 586 281 883 206 764 l 206 386 b 431 89 206 197 281 89 b 656 333 589 89 656 206 l 656 350 l 772 350 l 772 333 b 431 -19 772 136 653 -19 "},"Č":{"ha":850,"x_min":0,"x_max":0,"o":"m 228 1239 l 344 1239 l 417 1117 l 433 1117 l 506 1239 l 622 1239 l 511 1075 l 339 1075 m 431 -19 b 89 378 217 -19 89 119 l 89 594 b 431 992 89 844 217 992 b 772 639 653 992 772 836 l 772 622 l 656 622 l 656 639 b 431 883 653 767 589 883 b 206 586 281 883 206 764 l 206 386 b 431 89 206 197 281 89 b 656 333 589 89 656 206 l 656 350 l 772 350 l 772 333 b 431 -19 772 136 653 -19 "},"Ç":{"ha":850,"x_min":0,"x_max":0,"o":"m 463 -294 b 328 -197 383 -294 342 -253 l 394 -172 b 461 -228 400 -200 421 -228 b 517 -169 489 -228 517 -210 b 468 -117 517 -136 494 -117 b 433 -136 451 -117 439 -125 l 328 -136 l 328 -128 l 353 -12 b 89 378 186 17 89 151 l 89 594 b 431 992 89 844 217 992 b 772 639 653 992 772 836 l 772 622 l 656 622 l 656 639 b 431 883 653 767 589 883 b 206 586 281 883 206 764 l 206 386 b 431 89 206 197 281 89 b 656 333 589 89 656 206 l 656 350 l 772 350 l 772 333 b 431 -19 772 136 653 -19 l 419 -19 l 403 -94 l 411 -94 b 486 -50 422 -67 447 -50 b 592 -168 550 -50 592 -104 b 463 -294 592 -244 535 -294 "},"Ĉ":{"ha":850,"x_min":0,"x_max":0,"o":"m 339 1239 l 511 1239 l 622 1075 l 506 1075 l 433 1197 l 417 1197 l 344 1075 l 228 1075 m 431 -19 b 89 378 217 -19 89 119 l 89 594 b 431 992 89 844 217 992 b 772 639 653 992 772 836 l 772 622 l 656 622 l 656 639 b 431 883 653 767 589 883 b 206 586 281 883 206 764 l 206 386 b 431 89 206 197 281 89 b 656 333 589 89 656 206 l 656 350 l 772 350 l 772 333 b 431 -19 772 136 653 -19 "},"Ċ":{"ha":850,"x_min":0,"x_max":0,"o":"m 425 1081 b 328 1178 372 1081 328 1125 b 425 1275 328 1231 372 1275 b 522 1178 478 1275 522 1231 b 425 1081 522 1125 478 1081 m 431 -19 b 89 378 217 -19 89 119 l 89 594 b 431 992 89 844 217 992 b 772 639 653 992 772 836 l 772 622 l 656 622 l 656 639 b 431 883 653 767 589 883 b 206 586 281 883 206 764 l 206 386 b 431 89 206 197 281 89 b 656 333 589 89 656 206 l 656 350 l 772 350 l 772 333 b 431 -19 772 136 653 -19 "},"D":{"ha":850,"x_min":0,"x_max":0,"o":"m 101 110 l 185 110 l 185 864 l 101 864 l 101 972 l 421 972 b 768 611 660 972 768 861 l 768 361 b 421 0 768 111 660 0 l 101 0 m 404 108 b 651 369 574 108 651 167 l 651 603 b 404 864 651 806 574 864 l 301 864 l 301 108 "},"Ď":{"ha":850,"x_min":0,"x_max":0,"o":"m 228 1239 l 344 1239 l 417 1117 l 433 1117 l 506 1239 l 622 1239 l 511 1075 l 339 1075 m 101 110 l 185 110 l 185 864 l 101 864 l 101 972 l 421 972 b 768 611 660 972 768 861 l 768 361 b 421 0 768 111 660 0 l 101 0 m 404 108 b 651 369 574 108 651 167 l 651 603 b 404 864 651 806 574 864 l 301 864 l 301 108 "},"Đ":{"ha":850,"x_min":0,"x_max":0,"o":"m 101 108 l 185 108 l 185 432 l 101 432 l 101 540 l 185 540 l 185 864 l 101 864 l 101 972 l 421 972 b 768 611 660 972 768 861 l 768 361 b 421 0 768 111 660 0 l 101 0 m 404 108 b 651 369 574 108 651 167 l 651 603 b 404 864 651 806 574 864 l 301 864 l 301 540 l 451 540 l 451 432 l 301 432 l 301 108 "},"Ḍ":{"ha":850,"x_min":0,"x_max":0,"o":"m 101 110 l 185 110 l 185 864 l 101 864 l 101 972 l 421 972 b 768 611 660 972 768 861 l 768 361 b 421 0 768 111 660 0 l 101 0 m 404 108 b 651 369 574 108 651 167 l 651 603 b 404 864 651 806 574 864 l 301 864 l 301 108 m 425 -283 b 328 -186 372 -283 328 -239 b 425 -89 328 -133 372 -89 b 522 -186 478 -89 522 -133 b 425 -283 522 -239 478 -283 "},"Ḏ":{"ha":850,"x_min":0,"x_max":0,"o":"m 101 110 l 185 110 l 185 864 l 101 864 l 101 972 l 421 972 b 768 611 660 972 768 861 l 768 361 b 421 0 768 111 660 0 l 101 0 m 404 108 b 651 369 574 108 651 167 l 651 603 b 404 864 651 806 574 864 l 301 864 l 301 108 m 229 -89 l 621 -89 l 621 -181 l 229 -181 "},"Ð":{"ha":850,"x_min":0,"x_max":0,"o":"m 101 108 l 185 108 l 185 432 l 101 432 l 101 540 l 185 540 l 185 864 l 101 864 l 101 972 l 421 972 b 768 611 660 972 768 861 l 768 361 b 421 0 768 111 660 0 l 101 0 m 404 108 b 651 369 574 108 651 167 l 651 603 b 404 864 651 806 574 864 l 301 864 l 301 540 l 451 540 l 451 432 l 301 432 l 301 108 "},"E":{"ha":850,"x_min":0,"x_max":0,"o":"m 131 972 l 719 972 l 719 864 l 247 864 l 247 542 l 711 542 l 711 433 l 247 433 l 247 108 l 728 108 l 728 0 l 131 0 "},"É":{"ha":850,"x_min":0,"x_max":0,"o":"m 476 1239 l 601 1239 l 485 1075 l 385 1075 m 131 972 l 719 972 l 719 864 l 247 864 l 247 542 l 711 542 l 711 433 l 247 433 l 247 108 l 728 108 l 728 0 l 131 0 "},"Ĕ":{"ha":850,"x_min":0,"x_max":0,"o":"m 425 1075 b 275 1225 333 1075 275 1136 l 275 1239 l 371 1239 l 371 1222 b 425 1168 371 1193 390 1168 b 479 1222 460 1168 479 1193 l 479 1239 l 575 1239 l 575 1225 b 425 1075 575 1136 517 1075 m 131 972 l 719 972 l 719 864 l 247 864 l 247 542 l 711 542 l 711 433 l 247 433 l 247 108 l 728 108 l 728 0 l 131 0 "},"Ě":{"ha":850,"x_min":0,"x_max":0,"o":"m 228 1239 l 344 1239 l 417 1117 l 433 1117 l 506 1239 l 622 1239 l 511 1075 l 339 1075 m 131 972 l 719 972 l 719 864 l 247 864 l 247 542 l 711 542 l 711 433 l 247 433 l 247 108 l 728 108 l 728 0 l 131 0 "},"Ê":{"ha":850,"x_min":0,"x_max":0,"o":"m 339 1239 l 511 1239 l 622 1075 l 506 1075 l 433 1197 l 417 1197 l 344 1075 l 228 1075 m 131 972 l 719 972 l 719 864 l 247 864 l 247 542 l 711 542 l 711 433 l 247 433 l 247 108 l 728 108 l 728 0 l 131 0 "},"Ế":{"ha":850,"x_min":0,"x_max":0,"o":"m 665 1361 l 790 1361 l 674 1197 l 574 1197 m 339 1239 l 511 1239 l 622 1075 l 506 1075 l 433 1197 l 417 1197 l 344 1075 l 228 1075 m 131 972 l 719 972 l 719 864 l 247 864 l 247 542 l 711 542 l 711 433 l 247 433 l 247 108 l 728 108 l 728 0 l 131 0 "},"Ệ":{"ha":850,"x_min":0,"x_max":0,"o":"m 339 1239 l 511 1239 l 622 1075 l 506 1075 l 433 1197 l 417 1197 l 344 1075 l 228 1075 m 131 972 l 719 972 l 719 864 l 247 864 l 247 542 l 711 542 l 711 433 l 247 433 l 247 108 l 728 108 l 728 0 l 131 0 m 425 -283 b 328 -186 372 -283 328 -239 b 425 -89 328 -133 372 -89 b 522 -186 478 -89 522 -133 b 425 -283 522 -239 478 -283 "},"Ề":{"ha":850,"x_min":0,"x_max":0,"o":"m 47 1361 l 172 1361 l 264 1197 l 164 1197 m 339 1239 l 511 1239 l 622 1075 l 506 1075 l 433 1197 l 417 1197 l 344 1075 l 228 1075 m 131 972 l 719 972 l 719 864 l 247 864 l 247 542 l 711 542 l 711 433 l 247 433 l 247 108 l 728 108 l 728 0 l 131 0 "},"Ể":{"ha":850,"x_min":0,"x_max":0,"o":"m 563 1319 l 563 1328 l 668 1328 b 703 1308 674 1317 686 1308 b 751 1361 729 1308 751 1328 b 696 1419 751 1401 724 1419 b 629 1364 656 1419 635 1392 l 563 1389 b 697 1486 576 1444 618 1486 b 826 1360 769 1486 826 1436 b 721 1242 826 1296 785 1242 b 646 1286 682 1242 657 1258 l 638 1286 l 658 1192 l 590 1192 m 339 1239 l 511 1239 l 622 1075 l 506 1075 l 433 1197 l 417 1197 l 344 1075 l 228 1075 m 131 972 l 719 972 l 719 864 l 247 864 l 247 542 l 711 542 l 711 433 l 247 433 l 247 108 l 728 108 l 728 0 l 131 0 "},"Ễ":{"ha":850,"x_min":0,"x_max":0,"o":"m 501 1214 b 400 1279 454 1214 425 1236 b 354 1326 382 1313 369 1326 b 318 1304 344 1326 335 1324 l 261 1236 l 193 1294 l 251 1363 b 360 1421 278 1394 310 1421 b 460 1354 414 1421 435 1394 b 507 1308 482 1318 493 1308 b 539 1329 517 1308 525 1313 l 599 1399 l 667 1340 l 610 1272 b 501 1214 582 1239 546 1214 m 339 1179 l 511 1179 l 622 1015 l 506 1015 l 433 1138 l 417 1138 l 344 1015 l 228 1015 m 131 972 l 719 972 l 719 864 l 247 864 l 247 542 l 711 542 l 711 433 l 247 433 l 247 108 l 728 108 l 728 0 l 131 0 "},"Ë":{"ha":850,"x_min":0,"x_max":0,"o":"m 564 1081 b 467 1178 511 1081 467 1125 b 564 1275 467 1231 511 1275 b 661 1178 617 1275 661 1231 b 564 1081 661 1125 617 1081 m 286 1081 b 189 1178 233 1081 189 1125 b 286 1275 189 1231 233 1275 b 383 1178 339 1275 383 1231 b 286 1081 383 1125 339 1081 m 131 972 l 719 972 l 719 864 l 247 864 l 247 542 l 711 542 l 711 433 l 247 433 l 247 108 l 728 108 l 728 0 l 131 0 "},"Ė":{"ha":850,"x_min":0,"x_max":0,"o":"m 425 1081 b 328 1178 372 1081 328 1125 b 425 1275 328 1231 372 1275 b 522 1178 478 1275 522 1231 b 425 1081 522 1125 478 1081 m 131 972 l 719 972 l 719 864 l 247 864 l 247 542 l 711 542 l 711 433 l 247 433 l 247 108 l 728 108 l 728 0 l 131 0 "},"Ẹ":{"ha":850,"x_min":0,"x_max":0,"o":"m 131 972 l 719 972 l 719 864 l 247 864 l 247 542 l 711 542 l 711 433 l 247 433 l 247 108 l 728 108 l 728 0 l 131 0 m 425 -283 b 328 -186 372 -283 328 -239 b 425 -89 328 -133 372 -89 b 522 -186 478 -89 522 -133 b 425 -283 522 -239 478 -283 "},"È":{"ha":850,"x_min":0,"x_max":0,"o":"m 261 1239 l 386 1239 l 478 1075 l 378 1075 m 131 972 l 719 972 l 719 864 l 247 864 l 247 542 l 711 542 l 711 433 l 247 433 l 247 108 l 728 108 l 728 0 l 131 0 "},"Ẻ":{"ha":850,"x_min":0,"x_max":0,"o":"m 350 1169 l 350 1178 l 456 1178 b 490 1158 461 1167 474 1158 b 539 1211 517 1158 539 1178 b 483 1269 539 1251 511 1269 b 417 1214 443 1269 422 1242 l 350 1239 b 485 1336 364 1294 406 1336 b 614 1210 557 1336 614 1286 b 508 1092 614 1146 572 1092 b 433 1136 469 1092 444 1108 l 425 1136 l 446 1042 l 378 1042 m 131 972 l 719 972 l 719 864 l 247 864 l 247 542 l 711 542 l 711 433 l 247 433 l 247 108 l 728 108 l 728 0 l 131 0 "},"Ē":{"ha":850,"x_min":0,"x_max":0,"o":"m 243 1167 l 607 1167 l 607 1075 l 243 1075 m 131 972 l 719 972 l 719 864 l 247 864 l 247 542 l 711 542 l 711 433 l 247 433 l 247 108 l 728 108 l 728 0 l 131 0 "},"Ę":{"ha":850,"x_min":0,"x_max":0,"o":"m 717 -228 b 608 -125 661 -228 608 -193 b 613 -92 608 -115 610 -106 l 632 0 l 131 0 l 131 972 l 719 972 l 719 864 l 247 864 l 247 542 l 711 542 l 711 433 l 247 433 l 247 108 l 728 108 l 728 0 l 706 -94 b 704 -106 704 -101 704 -104 b 736 -136 704 -125 717 -136 l 794 -136 l 794 -228 l 717 -228 "},"Ẽ":{"ha":850,"x_min":0,"x_max":0,"o":"m 496 1049 b 394 1114 449 1049 419 1071 b 349 1161 376 1147 364 1161 b 313 1139 339 1161 329 1158 l 256 1071 l 188 1129 l 246 1197 b 354 1256 272 1229 304 1256 b 454 1189 408 1256 429 1229 b 501 1143 476 1153 488 1143 b 533 1164 511 1143 519 1147 l 593 1233 l 661 1175 l 604 1107 b 496 1049 576 1074 540 1049 m 131 972 l 719 972 l 719 864 l 247 864 l 247 542 l 711 542 l 711 433 l 247 433 l 247 108 l 728 108 l 728 0 l 131 0 "},"Ə":{"ha":850,"x_min":0,"x_max":0,"o":"m 425 -19 b 83 333 203 -19 83 136 l 83 503 l 650 503 l 650 586 b 425 886 650 764 575 886 b 200 639 267 886 203 767 l 200 622 l 83 622 l 83 639 b 425 992 83 836 203 992 b 767 594 639 992 767 844 l 767 378 b 425 -19 767 119 639 -19 m 425 86 b 650 386 575 86 650 197 l 650 394 l 200 394 l 200 333 b 425 86 200 206 267 86 "},"F":{"ha":850,"x_min":0,"x_max":0,"o":"m 132 972 l 729 972 l 729 864 l 249 864 l 249 542 l 721 542 l 721 433 l 249 433 l 249 0 l 132 0 "},"G":{"ha":850,"x_min":0,"x_max":0,"o":"m 418 -19 b 82 378 210 -19 82 119 l 82 594 b 424 992 82 844 210 992 b 765 639 646 992 765 836 l 765 622 l 649 622 l 649 639 b 424 883 649 767 582 883 b 199 586 274 883 199 764 l 199 386 b 426 89 199 197 274 89 b 649 342 564 89 649 183 l 649 358 l 332 358 l 332 467 l 765 467 l 765 0 l 657 0 l 657 117 l 640 117 b 418 -19 610 36 524 -19 "},"Ğ":{"ha":850,"x_min":0,"x_max":0,"o":"m 425 1075 b 275 1225 333 1075 275 1136 l 275 1239 l 371 1239 l 371 1222 b 425 1168 371 1193 390 1168 b 479 1222 460 1168 479 1193 l 479 1239 l 575 1239 l 575 1225 b 425 1075 575 1136 517 1075 m 418 -19 b 82 378 210 -19 82 119 l 82 594 b 424 992 82 844 210 992 b 765 639 646 992 765 836 l 765 622 l 649 622 l 649 639 b 424 883 649 767 582 883 b 199 586 274 883 199 764 l 199 386 b 426 89 199 197 274 89 b 649 342 564 89 649 183 l 649 358 l 332 358 l 332 467 l 765 467 l 765 0 l 657 0 l 657 117 l 640 117 b 418 -19 610 36 524 -19 "},"Ǧ":{"ha":850,"x_min":0,"x_max":0,"o":"m 228 1239 l 344 1239 l 417 1117 l 433 1117 l 506 1239 l 622 1239 l 511 1075 l 339 1075 m 418 -19 b 82 378 210 -19 82 119 l 82 594 b 424 992 82 844 210 992 b 765 639 646 992 765 836 l 765 622 l 649 622 l 649 639 b 424 883 649 767 582 883 b 199 586 274 883 199 764 l 199 386 b 426 89 199 197 274 89 b 649 342 564 89 649 183 l 649 358 l 332 358 l 332 467 l 765 467 l 765 0 l 657 0 l 657 117 l 640 117 b 418 -19 610 36 524 -19 "},"Ĝ":{"ha":850,"x_min":0,"x_max":0,"o":"m 339 1239 l 511 1239 l 622 1075 l 506 1075 l 433 1197 l 417 1197 l 344 1075 l 228 1075 m 418 -19 b 82 378 210 -19 82 119 l 82 594 b 424 992 82 844 210 992 b 765 639 646 992 765 836 l 765 622 l 649 622 l 649 639 b 424 883 649 767 582 883 b 199 586 274 883 199 764 l 199 386 b 426 89 199 197 274 89 b 649 342 564 89 649 183 l 649 358 l 332 358 l 332 467 l 765 467 l 765 0 l 657 0 l 657 117 l 640 117 b 418 -19 610 36 524 -19 "},"Ģ":{"ha":850,"x_min":0,"x_max":0,"o":"m 418 -19 b 82 378 210 -19 82 119 l 82 594 b 424 992 82 844 210 992 b 765 639 646 992 765 836 l 765 622 l 649 622 l 649 639 b 424 883 649 767 582 883 b 199 586 274 883 199 764 l 199 386 b 426 89 199 197 274 89 b 649 342 564 89 649 183 l 649 358 l 332 358 l 332 467 l 765 467 l 765 0 l 657 0 l 657 117 l 640 117 b 418 -19 610 36 524 -19 m 342 -331 l 407 -331 b 444 -289 433 -331 444 -315 l 444 -254 b 421 -258 438 -257 429 -258 b 325 -161 369 -258 325 -214 b 422 -64 325 -108 369 -64 b 519 -161 475 -64 519 -108 l 519 -297 b 413 -406 519 -360 475 -406 l 342 -406 "},"Ġ":{"ha":850,"x_min":0,"x_max":0,"o":"m 425 1081 b 328 1178 372 1081 328 1125 b 425 1275 328 1231 372 1275 b 522 1178 478 1275 522 1231 b 425 1081 522 1125 478 1081 m 418 -19 b 82 378 210 -19 82 119 l 82 594 b 424 992 82 844 210 992 b 765 639 646 992 765 836 l 765 622 l 649 622 l 649 639 b 424 883 649 767 582 883 b 199 586 274 883 199 764 l 199 386 b 426 89 199 197 274 89 b 649 342 564 89 649 183 l 649 358 l 332 358 l 332 467 l 765 467 l 765 0 l 657 0 l 657 117 l 640 117 b 418 -19 610 36 524 -19 "},"Ḡ":{"ha":850,"x_min":0,"x_max":0,"o":"m 243 1167 l 607 1167 l 607 1075 l 243 1075 m 418 -19 b 82 378 210 -19 82 119 l 82 594 b 424 992 82 844 210 992 b 765 639 646 992 765 836 l 765 622 l 649 622 l 649 639 b 424 883 649 767 582 883 b 199 586 274 883 199 764 l 199 386 b 426 89 199 197 274 89 b 649 342 564 89 649 183 l 649 358 l 332 358 l 332 467 l 765 467 l 765 0 l 657 0 l 657 117 l 640 117 b 418 -19 610 36 524 -19 "},"H":{"ha":850,"x_min":0,"x_max":0,"o":"m 101 972 l 218 972 l 218 542 l 632 542 l 632 972 l 749 972 l 749 0 l 632 0 l 632 433 l 218 433 l 218 0 l 101 0 "},"Ħ":{"ha":850,"x_min":0,"x_max":0,"o":"m 101 689 l 18 689 l 18 797 l 101 797 l 101 972 l 218 972 l 218 797 l 632 797 l 632 972 l 749 972 l 749 797 l 832 797 l 832 689 l 749 689 l 749 0 l 632 0 l 632 433 l 218 433 l 218 0 l 101 0 m 632 542 l 632 689 l 218 689 l 218 542 "},"Ḫ":{"ha":850,"x_min":0,"x_max":0,"o":"m 101 972 l 218 972 l 218 542 l 632 542 l 632 972 l 749 972 l 749 0 l 632 0 l 632 433 l 218 433 l 218 0 l 101 0 m 425 -253 b 275 -103 333 -253 275 -192 l 275 -89 l 371 -89 l 371 -106 b 425 -160 371 -135 390 -160 b 479 -106 460 -160 479 -135 l 479 -89 l 575 -89 l 575 -103 b 425 -253 575 -192 517 -253 "},"Ĥ":{"ha":850,"x_min":0,"x_max":0,"o":"m 339 1239 l 511 1239 l 622 1075 l 506 1075 l 433 1197 l 417 1197 l 344 1075 l 228 1075 m 101 972 l 218 972 l 218 542 l 632 542 l 632 972 l 749 972 l 749 0 l 632 0 l 632 433 l 218 433 l 218 0 l 101 0 "},"Ḥ":{"ha":850,"x_min":0,"x_max":0,"o":"m 101 972 l 218 972 l 218 542 l 632 542 l 632 972 l 749 972 l 749 0 l 632 0 l 632 433 l 218 433 l 218 0 l 101 0 m 425 -283 b 328 -186 372 -283 328 -239 b 425 -89 328 -133 372 -89 b 522 -186 478 -89 522 -133 b 425 -283 522 -239 478 -283 "},"I":{"ha":850,"x_min":0,"x_max":0,"o":"m 117 108 l 367 108 l 367 864 l 117 864 l 117 972 l 733 972 l 733 864 l 483 864 l 483 108 l 733 108 l 733 0 l 117 0 "},"Ĳ":{"ha":850,"x_min":0,"x_max":0,"o":"m 410 -19 b 101 292 221 -19 101 92 l 101 367 l 218 367 l 218 292 b 410 89 218 169 281 89 b 585 292 539 89 585 169 l 585 864 l 485 864 l 485 972 l 785 972 l 785 864 l 701 864 l 701 292 b 410 -19 701 92 599 -19 m 101 972 l 218 972 l 218 475 l 101 475 "},"Í":{"ha":850,"x_min":0,"x_max":0,"o":"m 479 1239 l 604 1239 l 488 1075 l 388 1075 m 117 108 l 367 108 l 367 864 l 117 864 l 117 972 l 733 972 l 733 864 l 483 864 l 483 108 l 733 108 l 733 0 l 117 0 "},"Ĭ":{"ha":850,"x_min":0,"x_max":0,"o":"m 428 1075 b 278 1225 336 1075 278 1136 l 278 1239 l 374 1239 l 374 1222 b 428 1168 374 1193 393 1168 b 482 1222 463 1168 482 1193 l 482 1239 l 578 1239 l 578 1225 b 428 1075 578 1136 519 1075 m 117 108 l 367 108 l 367 864 l 117 864 l 117 972 l 733 972 l 733 864 l 483 864 l 483 108 l 733 108 l 733 0 l 117 0 "},"Ǐ":{"ha":850,"x_min":0,"x_max":0,"o":"m 231 1239 l 347 1239 l 419 1117 l 436 1117 l 508 1239 l 625 1239 l 514 1075 l 342 1075 m 117 108 l 367 108 l 367 864 l 117 864 l 117 972 l 733 972 l 733 864 l 483 864 l 483 108 l 733 108 l 733 0 l 117 0 "},"Î":{"ha":850,"x_min":0,"x_max":0,"o":"m 342 1239 l 514 1239 l 625 1075 l 508 1075 l 436 1197 l 419 1197 l 347 1075 l 231 1075 m 117 108 l 367 108 l 367 864 l 117 864 l 117 972 l 733 972 l 733 864 l 483 864 l 483 108 l 733 108 l 733 0 l 117 0 "},"Ï":{"ha":850,"x_min":0,"x_max":0,"o":"m 567 1081 b 469 1178 514 1081 469 1125 b 567 1275 469 1231 514 1275 b 664 1178 619 1275 664 1231 b 567 1081 664 1125 619 1081 m 289 1081 b 192 1178 236 1081 192 1125 b 289 1275 192 1231 236 1275 b 386 1178 342 1275 386 1231 b 289 1081 386 1125 342 1081 m 117 108 l 367 108 l 367 864 l 117 864 l 117 972 l 733 972 l 733 864 l 483 864 l 483 108 l 733 108 l 733 0 l 117 0 "},"İ":{"ha":850,"x_min":0,"x_max":0,"o":"m 428 1081 b 331 1178 375 1081 331 1125 b 428 1275 331 1231 375 1275 b 525 1178 481 1275 525 1231 b 428 1081 525 1125 481 1081 m 117 108 l 367 108 l 367 864 l 117 864 l 117 972 l 733 972 l 733 864 l 483 864 l 483 108 l 733 108 l 733 0 l 117 0 "},"Ị":{"ha":850,"x_min":0,"x_max":0,"o":"m 117 108 l 367 108 l 367 864 l 117 864 l 117 972 l 733 972 l 733 864 l 483 864 l 483 108 l 733 108 l 733 0 l 117 0 m 425 -283 b 328 -186 372 -283 328 -239 b 425 -89 328 -133 372 -89 b 522 -186 478 -89 522 -133 b 425 -283 522 -239 478 -283 "},"Ì":{"ha":850,"x_min":0,"x_max":0,"o":"m 264 1239 l 389 1239 l 481 1075 l 381 1075 m 117 108 l 367 108 l 367 864 l 117 864 l 117 972 l 733 972 l 733 864 l 483 864 l 483 108 l 733 108 l 733 0 l 117 0 "},"Ỉ":{"ha":850,"x_min":0,"x_max":0,"o":"m 353 1169 l 353 1178 l 458 1178 b 493 1158 464 1167 476 1158 b 542 1211 519 1158 542 1178 b 486 1269 542 1251 514 1269 b 419 1214 446 1269 425 1242 l 353 1239 b 488 1336 367 1294 408 1336 b 617 1210 560 1336 617 1286 b 511 1092 617 1146 575 1092 b 436 1136 472 1092 447 1108 l 428 1136 l 449 1042 l 381 1042 m 117 108 l 367 108 l 367 864 l 117 864 l 117 972 l 733 972 l 733 864 l 483 864 l 483 108 l 733 108 l 733 0 l 117 0 "},"Ī":{"ha":850,"x_min":0,"x_max":0,"o":"m 246 1167 l 610 1167 l 610 1075 l 246 1075 m 117 108 l 367 108 l 367 864 l 117 864 l 117 972 l 733 972 l 733 864 l 483 864 l 483 108 l 733 108 l 733 0 l 117 0 "},"Į":{"ha":850,"x_min":0,"x_max":0,"o":"m 722 -228 b 614 -125 667 -228 614 -193 b 618 -92 614 -115 615 -106 l 638 0 l 117 0 l 117 108 l 367 108 l 367 864 l 117 864 l 117 972 l 733 972 l 733 864 l 483 864 l 483 108 l 733 108 l 733 0 l 711 -94 b 710 -106 710 -101 710 -104 b 742 -136 710 -125 722 -136 l 800 -136 l 800 -228 l 722 -228 "},"Ĩ":{"ha":850,"x_min":0,"x_max":0,"o":"m 499 1049 b 397 1114 451 1049 422 1071 b 351 1161 379 1147 367 1161 b 315 1139 342 1161 332 1158 l 258 1071 l 190 1129 l 249 1197 b 357 1256 275 1229 307 1256 b 457 1189 411 1256 432 1229 b 504 1143 479 1153 490 1143 b 536 1164 514 1143 522 1147 l 596 1233 l 664 1175 l 607 1107 b 499 1049 579 1074 543 1049 m 117 108 l 367 108 l 367 864 l 117 864 l 117 972 l 733 972 l 733 864 l 483 864 l 483 108 l 733 108 l 733 0 l 117 0 "},"J":{"ha":850,"x_min":0,"x_max":0,"o":"m 410 -19 b 101 292 221 -19 101 92 l 101 367 l 218 367 l 218 292 b 410 89 218 169 281 89 b 585 292 539 89 585 169 l 585 864 l 485 864 l 485 972 l 785 972 l 785 864 l 701 864 l 701 292 b 410 -19 701 92 599 -19 "},"Ĵ":{"ha":850,"x_min":0,"x_max":0,"o":"m 549 1239 l 721 1239 l 832 1075 l 715 1075 l 643 1197 l 626 1197 l 554 1075 l 438 1075 m 410 -19 b 101 292 221 -19 101 92 l 101 367 l 218 367 l 218 292 b 410 89 218 169 281 89 b 585 292 539 89 585 169 l 585 864 l 485 864 l 485 972 l 785 972 l 785 864 l 701 864 l 701 292 b 410 -19 701 92 599 -19 "},"K":{"ha":850,"x_min":0,"x_max":0,"o":"m 124 972 l 240 972 l 240 542 l 272 542 l 646 972 l 790 972 l 790 964 l 388 494 l 388 478 l 807 8 l 807 0 l 660 0 l 272 433 l 240 433 l 240 0 l 124 0 "},"Ķ":{"ha":850,"x_min":0,"x_max":0,"o":"m 124 972 l 240 972 l 240 542 l 272 542 l 646 972 l 790 972 l 790 964 l 388 494 l 388 478 l 807 8 l 807 0 l 660 0 l 272 433 l 240 433 l 240 0 l 124 0 m 358 -331 l 424 -331 b 461 -289 450 -331 461 -315 l 461 -254 b 438 -258 454 -257 446 -258 b 342 -161 386 -258 342 -214 b 439 -64 342 -108 386 -64 b 536 -161 492 -64 536 -108 l 536 -297 b 429 -406 536 -360 492 -406 l 358 -406 "},"L":{"ha":850,"x_min":0,"x_max":0,"o":"m 121 972 l 238 972 l 238 108 l 746 108 l 746 0 l 121 0 "},"Ĺ":{"ha":850,"x_min":0,"x_max":0,"o":"m 224 1239 l 349 1239 l 232 1075 l 132 1075 m 121 972 l 238 972 l 238 108 l 746 108 l 746 0 l 121 0 "},"Ľ":{"ha":850,"x_min":0,"x_max":0,"o":"m 121 972 l 238 972 l 238 108 l 746 108 l 746 0 l 121 0 m 569 706 l 635 706 b 672 747 661 706 672 721 l 672 782 b 649 778 665 779 657 778 b 553 875 597 778 553 822 b 650 972 553 928 597 972 b 747 875 703 972 747 928 l 747 739 b 640 631 747 676 703 631 l 569 631 "},"Ļ":{"ha":850,"x_min":0,"x_max":0,"o":"m 121 972 l 238 972 l 238 108 l 746 108 l 746 0 l 121 0 m 354 -331 l 419 -331 b 457 -289 446 -331 457 -315 l 457 -254 b 433 -258 450 -257 442 -258 b 338 -161 382 -258 338 -214 b 435 -64 338 -108 382 -64 b 532 -161 488 -64 532 -108 l 532 -297 b 425 -406 532 -360 488 -406 l 354 -406 "},"Ḷ":{"ha":850,"x_min":0,"x_max":0,"o":"m 121 972 l 238 972 l 238 108 l 746 108 l 746 0 l 121 0 m 435 -283 b 338 -186 382 -283 338 -239 b 435 -89 338 -133 382 -89 b 532 -186 488 -89 532 -133 b 435 -283 532 -239 488 -283 "},"Ḹ":{"ha":850,"x_min":0,"x_max":0,"o":"m 92 1167 l 456 1167 l 456 1075 l 92 1075 m 121 972 l 238 972 l 238 108 l 746 108 l 746 0 l 121 0 m 435 -283 b 338 -186 382 -283 338 -239 b 435 -89 338 -133 382 -89 b 532 -186 488 -89 532 -133 b 435 -283 532 -239 488 -283 "},"Ḻ":{"ha":850,"x_min":0,"x_max":0,"o":"m 121 972 l 238 972 l 238 108 l 746 108 l 746 0 l 121 0 m 239 -89 l 631 -89 l 631 -181 l 239 -181 "},"Ł":{"ha":850,"x_min":0,"x_max":0,"o":"m 167 381 l 82 338 l 33 432 l 167 499 l 167 972 l 283 972 l 283 558 l 368 601 l 415 508 l 283 440 l 283 108 l 767 108 l 767 0 l 167 0 "},"M":{"ha":850,"x_min":0,"x_max":0,"o":"m 64 972 l 286 972 l 417 50 l 433 50 l 564 972 l 786 972 l 786 0 l 678 0 l 678 922 l 661 922 l 531 0 l 319 0 l 189 922 l 172 922 l 172 0 l 64 0 "},"Ṃ":{"ha":850,"x_min":0,"x_max":0,"o":"m 64 972 l 286 972 l 417 50 l 433 50 l 564 972 l 786 972 l 786 0 l 678 0 l 678 922 l 661 922 l 531 0 l 319 0 l 189 922 l 172 922 l 172 0 l 64 0 m 425 -283 b 328 -186 372 -283 328 -239 b 425 -89 328 -133 372 -89 b 522 -186 478 -89 522 -133 b 425 -283 522 -239 478 -283 "},"N":{"ha":850,"x_min":0,"x_max":0,"o":"m 101 972 l 335 972 l 615 50 l 632 50 l 632 972 l 749 972 l 749 0 l 515 0 l 235 922 l 218 922 l 218 0 l 101 0 "},"Ń":{"ha":850,"x_min":0,"x_max":0,"o":"m 501 1239 l 626 1239 l 510 1075 l 410 1075 m 101 972 l 335 972 l 615 50 l 632 50 l 632 972 l 749 972 l 749 0 l 515 0 l 235 922 l 218 922 l 218 0 l 101 0 "},"Ň":{"ha":850,"x_min":0,"x_max":0,"o":"m 253 1239 l 369 1239 l 442 1117 l 458 1117 l 531 1239 l 647 1239 l 536 1075 l 364 1075 m 101 972 l 335 972 l 615 50 l 632 50 l 632 972 l 749 972 l 749 0 l 515 0 l 235 922 l 218 922 l 218 0 l 101 0 "},"Ņ":{"ha":850,"x_min":0,"x_max":0,"o":"m 101 972 l 335 972 l 615 50 l 632 50 l 632 972 l 749 972 l 749 0 l 515 0 l 235 922 l 218 922 l 218 0 l 101 0 m 344 -331 l 410 -331 b 447 -289 436 -331 447 -315 l 447 -254 b 424 -258 440 -257 432 -258 b 328 -161 372 -258 328 -214 b 425 -64 328 -108 372 -64 b 522 -161 478 -64 522 -108 l 522 -297 b 415 -406 522 -360 478 -406 l 344 -406 "},"Ṅ":{"ha":850,"x_min":0,"x_max":0,"o":"m 450 1081 b 353 1178 397 1081 353 1125 b 450 1275 353 1231 397 1275 b 547 1178 503 1275 547 1231 b 450 1081 547 1125 503 1081 m 101 972 l 335 972 l 615 50 l 632 50 l 632 972 l 749 972 l 749 0 l 515 0 l 235 922 l 218 922 l 218 0 l 101 0 "},"Ṇ":{"ha":850,"x_min":0,"x_max":0,"o":"m 101 972 l 335 972 l 615 50 l 632 50 l 632 972 l 749 972 l 749 0 l 515 0 l 235 922 l 218 922 l 218 0 l 101 0 m 425 -283 b 328 -186 372 -283 328 -239 b 425 -89 328 -133 372 -89 b 522 -186 478 -89 522 -133 b 425 -283 522 -239 478 -283 "},"Ṉ":{"ha":850,"x_min":0,"x_max":0,"o":"m 101 972 l 335 972 l 615 50 l 632 50 l 632 972 l 749 972 l 749 0 l 515 0 l 235 922 l 218 922 l 218 0 l 101 0 m 229 -89 l 621 -89 l 621 -181 l 229 -181 "},"Ñ":{"ha":850,"x_min":0,"x_max":0,"o":"m 521 1049 b 419 1114 474 1049 444 1071 b 374 1161 401 1147 389 1161 b 338 1139 364 1161 354 1158 l 281 1071 l 213 1129 l 271 1197 b 379 1256 297 1229 329 1256 b 479 1189 433 1256 454 1229 b 526 1143 501 1153 513 1143 b 558 1164 536 1143 544 1147 l 618 1233 l 686 1175 l 629 1107 b 521 1049 601 1074 565 1049 m 101 972 l 335 972 l 615 50 l 632 50 l 632 972 l 749 972 l 749 0 l 515 0 l 235 922 l 218 922 l 218 0 l 101 0 "},"Ŋ":{"ha":850,"x_min":0,"x_max":0,"o":"m 335 -169 l 557 -169 b 632 -94 613 -169 632 -142 l 632 0 l 515 0 l 235 922 l 218 922 l 218 0 l 101 0 l 101 972 l 335 972 l 615 50 l 632 50 l 632 972 l 749 972 l 749 -111 b 582 -278 749 -219 690 -278 l 335 -278 "},"O":{"ha":850,"x_min":0,"x_max":0,"o":"m 425 -19 b 83 378 211 -19 83 119 l 83 594 b 425 992 83 844 211 992 b 767 594 639 992 767 844 l 767 378 b 425 -19 767 119 639 -19 m 425 89 b 650 386 575 89 650 197 l 650 586 b 425 883 650 764 575 883 b 200 586 275 883 200 764 l 200 386 b 425 89 200 197 275 89 "},"Ó":{"ha":850,"x_min":0,"x_max":0,"o":"m 476 1239 l 601 1239 l 485 1075 l 385 1075 m 425 -19 b 83 378 211 -19 83 119 l 83 594 b 425 992 83 844 211 992 b 767 594 639 992 767 844 l 767 378 b 425 -19 767 119 639 -19 m 425 89 b 650 386 575 89 650 197 l 650 586 b 425 883 650 764 575 883 b 200 586 275 883 200 764 l 200 386 b 425 89 200 197 275 89 "},"Ŏ":{"ha":850,"x_min":0,"x_max":0,"o":"m 425 1075 b 275 1225 333 1075 275 1136 l 275 1239 l 371 1239 l 371 1222 b 425 1168 371 1193 390 1168 b 479 1222 460 1168 479 1193 l 479 1239 l 575 1239 l 575 1225 b 425 1075 575 1136 517 1075 m 425 -19 b 83 378 211 -19 83 119 l 83 594 b 425 992 83 844 211 992 b 767 594 639 992 767 844 l 767 378 b 425 -19 767 119 639 -19 m 425 89 b 650 386 575 89 650 197 l 650 586 b 425 883 650 764 575 883 b 200 586 275 883 200 764 l 200 386 b 425 89 200 197 275 89 "},"Ǒ":{"ha":850,"x_min":0,"x_max":0,"o":"m 228 1239 l 344 1239 l 417 1117 l 433 1117 l 506 1239 l 622 1239 l 511 1075 l 339 1075 m 425 -19 b 83 378 211 -19 83 119 l 83 594 b 425 992 83 844 211 992 b 767 594 639 992 767 844 l 767 378 b 425 -19 767 119 639 -19 m 425 89 b 650 386 575 89 650 197 l 650 586 b 425 883 650 764 575 883 b 200 586 275 883 200 764 l 200 386 b 425 89 200 197 275 89 "},"Ô":{"ha":850,"x_min":0,"x_max":0,"o":"m 339 1239 l 511 1239 l 622 1075 l 506 1075 l 433 1197 l 417 1197 l 344 1075 l 228 1075 m 425 -19 b 83 378 211 -19 83 119 l 83 594 b 425 992 83 844 211 992 b 767 594 639 992 767 844 l 767 378 b 425 -19 767 119 639 -19 m 425 89 b 650 386 575 89 650 197 l 650 586 b 425 883 650 764 575 883 b 200 586 275 883 200 764 l 200 386 b 425 89 200 197 275 89 "},"Ố":{"ha":850,"x_min":0,"x_max":0,"o":"m 665 1361 l 790 1361 l 674 1197 l 574 1197 m 339 1239 l 511 1239 l 622 1075 l 506 1075 l 433 1197 l 417 1197 l 344 1075 l 228 1075 m 425 -19 b 83 378 211 -19 83 119 l 83 594 b 425 992 83 844 211 992 b 767 594 639 992 767 844 l 767 378 b 425 -19 767 119 639 -19 m 425 89 b 650 386 575 89 650 197 l 650 586 b 425 883 650 764 575 883 b 200 586 275 883 200 764 l 200 386 b 425 89 200 197 275 89 "},"Ộ":{"ha":850,"x_min":0,"x_max":0,"o":"m 339 1239 l 511 1239 l 622 1075 l 506 1075 l 433 1197 l 417 1197 l 344 1075 l 228 1075 m 425 -19 b 83 378 211 -19 83 119 l 83 594 b 425 992 83 844 211 992 b 767 594 639 992 767 844 l 767 378 b 425 -19 767 119 639 -19 m 425 89 b 650 386 575 89 650 197 l 650 586 b 425 883 650 764 575 883 b 200 586 275 883 200 764 l 200 386 b 425 89 200 197 275 89 m 425 -283 b 328 -186 372 -283 328 -239 b 425 -89 328 -133 372 -89 b 522 -186 478 -89 522 -133 b 425 -283 522 -239 478 -283 "},"Ồ":{"ha":850,"x_min":0,"x_max":0,"o":"m 47 1361 l 172 1361 l 264 1197 l 164 1197 m 339 1239 l 511 1239 l 622 1075 l 506 1075 l 433 1197 l 417 1197 l 344 1075 l 228 1075 m 425 -19 b 83 378 211 -19 83 119 l 83 594 b 425 992 83 844 211 992 b 767 594 639 992 767 844 l 767 378 b 425 -19 767 119 639 -19 m 425 89 b 650 386 575 89 650 197 l 650 586 b 425 883 650 764 575 883 b 200 586 275 883 200 764 l 200 386 b 425 89 200 197 275 89 "},"Ổ":{"ha":850,"x_min":0,"x_max":0,"o":"m 563 1319 l 563 1328 l 668 1328 b 703 1308 674 1317 686 1308 b 751 1361 729 1308 751 1328 b 696 1419 751 1401 724 1419 b 629 1364 656 1419 635 1392 l 563 1389 b 697 1486 576 1444 618 1486 b 826 1360 769 1486 826 1436 b 721 1242 826 1296 785 1242 b 646 1286 682 1242 657 1258 l 638 1286 l 658 1192 l 590 1192 m 339 1239 l 511 1239 l 622 1075 l 506 1075 l 433 1197 l 417 1197 l 344 1075 l 228 1075 m 425 -19 b 83 378 211 -19 83 119 l 83 594 b 425 992 83 844 211 992 b 767 594 639 992 767 844 l 767 378 b 425 -19 767 119 639 -19 m 425 89 b 650 386 575 89 650 197 l 650 586 b 425 883 650 764 575 883 b 200 586 275 883 200 764 l 200 386 b 425 89 200 197 275 89 "},"Ỗ":{"ha":850,"x_min":0,"x_max":0,"o":"m 501 1211 b 400 1276 454 1211 425 1233 b 354 1324 382 1310 369 1324 b 318 1301 344 1324 335 1321 l 261 1233 l 193 1292 l 251 1360 b 360 1418 278 1392 310 1418 b 460 1351 414 1418 435 1392 b 507 1306 482 1315 493 1306 b 539 1326 517 1306 525 1310 l 599 1396 l 667 1338 l 610 1269 b 501 1211 582 1236 546 1211 m 339 1176 l 511 1176 l 622 1013 l 506 1013 l 433 1135 l 417 1135 l 344 1013 l 228 1013 m 425 -19 b 83 378 211 -19 83 119 l 83 594 b 425 992 83 844 211 992 b 767 594 639 992 767 844 l 767 378 b 425 -19 767 119 639 -19 m 425 89 b 650 386 575 89 650 197 l 650 586 b 425 883 650 764 575 883 b 200 586 275 883 200 764 l 200 386 b 425 89 200 197 275 89 "},"Ö":{"ha":850,"x_min":0,"x_max":0,"o":"m 564 1081 b 467 1178 511 1081 467 1125 b 564 1275 467 1231 511 1275 b 661 1178 617 1275 661 1231 b 564 1081 661 1125 617 1081 m 286 1081 b 189 1178 233 1081 189 1125 b 286 1275 189 1231 233 1275 b 383 1178 339 1275 383 1231 b 286 1081 383 1125 339 1081 m 425 -19 b 83 378 211 -19 83 119 l 83 594 b 425 992 83 844 211 992 b 767 594 639 992 767 844 l 767 378 b 425 -19 767 119 639 -19 m 425 89 b 650 386 575 89 650 197 l 650 586 b 425 883 650 764 575 883 b 200 586 275 883 200 764 l 200 386 b 425 89 200 197 275 89 "},"Ọ":{"ha":850,"x_min":0,"x_max":0,"o":"m 425 -19 b 83 378 211 -19 83 119 l 83 594 b 425 992 83 844 211 992 b 767 594 639 992 767 844 l 767 378 b 425 -19 767 119 639 -19 m 425 89 b 650 386 575 89 650 197 l 650 586 b 425 883 650 764 575 883 b 200 586 275 883 200 764 l 200 386 b 425 89 200 197 275 89 m 425 -283 b 328 -186 372 -283 328 -239 b 425 -89 328 -133 372 -89 b 522 -186 478 -89 522 -133 b 425 -283 522 -239 478 -283 "},"Ò":{"ha":850,"x_min":0,"x_max":0,"o":"m 261 1239 l 386 1239 l 478 1075 l 378 1075 m 425 -19 b 83 378 211 -19 83 119 l 83 594 b 425 992 83 844 211 992 b 767 594 639 992 767 844 l 767 378 b 425 -19 767 119 639 -19 m 425 89 b 650 386 575 89 650 197 l 650 586 b 425 883 650 764 575 883 b 200 586 275 883 200 764 l 200 386 b 425 89 200 197 275 89 "},"Ỏ":{"ha":850,"x_min":0,"x_max":0,"o":"m 350 1169 l 350 1178 l 456 1178 b 490 1158 461 1167 474 1158 b 539 1211 517 1158 539 1178 b 483 1269 539 1251 511 1269 b 417 1214 443 1269 422 1242 l 350 1239 b 485 1336 364 1294 406 1336 b 614 1210 557 1336 614 1286 b 508 1092 614 1146 572 1092 b 433 1136 469 1092 444 1108 l 425 1136 l 446 1042 l 378 1042 m 425 -19 b 83 378 211 -19 83 119 l 83 594 b 425 992 83 844 211 992 b 767 594 639 992 767 844 l 767 378 b 425 -19 767 119 639 -19 m 425 89 b 650 386 575 89 650 197 l 650 586 b 425 883 650 764 575 883 b 200 586 275 883 200 764 l 200 386 b 425 89 200 197 275 89 "},"Ơ":{"ha":850,"x_min":0,"x_max":0,"o":"m 336 -19 b 53 303 158 -19 53 89 l 53 661 b 336 992 53 869 156 992 b 618 706 503 992 604 886 l 711 706 b 749 747 738 706 749 721 l 749 782 b 725 778 742 779 733 778 b 629 875 674 778 629 822 b 726 972 629 928 674 972 b 824 875 779 972 824 928 l 824 739 b 717 631 824 676 779 631 l 619 631 l 619 303 b 336 -19 619 89 514 -19 m 336 86 b 503 311 450 86 503 158 l 503 661 b 336 886 503 803 453 886 b 169 661 219 886 169 803 l 169 311 b 336 86 169 158 222 86 "},"Ớ":{"ha":850,"x_min":0,"x_max":0,"o":"m 388 1239 l 513 1239 l 396 1075 l 296 1075 m 336 -19 b 53 303 158 -19 53 89 l 53 661 b 336 992 53 869 156 992 b 618 706 503 992 604 886 l 711 706 b 749 747 738 706 749 721 l 749 782 b 725 778 742 779 733 778 b 629 875 674 778 629 822 b 726 972 629 928 674 972 b 824 875 779 972 824 928 l 824 739 b 717 631 824 676 779 631 l 619 631 l 619 303 b 336 -19 619 89 514 -19 m 336 86 b 503 311 450 86 503 158 l 503 661 b 336 886 503 803 453 886 b 169 661 219 886 169 803 l 169 311 b 336 86 169 158 222 86 "},"Ợ":{"ha":850,"x_min":0,"x_max":0,"o":"m 336 -19 b 53 303 158 -19 53 89 l 53 661 b 336 992 53 869 156 992 b 618 706 503 992 604 886 l 711 706 b 749 747 738 706 749 721 l 749 782 b 725 778 742 779 733 778 b 629 875 674 778 629 822 b 726 972 629 928 674 972 b 824 875 779 972 824 928 l 824 739 b 717 631 824 676 779 631 l 619 631 l 619 303 b 336 -19 619 89 514 -19 m 336 86 b 503 311 450 86 503 158 l 503 661 b 336 886 503 803 453 886 b 169 661 219 886 169 803 l 169 311 b 336 86 169 158 222 86 m 338 -283 b 240 -186 285 -283 240 -239 b 338 -89 240 -133 285 -89 b 435 -186 390 -89 435 -133 b 338 -283 435 -239 390 -283 "},"Ờ":{"ha":850,"x_min":0,"x_max":0,"o":"m 172 1239 l 297 1239 l 389 1075 l 289 1075 m 336 -19 b 53 303 158 -19 53 89 l 53 661 b 336 992 53 869 156 992 b 618 706 503 992 604 886 l 711 706 b 749 747 738 706 749 721 l 749 782 b 725 778 742 779 733 778 b 629 875 674 778 629 822 b 726 972 629 928 674 972 b 824 875 779 972 824 928 l 824 739 b 717 631 824 676 779 631 l 619 631 l 619 303 b 336 -19 619 89 514 -19 m 336 86 b 503 311 450 86 503 158 l 503 661 b 336 886 503 803 453 886 b 169 661 219 886 169 803 l 169 311 b 336 86 169 158 222 86 "},"Ở":{"ha":850,"x_min":0,"x_max":0,"o":"m 261 1169 l 261 1178 l 367 1178 b 401 1158 372 1167 385 1158 b 450 1211 428 1158 450 1178 b 394 1269 450 1251 422 1269 b 328 1214 354 1269 333 1242 l 261 1239 b 396 1336 275 1294 317 1336 b 525 1210 468 1336 525 1286 b 419 1092 525 1146 483 1092 b 344 1136 381 1092 356 1108 l 336 1136 l 357 1042 l 289 1042 m 336 -19 b 53 303 158 -19 53 89 l 53 661 b 336 992 53 869 156 992 b 618 706 503 992 604 886 l 711 706 b 749 747 738 706 749 721 l 749 782 b 725 778 742 779 733 778 b 629 875 674 778 629 822 b 726 972 629 928 674 972 b 824 875 779 972 824 928 l 824 739 b 717 631 824 676 779 631 l 619 631 l 619 303 b 336 -19 619 89 514 -19 m 336 86 b 503 311 450 86 503 158 l 503 661 b 336 886 503 803 453 886 b 169 661 219 886 169 803 l 169 311 b 336 86 169 158 222 86 "},"Ỡ":{"ha":850,"x_min":0,"x_max":0,"o":"m 407 1049 b 306 1114 360 1049 331 1071 b 260 1161 288 1147 275 1161 b 224 1139 250 1161 240 1158 l 167 1071 l 99 1129 l 157 1197 b 265 1256 183 1229 215 1256 b 365 1189 319 1256 340 1229 b 413 1143 388 1153 399 1143 b 444 1164 422 1143 431 1147 l 504 1233 l 572 1175 l 515 1107 b 407 1049 488 1074 451 1049 m 336 -19 b 53 303 158 -19 53 89 l 53 661 b 336 992 53 869 156 992 b 618 706 503 992 604 886 l 711 706 b 749 747 738 706 749 721 l 749 782 b 725 778 742 779 733 778 b 629 875 674 778 629 822 b 726 972 629 928 674 972 b 824 875 779 972 824 928 l 824 739 b 717 631 824 676 779 631 l 619 631 l 619 303 b 336 -19 619 89 514 -19 m 336 86 b 503 311 450 86 503 158 l 503 661 b 336 886 503 803 453 886 b 169 661 219 886 169 803 l 169 311 b 336 86 169 158 222 86 "},"Ő":{"ha":850,"x_min":0,"x_max":0,"o":"m 558 1239 l 683 1239 l 567 1075 l 467 1075 m 358 1239 l 483 1239 l 367 1075 l 267 1075 m 425 -19 b 83 378 211 -19 83 119 l 83 594 b 425 992 83 844 211 992 b 767 594 639 992 767 844 l 767 378 b 425 -19 767 119 639 -19 m 425 89 b 650 386 575 89 650 197 l 650 586 b 425 883 650 764 575 883 b 200 586 275 883 200 764 l 200 386 b 425 89 200 197 275 89 "},"Ō":{"ha":850,"x_min":0,"x_max":0,"o":"m 243 1167 l 607 1167 l 607 1075 l 243 1075 m 425 -19 b 83 378 211 -19 83 119 l 83 594 b 425 992 83 844 211 992 b 767 594 639 992 767 844 l 767 378 b 425 -19 767 119 639 -19 m 425 89 b 650 386 575 89 650 197 l 650 586 b 425 883 650 764 575 883 b 200 586 275 883 200 764 l 200 386 b 425 89 200 197 275 89 "},"Ǫ":{"ha":850,"x_min":0,"x_max":0,"o":"m 463 -228 b 354 -125 408 -228 354 -193 b 358 -92 354 -115 356 -106 l 375 -17 b 83 378 192 4 83 140 l 83 594 b 425 992 83 844 211 992 b 767 594 639 992 767 844 l 767 378 b 469 -17 767 138 656 0 l 451 -94 b 450 -106 450 -101 450 -104 b 482 -136 450 -125 463 -136 l 540 -136 l 540 -228 l 463 -228 m 425 89 b 650 386 575 89 650 197 l 650 586 b 425 883 650 764 575 883 b 200 586 275 883 200 764 l 200 386 b 425 89 200 197 275 89 "},"Ø":{"ha":850,"x_min":0,"x_max":0,"o":"m 182 -89 l 224 38 b 83 378 133 100 83 215 l 83 594 b 425 992 83 844 211 992 b 533 976 464 992 500 986 l 565 1075 l 663 1044 l 625 932 b 767 594 715 867 767 751 l 767 378 b 425 -19 767 119 639 -19 b 318 -6 386 -19 350 -15 l 281 -119 m 499 872 b 425 883 476 879 451 883 b 200 586 275 883 200 764 l 200 386 b 263 157 200 286 221 208 m 425 89 b 650 386 575 89 650 197 l 650 586 b 586 811 650 681 628 758 l 353 99 b 425 89 374 92 399 89 "},"Õ":{"ha":850,"x_min":0,"x_max":0,"o":"m 496 1049 b 394 1114 449 1049 419 1071 b 349 1161 376 1147 364 1161 b 313 1139 339 1161 329 1158 l 256 1071 l 188 1129 l 246 1197 b 354 1256 272 1229 304 1256 b 454 1189 408 1256 429 1229 b 501 1143 476 1153 488 1143 b 533 1164 511 1143 519 1147 l 593 1233 l 661 1175 l 604 1107 b 496 1049 576 1074 540 1049 m 425 -19 b 83 378 211 -19 83 119 l 83 594 b 425 992 83 844 211 992 b 767 594 639 992 767 844 l 767 378 b 425 -19 767 119 639 -19 m 425 89 b 650 386 575 89 650 197 l 650 586 b 425 883 650 764 575 883 b 200 586 275 883 200 764 l 200 386 b 425 89 200 197 275 89 "},"Œ":{"ha":850,"x_min":0,"x_max":0,"o":"m 417 0 b 75 397 203 0 75 139 l 75 575 b 417 972 75 825 203 972 l 750 972 l 750 864 l 533 864 l 533 542 l 742 542 l 742 433 l 533 433 l 533 108 l 758 108 l 758 0 l 417 0 m 417 864 b 192 567 267 864 192 744 l 192 406 b 417 108 192 217 267 108 "},"P":{"ha":850,"x_min":0,"x_max":0,"o":"m 118 972 l 465 972 b 763 708 664 972 763 849 l 763 667 b 465 400 763 525 663 400 l 235 400 l 235 0 l 118 0 m 451 508 b 646 675 582 508 646 564 l 646 700 b 451 864 646 797 582 864 l 235 864 l 235 508 "},"Þ":{"ha":850,"x_min":0,"x_max":0,"o":"m 118 972 l 235 972 l 235 781 l 465 781 b 763 517 664 781 763 657 l 763 475 b 465 208 763 333 663 208 l 235 208 l 235 0 l 118 0 m 451 317 b 646 483 582 317 646 372 l 646 508 b 451 672 646 606 582 672 l 235 672 l 235 317 "},"Q":{"ha":850,"x_min":0,"x_max":0,"o":"m 478 -217 b 371 -108 415 -217 371 -171 l 371 -17 b 83 378 189 6 83 142 l 83 594 b 425 992 83 844 211 992 b 767 594 639 992 767 844 l 767 378 b 479 -17 767 142 660 4 l 479 -75 b 517 -117 479 -101 490 -117 l 633 -117 l 633 -217 l 478 -217 m 425 89 b 650 386 575 89 650 197 l 650 586 b 425 883 650 764 575 883 b 200 586 275 883 200 764 l 200 386 b 425 89 200 197 275 89 "},"R":{"ha":850,"x_min":0,"x_max":0,"o":"m 118 972 l 465 972 b 763 708 664 972 763 849 l 763 667 b 640 475 763 594 724 514 l 640 458 b 729 350 696 450 729 414 l 729 0 l 613 0 l 613 325 b 538 400 613 372 593 400 l 235 400 l 235 0 l 118 0 m 451 508 b 646 675 582 508 646 567 l 646 700 b 451 864 646 797 582 864 l 235 864 l 235 508 "},"Ŕ":{"ha":850,"x_min":0,"x_max":0,"o":"m 444 1239 l 569 1239 l 453 1075 l 353 1075 m 118 972 l 465 972 b 763 708 664 972 763 849 l 763 667 b 640 475 763 594 724 514 l 640 458 b 729 350 696 450 729 414 l 729 0 l 613 0 l 613 325 b 538 400 613 372 593 400 l 235 400 l 235 0 l 118 0 m 451 508 b 646 675 582 508 646 567 l 646 700 b 451 864 646 797 582 864 l 235 864 l 235 508 "},"Ř":{"ha":850,"x_min":0,"x_max":0,"o":"m 196 1239 l 313 1239 l 385 1117 l 401 1117 l 474 1239 l 590 1239 l 479 1075 l 307 1075 m 118 972 l 465 972 b 763 708 664 972 763 849 l 763 667 b 640 475 763 594 724 514 l 640 458 b 729 350 696 450 729 414 l 729 0 l 613 0 l 613 325 b 538 400 613 372 593 400 l 235 400 l 235 0 l 118 0 m 451 508 b 646 675 582 508 646 567 l 646 700 b 451 864 646 797 582 864 l 235 864 l 235 508 "},"Ŗ":{"ha":850,"x_min":0,"x_max":0,"o":"m 118 972 l 465 972 b 763 708 664 972 763 849 l 763 667 b 640 475 763 594 724 514 l 640 458 b 729 350 696 450 729 414 l 729 0 l 613 0 l 613 325 b 538 400 613 372 593 400 l 235 400 l 235 0 l 118 0 m 451 508 b 646 675 582 508 646 567 l 646 700 b 451 864 646 797 582 864 l 235 864 l 235 508 m 344 -331 l 410 -331 b 447 -289 436 -331 447 -315 l 447 -254 b 424 -258 440 -257 432 -258 b 328 -161 372 -258 328 -214 b 425 -64 328 -108 372 -64 b 522 -161 478 -64 522 -108 l 522 -297 b 415 -406 522 -360 478 -406 l 344 -406 "},"Ṛ":{"ha":850,"x_min":0,"x_max":0,"o":"m 118 972 l 465 972 b 763 708 664 972 763 849 l 763 667 b 640 475 763 594 724 514 l 640 458 b 729 350 696 450 729 414 l 729 0 l 613 0 l 613 325 b 538 400 613 372 593 400 l 235 400 l 235 0 l 118 0 m 451 508 b 646 675 582 508 646 567 l 646 700 b 451 864 646 797 582 864 l 235 864 l 235 508 m 425 -283 b 328 -186 372 -283 328 -239 b 425 -89 328 -133 372 -89 b 522 -186 478 -89 522 -133 b 425 -283 522 -239 478 -283 "},"Ṝ":{"ha":850,"x_min":0,"x_max":0,"o":"m 211 1167 l 575 1167 l 575 1075 l 211 1075 m 118 972 l 465 972 b 763 708 664 972 763 849 l 763 667 b 640 475 763 594 724 514 l 640 458 b 729 350 696 450 729 414 l 729 0 l 613 0 l 613 325 b 538 400 613 372 593 400 l 235 400 l 235 0 l 118 0 m 451 508 b 646 675 582 508 646 567 l 646 700 b 451 864 646 797 582 864 l 235 864 l 235 508 m 425 -283 b 328 -186 372 -283 328 -239 b 425 -89 328 -133 372 -89 b 522 -186 478 -89 522 -133 b 425 -283 522 -239 478 -283 "},"Ṟ":{"ha":850,"x_min":0,"x_max":0,"o":"m 118 972 l 465 972 b 763 708 664 972 763 849 l 763 667 b 640 475 763 594 724 514 l 640 458 b 729 350 696 450 729 414 l 729 0 l 613 0 l 613 325 b 538 400 613 372 593 400 l 235 400 l 235 0 l 118 0 m 451 508 b 646 675 582 508 646 567 l 646 700 b 451 864 646 797 582 864 l 235 864 l 235 508 m 229 -89 l 621 -89 l 621 -181 l 229 -181 "},"S":{"ha":850,"x_min":0,"x_max":0,"o":"m 444 -19 b 63 336 196 -19 63 133 l 63 378 l 179 378 l 179 344 b 444 89 179 175 279 89 b 663 264 589 89 663 160 l 663 272 b 424 447 663 374 592 424 b 104 717 229 475 104 550 l 104 733 b 425 992 104 885 236 992 b 771 700 644 992 771 857 l 771 642 l 654 642 l 654 692 b 424 883 654 818 546 883 b 221 729 318 883 221 828 l 221 721 b 482 547 221 614 308 574 b 779 281 685 517 779 428 l 779 264 b 444 -19 779 96 663 -19 "},"Ś":{"ha":850,"x_min":0,"x_max":0,"o":"m 471 1239 l 596 1239 l 479 1075 l 379 1075 m 444 -19 b 63 336 196 -19 63 133 l 63 378 l 179 378 l 179 344 b 444 89 179 175 279 89 b 663 264 589 89 663 160 l 663 272 b 424 447 663 374 592 424 b 104 717 229 475 104 550 l 104 733 b 425 992 104 885 236 992 b 771 700 644 992 771 857 l 771 642 l 654 642 l 654 692 b 424 883 654 818 546 883 b 221 729 318 883 221 828 l 221 721 b 482 547 221 614 308 574 b 779 281 685 517 779 428 l 779 264 b 444 -19 779 96 663 -19 "},"Š":{"ha":850,"x_min":0,"x_max":0,"o":"m 222 1239 l 339 1239 l 411 1117 l 428 1117 l 500 1239 l 617 1239 l 506 1075 l 333 1075 m 444 -19 b 63 336 196 -19 63 133 l 63 378 l 179 378 l 179 344 b 444 89 179 175 279 89 b 663 264 589 89 663 160 l 663 272 b 424 447 663 374 592 424 b 104 717 229 475 104 550 l 104 733 b 425 992 104 885 236 992 b 771 700 644 992 771 857 l 771 642 l 654 642 l 654 692 b 424 883 654 818 546 883 b 221 729 318 883 221 828 l 221 721 b 482 547 221 614 308 574 b 779 281 685 517 779 428 l 779 264 b 444 -19 779 96 663 -19 "},"Ş":{"ha":850,"x_min":0,"x_max":0,"o":"m 476 -294 b 342 -197 397 -294 356 -253 l 408 -172 b 475 -228 414 -200 435 -228 b 531 -169 503 -228 531 -210 b 482 -117 531 -136 508 -117 b 447 -136 465 -117 453 -125 l 342 -136 l 342 -128 l 367 -14 b 63 336 168 15 63 156 l 63 378 l 179 378 l 179 344 b 444 89 179 175 279 89 b 663 264 589 89 663 160 l 663 272 b 424 447 663 374 592 424 b 104 717 229 475 104 550 l 104 733 b 425 992 104 885 236 992 b 771 700 644 992 771 857 l 771 642 l 654 642 l 654 692 b 424 883 654 818 546 883 b 221 729 318 883 221 828 l 221 721 b 482 547 221 614 308 574 b 779 281 685 517 779 428 l 779 264 b 444 -19 779 96 663 -19 l 433 -19 l 417 -94 l 425 -94 b 500 -50 436 -67 461 -50 b 606 -168 564 -50 606 -104 b 476 -294 606 -244 549 -294 "},"Ŝ":{"ha":850,"x_min":0,"x_max":0,"o":"m 333 1239 l 506 1239 l 617 1075 l 500 1075 l 428 1197 l 411 1197 l 339 1075 l 222 1075 m 444 -19 b 63 336 196 -19 63 133 l 63 378 l 179 378 l 179 344 b 444 89 179 175 279 89 b 663 264 589 89 663 160 l 663 272 b 424 447 663 374 592 424 b 104 717 229 475 104 550 l 104 733 b 425 992 104 885 236 992 b 771 700 644 992 771 857 l 771 642 l 654 642 l 654 692 b 424 883 654 818 546 883 b 221 729 318 883 221 828 l 221 721 b 482 547 221 614 308 574 b 779 281 685 517 779 428 l 779 264 b 444 -19 779 96 663 -19 "},"Ș":{"ha":850,"x_min":0,"x_max":0,"o":"m 444 -19 b 63 336 196 -19 63 133 l 63 378 l 179 378 l 179 344 b 444 89 179 175 279 89 b 663 264 589 89 663 160 l 663 272 b 424 447 663 374 592 424 b 104 717 229 475 104 550 l 104 733 b 425 992 104 885 236 992 b 771 700 644 992 771 857 l 771 642 l 654 642 l 654 692 b 424 883 654 818 546 883 b 221 729 318 883 221 828 l 221 721 b 482 547 221 614 308 574 b 779 281 685 517 779 428 l 779 264 b 444 -19 779 96 663 -19 m 363 -331 l 428 -331 b 465 -289 454 -331 465 -315 l 465 -254 b 442 -258 458 -257 450 -258 b 346 -161 390 -258 346 -214 b 443 -64 346 -108 390 -64 b 540 -161 496 -64 540 -108 l 540 -297 b 433 -406 540 -360 496 -406 l 363 -406 "},"Ṡ":{"ha":850,"x_min":0,"x_max":0,"o":"m 419 1081 b 322 1178 367 1081 322 1125 b 419 1275 322 1231 367 1275 b 517 1178 472 1275 517 1231 b 419 1081 517 1125 472 1081 m 444 -19 b 63 336 196 -19 63 133 l 63 378 l 179 378 l 179 344 b 444 89 179 175 279 89 b 663 264 589 89 663 160 l 663 272 b 424 447 663 374 592 424 b 104 717 229 475 104 550 l 104 733 b 425 992 104 885 236 992 b 771 700 644 992 771 857 l 771 642 l 654 642 l 654 692 b 424 883 654 818 546 883 b 221 729 318 883 221 828 l 221 721 b 482 547 221 614 308 574 b 779 281 685 517 779 428 l 779 264 b 444 -19 779 96 663 -19 "},"Ṣ":{"ha":850,"x_min":0,"x_max":0,"o":"m 444 -19 b 63 336 196 -19 63 133 l 63 378 l 179 378 l 179 344 b 444 89 179 175 279 89 b 663 264 589 89 663 160 l 663 272 b 424 447 663 374 592 424 b 104 717 229 475 104 550 l 104 733 b 425 992 104 885 236 992 b 771 700 644 992 771 857 l 771 642 l 654 642 l 654 692 b 424 883 654 818 546 883 b 221 729 318 883 221 828 l 221 721 b 482 547 221 614 308 574 b 779 281 685 517 779 428 l 779 264 b 444 -19 779 96 663 -19 m 443 -283 b 346 -186 390 -283 346 -239 b 443 -89 346 -133 390 -89 b 540 -186 496 -89 540 -133 b 443 -283 540 -239 496 -283 "},"ẞ":{"ha":850,"x_min":0,"x_max":0,"o":"m 133 581 l 50 581 l 50 689 l 133 689 b 413 972 133 872 247 972 l 713 972 l 713 792 l 446 592 l 446 575 l 501 575 b 788 308 653 575 788 481 l 788 292 b 457 0 788 131 646 0 l 346 0 l 346 108 l 454 108 b 671 299 576 108 671 189 l 671 307 b 476 483 671 417 588 483 l 346 483 l 346 647 l 613 847 l 613 864 l 421 864 b 250 689 319 864 250 808 l 250 0 l 133 0 "},"T":{"ha":850,"x_min":0,"x_max":0,"o":"m 367 864 l 83 864 l 83 972 l 767 972 l 767 864 l 483 864 l 483 0 l 367 0 "},"Ŧ":{"ha":850,"x_min":0,"x_max":0,"o":"m 367 486 l 150 486 l 150 594 l 367 594 l 367 864 l 83 864 l 83 972 l 767 972 l 767 864 l 483 864 l 483 594 l 700 594 l 700 486 l 483 486 l 483 0 l 367 0 "},"Ť":{"ha":850,"x_min":0,"x_max":0,"o":"m 228 1239 l 344 1239 l 417 1117 l 433 1117 l 506 1239 l 622 1239 l 511 1075 l 339 1075 m 367 864 l 83 864 l 83 972 l 767 972 l 767 864 l 483 864 l 483 0 l 367 0 "},"Ţ":{"ha":850,"x_min":0,"x_max":0,"o":"m 499 -294 b 364 -197 419 -294 378 -253 l 431 -172 b 497 -228 436 -200 457 -228 b 553 -169 525 -228 553 -210 b 504 -117 553 -136 531 -117 b 469 -136 488 -117 475 -125 l 364 -136 l 364 -128 l 392 0 l 367 0 l 367 864 l 83 864 l 83 972 l 767 972 l 767 864 l 483 864 l 483 0 l 460 0 l 439 -94 l 447 -94 b 522 -50 458 -67 483 -50 b 628 -168 586 -50 628 -104 b 499 -294 628 -244 571 -294 "},"Ț":{"ha":850,"x_min":0,"x_max":0,"o":"m 367 864 l 83 864 l 83 972 l 767 972 l 767 864 l 483 864 l 483 0 l 367 0 m 344 -331 l 410 -331 b 447 -289 436 -331 447 -315 l 447 -254 b 424 -258 440 -257 432 -258 b 328 -161 372 -258 328 -214 b 425 -64 328 -108 372 -64 b 522 -161 478 -64 522 -108 l 522 -297 b 415 -406 522 -360 478 -406 l 344 -406 "},"Ṭ":{"ha":850,"x_min":0,"x_max":0,"o":"m 367 864 l 83 864 l 83 972 l 767 972 l 767 864 l 483 864 l 483 0 l 367 0 m 425 -283 b 328 -186 372 -283 328 -239 b 425 -89 328 -133 372 -89 b 522 -186 478 -89 522 -133 b 425 -283 522 -239 478 -283 "},"Ṯ":{"ha":850,"x_min":0,"x_max":0,"o":"m 367 864 l 83 864 l 83 972 l 767 972 l 767 864 l 483 864 l 483 0 l 367 0 m 229 -89 l 621 -89 l 621 -181 l 229 -181 "},"U":{"ha":850,"x_min":0,"x_max":0,"o":"m 425 -19 b 92 328 219 -19 92 103 l 92 972 l 208 972 l 208 328 b 425 89 208 172 283 89 b 642 328 567 89 642 172 l 642 972 l 758 972 l 758 328 b 425 -19 758 103 631 -19 "},"Ú":{"ha":850,"x_min":0,"x_max":0,"o":"m 476 1239 l 601 1239 l 485 1075 l 385 1075 m 425 -19 b 92 328 219 -19 92 103 l 92 972 l 208 972 l 208 328 b 425 89 208 172 283 89 b 642 328 567 89 642 172 l 642 972 l 758 972 l 758 328 b 425 -19 758 103 631 -19 "},"Ŭ":{"ha":850,"x_min":0,"x_max":0,"o":"m 425 1075 b 275 1225 333 1075 275 1136 l 275 1239 l 371 1239 l 371 1222 b 425 1168 371 1193 390 1168 b 479 1222 460 1168 479 1193 l 479 1239 l 575 1239 l 575 1225 b 425 1075 575 1136 517 1075 m 425 -19 b 92 328 219 -19 92 103 l 92 972 l 208 972 l 208 328 b 425 89 208 172 283 89 b 642 328 567 89 642 172 l 642 972 l 758 972 l 758 328 b 425 -19 758 103 631 -19 "},"Ǔ":{"ha":850,"x_min":0,"x_max":0,"o":"m 228 1239 l 344 1239 l 417 1117 l 433 1117 l 506 1239 l 622 1239 l 511 1075 l 339 1075 m 425 -19 b 92 328 219 -19 92 103 l 92 972 l 208 972 l 208 328 b 425 89 208 172 283 89 b 642 328 567 89 642 172 l 642 972 l 758 972 l 758 328 b 425 -19 758 103 631 -19 "},"Û":{"ha":850,"x_min":0,"x_max":0,"o":"m 339 1239 l 511 1239 l 622 1075 l 506 1075 l 433 1197 l 417 1197 l 344 1075 l 228 1075 m 425 -19 b 92 328 219 -19 92 103 l 92 972 l 208 972 l 208 328 b 425 89 208 172 283 89 b 642 328 567 89 642 172 l 642 972 l 758 972 l 758 328 b 425 -19 758 103 631 -19 "},"Ü":{"ha":850,"x_min":0,"x_max":0,"o":"m 564 1081 b 467 1178 511 1081 467 1125 b 564 1275 467 1231 511 1275 b 661 1178 617 1275 661 1231 b 564 1081 661 1125 617 1081 m 286 1081 b 189 1178 233 1081 189 1125 b 286 1275 189 1231 233 1275 b 383 1178 339 1275 383 1231 b 286 1081 383 1125 339 1081 m 425 -19 b 92 328 219 -19 92 103 l 92 972 l 208 972 l 208 328 b 425 89 208 172 283 89 b 642 328 567 89 642 172 l 642 972 l 758 972 l 758 328 b 425 -19 758 103 631 -19 "},"Ǘ":{"ha":850,"x_min":0,"x_max":0,"o":"m 468 1415 l 593 1415 l 476 1251 l 376 1251 m 564 1011 b 467 1108 511 1011 467 1056 b 564 1206 467 1161 511 1206 b 661 1108 617 1206 661 1161 b 564 1011 661 1056 617 1011 m 286 1011 b 189 1108 233 1011 189 1056 b 286 1206 189 1161 233 1206 b 383 1108 339 1206 383 1161 b 286 1011 383 1056 339 1011 m 425 -19 b 92 328 219 -19 92 103 l 92 972 l 208 972 l 208 328 b 425 89 208 172 283 89 b 642 328 567 89 642 172 l 642 972 l 758 972 l 758 328 b 425 -19 758 103 631 -19 "},"Ǚ":{"ha":850,"x_min":0,"x_max":0,"o":"m 233 1417 l 350 1417 l 422 1294 l 439 1294 l 511 1417 l 628 1417 l 517 1253 l 344 1253 m 564 1019 b 467 1117 511 1019 467 1064 b 564 1214 467 1169 511 1214 b 661 1117 617 1214 661 1169 b 564 1019 661 1064 617 1019 m 286 1019 b 189 1117 233 1019 189 1064 b 286 1214 189 1169 233 1214 b 383 1117 339 1214 383 1169 b 286 1019 383 1064 339 1019 m 425 -19 b 92 328 219 -19 92 103 l 92 972 l 208 972 l 208 328 b 425 89 208 172 283 89 b 642 328 567 89 642 172 l 642 972 l 758 972 l 758 328 b 425 -19 758 103 631 -19 "},"Ǜ":{"ha":850,"x_min":0,"x_max":0,"o":"m 261 1346 l 386 1346 l 478 1182 l 378 1182 m 564 1011 b 467 1108 511 1011 467 1056 b 564 1206 467 1161 511 1206 b 661 1108 617 1206 661 1161 b 564 1011 661 1056 617 1011 m 286 1011 b 189 1108 233 1011 189 1056 b 286 1206 189 1161 233 1206 b 383 1108 339 1206 383 1161 b 286 1011 383 1056 339 1011 m 425 -19 b 92 328 219 -19 92 103 l 92 972 l 208 972 l 208 328 b 425 89 208 172 283 89 b 642 328 567 89 642 172 l 642 972 l 758 972 l 758 328 b 425 -19 758 103 631 -19 "},"Ǖ":{"ha":850,"x_min":0,"x_max":0,"o":"m 247 1346 l 611 1346 l 611 1254 l 247 1254 m 564 1011 b 467 1108 511 1011 467 1056 b 564 1206 467 1161 511 1206 b 661 1108 617 1206 661 1161 b 564 1011 661 1056 617 1011 m 286 1011 b 189 1108 233 1011 189 1056 b 286 1206 189 1161 233 1206 b 383 1108 339 1206 383 1161 b 286 1011 383 1056 339 1011 m 425 -19 b 92 328 219 -19 92 103 l 92 972 l 208 972 l 208 328 b 425 89 208 172 283 89 b 642 328 567 89 642 172 l 642 972 l 758 972 l 758 328 b 425 -19 758 103 631 -19 "},"Ụ":{"ha":850,"x_min":0,"x_max":0,"o":"m 425 -19 b 92 328 219 -19 92 103 l 92 972 l 208 972 l 208 328 b 425 89 208 172 283 89 b 642 328 567 89 642 172 l 642 972 l 758 972 l 758 328 b 425 -19 758 103 631 -19 m 425 -283 b 328 -186 372 -283 328 -239 b 425 -89 328 -133 372 -89 b 522 -186 478 -89 522 -133 b 425 -283 522 -239 478 -283 "},"Ù":{"ha":850,"x_min":0,"x_max":0,"o":"m 261 1239 l 386 1239 l 478 1075 l 378 1075 m 425 -19 b 92 328 219 -19 92 103 l 92 972 l 208 972 l 208 328 b 425 89 208 172 283 89 b 642 328 567 89 642 172 l 642 972 l 758 972 l 758 328 b 425 -19 758 103 631 -19 "},"Ủ":{"ha":850,"x_min":0,"x_max":0,"o":"m 350 1169 l 350 1178 l 456 1178 b 490 1158 461 1167 474 1158 b 539 1211 517 1158 539 1178 b 483 1269 539 1251 511 1269 b 417 1214 443 1269 422 1242 l 350 1239 b 485 1336 364 1294 406 1336 b 614 1210 557 1336 614 1286 b 508 1092 614 1146 572 1092 b 433 1136 469 1092 444 1108 l 425 1136 l 446 1042 l 378 1042 m 425 -19 b 92 328 219 -19 92 103 l 92 972 l 208 972 l 208 328 b 425 89 208 172 283 89 b 642 328 567 89 642 172 l 642 972 l 758 972 l 758 328 b 425 -19 758 103 631 -19 "},"Ư":{"ha":850,"x_min":0,"x_max":0,"o":"m 331 -19 b 56 281 156 -19 56 78 l 56 972 l 172 972 l 172 286 b 331 86 172 144 228 86 b 489 286 433 86 489 144 l 489 972 l 606 972 l 606 706 l 738 706 b 775 747 764 706 775 721 l 775 782 b 751 778 768 779 760 778 b 656 875 700 778 656 822 b 753 972 656 928 700 972 b 850 875 806 972 850 928 l 850 739 b 743 631 850 676 806 631 l 606 631 l 606 281 b 331 -19 606 78 506 -19 "},"Ứ":{"ha":850,"x_min":0,"x_max":0,"o":"m 375 1239 l 500 1239 l 383 1075 l 283 1075 m 331 -19 b 56 281 156 -19 56 78 l 56 972 l 172 972 l 172 286 b 331 86 172 144 228 86 b 489 286 433 86 489 144 l 489 972 l 606 972 l 606 706 l 738 706 b 775 747 764 706 775 721 l 775 782 b 751 778 768 779 760 778 b 656 875 700 778 656 822 b 753 972 656 928 700 972 b 850 875 806 972 850 928 l 850 739 b 743 631 850 676 806 631 l 606 631 l 606 281 b 331 -19 606 78 506 -19 "},"Ự":{"ha":850,"x_min":0,"x_max":0,"o":"m 331 -19 b 56 281 156 -19 56 78 l 56 972 l 172 972 l 172 286 b 331 86 172 144 228 86 b 489 286 433 86 489 144 l 489 972 l 606 972 l 606 706 l 738 706 b 775 747 764 706 775 721 l 775 782 b 751 778 768 779 760 778 b 656 875 700 778 656 822 b 753 972 656 928 700 972 b 850 875 806 972 850 928 l 850 739 b 743 631 850 676 806 631 l 606 631 l 606 281 b 331 -19 606 78 506 -19 m 331 -283 b 233 -186 278 -283 233 -239 b 331 -89 233 -133 278 -89 b 428 -186 383 -89 428 -133 b 331 -283 428 -239 383 -283 "},"Ừ":{"ha":850,"x_min":0,"x_max":0,"o":"m 160 1239 l 285 1239 l 376 1075 l 276 1075 m 331 -19 b 56 281 156 -19 56 78 l 56 972 l 172 972 l 172 286 b 331 86 172 144 228 86 b 489 286 433 86 489 144 l 489 972 l 606 972 l 606 706 l 738 706 b 775 747 764 706 775 721 l 775 782 b 751 778 768 779 760 778 b 656 875 700 778 656 822 b 753 972 656 928 700 972 b 850 875 806 972 850 928 l 850 739 b 743 631 850 676 806 631 l 606 631 l 606 281 b 331 -19 606 78 506 -19 "},"Ử":{"ha":850,"x_min":0,"x_max":0,"o":"m 249 1169 l 249 1178 l 354 1178 b 389 1158 360 1167 372 1158 b 438 1211 415 1158 438 1178 b 382 1269 438 1251 410 1269 b 315 1214 342 1269 321 1242 l 249 1239 b 383 1336 263 1294 304 1336 b 513 1210 456 1336 513 1286 b 407 1092 513 1146 471 1092 b 332 1136 368 1092 343 1108 l 324 1136 l 344 1042 l 276 1042 m 331 -19 b 56 281 156 -19 56 78 l 56 972 l 172 972 l 172 286 b 331 86 172 144 228 86 b 489 286 433 86 489 144 l 489 972 l 606 972 l 606 706 l 738 706 b 775 747 764 706 775 721 l 775 782 b 751 778 768 779 760 778 b 656 875 700 778 656 822 b 753 972 656 928 700 972 b 850 875 806 972 850 928 l 850 739 b 743 631 850 676 806 631 l 606 631 l 606 281 b 331 -19 606 78 506 -19 "},"Ữ":{"ha":850,"x_min":0,"x_max":0,"o":"m 394 1049 b 293 1114 347 1049 318 1071 b 247 1161 275 1147 263 1161 b 211 1139 238 1161 228 1158 l 154 1071 l 86 1129 l 144 1197 b 253 1256 171 1229 203 1256 b 353 1189 307 1256 328 1229 b 400 1143 375 1153 386 1143 b 432 1164 410 1143 418 1147 l 492 1233 l 560 1175 l 503 1107 b 394 1049 475 1074 439 1049 m 331 -19 b 56 281 156 -19 56 78 l 56 972 l 172 972 l 172 286 b 331 86 172 144 228 86 b 489 286 433 86 489 144 l 489 972 l 606 972 l 606 706 l 738 706 b 775 747 764 706 775 721 l 775 782 b 751 778 768 779 760 778 b 656 875 700 778 656 822 b 753 972 656 928 700 972 b 850 875 806 972 850 928 l 850 739 b 743 631 850 676 806 631 l 606 631 l 606 281 b 331 -19 606 78 506 -19 "},"Ű":{"ha":850,"x_min":0,"x_max":0,"o":"m 558 1239 l 683 1239 l 567 1075 l 467 1075 m 358 1239 l 483 1239 l 367 1075 l 267 1075 m 425 -19 b 92 328 219 -19 92 103 l 92 972 l 208 972 l 208 328 b 425 89 208 172 283 89 b 642 328 567 89 642 172 l 642 972 l 758 972 l 758 328 b 425 -19 758 103 631 -19 "},"Ū":{"ha":850,"x_min":0,"x_max":0,"o":"m 243 1167 l 607 1167 l 607 1075 l 243 1075 m 425 -19 b 92 328 219 -19 92 103 l 92 972 l 208 972 l 208 328 b 425 89 208 172 283 89 b 642 328 567 89 642 172 l 642 972 l 758 972 l 758 328 b 425 -19 758 103 631 -19 "},"Ų":{"ha":850,"x_min":0,"x_max":0,"o":"m 463 -228 b 354 -125 408 -228 354 -193 b 358 -92 354 -115 356 -106 l 375 -17 b 92 328 199 1 92 121 l 92 972 l 208 972 l 208 328 b 425 89 208 172 283 89 b 642 328 567 89 642 172 l 642 972 l 758 972 l 758 328 b 469 -17 758 119 649 0 l 451 -94 b 450 -106 450 -101 450 -104 b 482 -136 450 -125 463 -136 l 540 -136 l 540 -228 l 463 -228 "},"Ů":{"ha":850,"x_min":0,"x_max":0,"o":"m 425 1075 b 283 1217 346 1075 283 1138 b 425 1358 283 1296 346 1358 b 567 1217 504 1358 567 1296 b 425 1075 567 1138 504 1075 m 425 1158 b 483 1217 458 1158 483 1183 b 425 1275 483 1250 458 1275 b 367 1217 392 1275 367 1250 b 425 1158 367 1183 392 1158 m 425 -19 b 92 328 219 -19 92 103 l 92 972 l 208 972 l 208 328 b 425 89 208 172 283 89 b 642 328 567 89 642 172 l 642 972 l 758 972 l 758 328 b 425 -19 758 103 631 -19 "},"Ũ":{"ha":850,"x_min":0,"x_max":0,"o":"m 496 1049 b 394 1114 449 1049 419 1071 b 349 1161 376 1147 364 1161 b 313 1139 339 1161 329 1158 l 256 1071 l 188 1129 l 246 1197 b 354 1256 272 1229 304 1256 b 454 1189 408 1256 429 1229 b 501 1143 476 1153 488 1143 b 533 1164 511 1143 519 1147 l 593 1233 l 661 1175 l 604 1107 b 496 1049 576 1074 540 1049 m 425 -19 b 92 328 219 -19 92 103 l 92 972 l 208 972 l 208 328 b 425 89 208 172 283 89 b 642 328 567 89 642 172 l 642 972 l 758 972 l 758 328 b 425 -19 758 103 631 -19 "},"V":{"ha":850,"x_min":0,"x_max":0,"o":"m 38 972 l 163 972 l 417 50 l 433 50 l 688 972 l 813 972 l 538 0 l 313 0 "},"W":{"ha":850,"x_min":0,"x_max":0,"o":"m 15 972 l 121 972 l 214 50 l 231 50 l 318 972 l 532 972 l 619 50 l 636 50 l 729 972 l 835 972 l 736 0 l 524 0 l 433 922 l 417 922 l 326 0 l 114 0 "},"Ẃ":{"ha":850,"x_min":0,"x_max":0,"o":"m 472 1239 l 597 1239 l 481 1075 l 381 1075 m 15 972 l 121 972 l 214 50 l 231 50 l 318 972 l 532 972 l 619 50 l 636 50 l 729 972 l 835 972 l 736 0 l 524 0 l 433 922 l 417 922 l 326 0 l 114 0 "},"Ŵ":{"ha":850,"x_min":0,"x_max":0,"o":"m 335 1239 l 507 1239 l 618 1075 l 501 1075 l 429 1197 l 413 1197 l 340 1075 l 224 1075 m 15 972 l 121 972 l 214 50 l 231 50 l 318 972 l 532 972 l 619 50 l 636 50 l 729 972 l 835 972 l 736 0 l 524 0 l 433 922 l 417 922 l 326 0 l 114 0 "},"Ẅ":{"ha":850,"x_min":0,"x_max":0,"o":"m 560 1081 b 463 1178 507 1081 463 1125 b 560 1275 463 1231 507 1275 b 657 1178 613 1275 657 1231 b 560 1081 657 1125 613 1081 m 282 1081 b 185 1178 229 1081 185 1125 b 282 1275 185 1231 229 1275 b 379 1178 335 1275 379 1231 b 282 1081 379 1125 335 1081 m 15 972 l 121 972 l 214 50 l 231 50 l 318 972 l 532 972 l 619 50 l 636 50 l 729 972 l 835 972 l 736 0 l 524 0 l 433 922 l 417 922 l 326 0 l 114 0 "},"Ẁ":{"ha":850,"x_min":0,"x_max":0,"o":"m 257 1239 l 382 1239 l 474 1075 l 374 1075 m 15 972 l 121 972 l 214 50 l 231 50 l 318 972 l 532 972 l 619 50 l 636 50 l 729 972 l 835 972 l 736 0 l 524 0 l 433 922 l 417 922 l 326 0 l 114 0 "},"X":{"ha":850,"x_min":0,"x_max":0,"o":"m 310 479 l 310 496 l 67 972 l 194 972 l 413 542 l 438 542 l 656 972 l 783 972 l 540 496 l 540 479 l 783 0 l 656 0 l 438 433 l 413 433 l 194 0 l 67 0 "},"Y":{"ha":850,"x_min":0,"x_max":0,"o":"m 367 342 l 342 342 l 38 972 l 168 972 l 417 442 l 433 442 l 682 972 l 813 972 l 508 342 l 483 342 l 483 0 l 367 0 "},"Ý":{"ha":850,"x_min":0,"x_max":0,"o":"m 469 1239 l 594 1239 l 478 1075 l 378 1075 m 367 342 l 342 342 l 38 972 l 168 972 l 417 442 l 433 442 l 682 972 l 813 972 l 508 342 l 483 342 l 483 0 l 367 0 "},"Ŷ":{"ha":850,"x_min":0,"x_max":0,"o":"m 332 1239 l 504 1239 l 615 1075 l 499 1075 l 426 1197 l 410 1197 l 338 1075 l 221 1075 m 367 342 l 342 342 l 38 972 l 168 972 l 417 442 l 433 442 l 682 972 l 813 972 l 508 342 l 483 342 l 483 0 l 367 0 "},"Ÿ":{"ha":850,"x_min":0,"x_max":0,"o":"m 557 1081 b 460 1178 504 1081 460 1125 b 557 1275 460 1231 504 1275 b 654 1178 610 1275 654 1231 b 557 1081 654 1125 610 1081 m 279 1081 b 182 1178 226 1081 182 1125 b 279 1275 182 1231 226 1275 b 376 1178 332 1275 376 1231 b 279 1081 376 1125 332 1081 m 367 342 l 342 342 l 38 972 l 168 972 l 417 442 l 433 442 l 682 972 l 813 972 l 508 342 l 483 342 l 483 0 l 367 0 "},"Ẏ":{"ha":850,"x_min":0,"x_max":0,"o":"m 418 1081 b 321 1178 365 1081 321 1125 b 418 1275 321 1231 365 1275 b 515 1178 471 1275 515 1231 b 418 1081 515 1125 471 1081 m 367 342 l 342 342 l 38 972 l 168 972 l 417 442 l 433 442 l 682 972 l 813 972 l 508 342 l 483 342 l 483 0 l 367 0 "},"Ỵ":{"ha":850,"x_min":0,"x_max":0,"o":"m 367 342 l 342 342 l 38 972 l 168 972 l 417 442 l 433 442 l 682 972 l 813 972 l 508 342 l 483 342 l 483 0 l 367 0 m 425 -283 b 328 -186 372 -283 328 -239 b 425 -89 328 -133 372 -89 b 522 -186 478 -89 522 -133 b 425 -283 522 -239 478 -283 "},"Ỳ":{"ha":850,"x_min":0,"x_max":0,"o":"m 254 1239 l 379 1239 l 471 1075 l 371 1075 m 367 342 l 342 342 l 38 972 l 168 972 l 417 442 l 433 442 l 682 972 l 813 972 l 508 342 l 483 342 l 483 0 l 367 0 "},"Ỷ":{"ha":850,"x_min":0,"x_max":0,"o":"m 343 1169 l 343 1178 l 449 1178 b 483 1158 454 1167 467 1158 b 532 1211 510 1158 532 1178 b 476 1269 532 1251 504 1269 b 410 1214 436 1269 415 1242 l 343 1239 b 478 1336 357 1294 399 1336 b 607 1210 550 1336 607 1286 b 501 1092 607 1146 565 1092 b 426 1136 463 1092 438 1108 l 418 1136 l 439 1042 l 371 1042 m 367 342 l 342 342 l 38 972 l 168 972 l 417 442 l 433 442 l 682 972 l 813 972 l 508 342 l 483 342 l 483 0 l 367 0 "},"Ỹ":{"ha":850,"x_min":0,"x_max":0,"o":"m 489 1049 b 388 1114 442 1049 413 1071 b 342 1161 369 1147 357 1161 b 306 1139 332 1161 322 1158 l 249 1071 l 181 1129 l 239 1197 b 347 1256 265 1229 297 1256 b 447 1189 401 1256 422 1229 b 494 1143 469 1153 481 1143 b 526 1164 504 1143 513 1147 l 586 1233 l 654 1175 l 597 1107 b 489 1049 569 1074 533 1049 m 367 342 l 342 342 l 38 972 l 168 972 l 417 442 l 433 442 l 682 972 l 813 972 l 508 342 l 483 342 l 483 0 l 367 0 "},"Z":{"ha":850,"x_min":0,"x_max":0,"o":"m 74 175 l 657 847 l 657 864 l 107 864 l 107 972 l 757 972 l 757 797 l 174 125 l 174 108 l 774 108 l 774 0 l 74 0 "},"Ź":{"ha":850,"x_min":0,"x_max":0,"o":"m 476 1239 l 601 1239 l 485 1075 l 385 1075 m 74 175 l 657 847 l 657 864 l 107 864 l 107 972 l 757 972 l 757 797 l 174 125 l 174 108 l 774 108 l 774 0 l 74 0 "},"Ž":{"ha":850,"x_min":0,"x_max":0,"o":"m 228 1239 l 344 1239 l 417 1117 l 433 1117 l 506 1239 l 622 1239 l 511 1075 l 339 1075 m 74 175 l 657 847 l 657 864 l 107 864 l 107 972 l 757 972 l 757 797 l 174 125 l 174 108 l 774 108 l 774 0 l 74 0 "},"Ż":{"ha":850,"x_min":0,"x_max":0,"o":"m 425 1081 b 328 1178 372 1081 328 1125 b 425 1275 328 1231 372 1275 b 522 1178 478 1275 522 1231 b 425 1081 522 1125 478 1081 m 74 175 l 657 847 l 657 864 l 107 864 l 107 972 l 757 972 l 757 797 l 174 125 l 174 108 l 774 108 l 774 0 l 74 0 "},"Ẓ":{"ha":850,"x_min":0,"x_max":0,"o":"m 74 175 l 657 847 l 657 864 l 107 864 l 107 972 l 757 972 l 757 797 l 174 125 l 174 108 l 774 108 l 774 0 l 74 0 m 425 -283 b 328 -186 372 -283 328 -239 b 425 -89 328 -133 372 -89 b 522 -186 478 -89 522 -133 b 425 -283 522 -239 478 -283 "},"a":{"ha":850,"x_min":0,"x_max":0,"o":"m 388 -19 b 65 333 207 -19 65 106 l 65 356 b 385 708 65 581 210 708 b 604 581 479 708 560 667 l 621 581 l 621 689 l 729 689 l 729 142 b 767 100 729 115 740 100 l 801 100 l 801 0 l 728 0 b 621 117 669 0 621 35 l 604 117 b 388 -19 560 25 474 -19 m 399 83 b 621 336 528 83 621 183 l 621 353 b 399 606 621 500 526 606 b 176 356 271 606 176 506 l 176 333 b 399 83 176 178 268 83 "},"á":{"ha":850,"x_min":0,"x_max":0,"o":"m 453 956 l 578 956 l 461 792 l 361 792 m 388 -19 b 65 333 207 -19 65 106 l 65 356 b 385 708 65 581 210 708 b 604 581 479 708 560 667 l 621 581 l 621 689 l 729 689 l 729 142 b 767 100 729 115 740 100 l 801 100 l 801 0 l 728 0 b 621 117 669 0 621 35 l 604 117 b 388 -19 560 25 474 -19 m 399 83 b 621 336 528 83 621 183 l 621 353 b 399 606 621 500 526 606 b 176 356 271 606 176 506 l 176 333 b 399 83 176 178 268 83 "},"ă":{"ha":850,"x_min":0,"x_max":0,"o":"m 401 792 b 251 942 310 792 251 853 l 251 956 l 347 956 l 347 939 b 401 885 347 910 367 885 b 456 939 436 885 456 910 l 456 956 l 551 956 l 551 942 b 401 792 551 853 493 792 m 388 -19 b 65 333 207 -19 65 106 l 65 356 b 385 708 65 581 210 708 b 604 581 479 708 560 667 l 621 581 l 621 689 l 729 689 l 729 142 b 767 100 729 115 740 100 l 801 100 l 801 0 l 728 0 b 621 117 669 0 621 35 l 604 117 b 388 -19 560 25 474 -19 m 399 83 b 621 336 528 83 621 183 l 621 353 b 399 606 621 500 526 606 b 176 356 271 606 176 506 l 176 333 b 399 83 176 178 268 83 "},"ắ":{"ha":850,"x_min":0,"x_max":0,"o":"m 458 1188 l 583 1188 l 467 1024 l 367 1024 m 401 792 b 251 942 310 792 251 853 l 251 956 l 347 956 l 347 939 b 401 885 347 910 367 885 b 456 939 436 885 456 910 l 456 956 l 551 956 l 551 942 b 401 792 551 853 493 792 m 388 -19 b 65 333 207 -19 65 106 l 65 356 b 385 708 65 581 210 708 b 604 581 479 708 560 667 l 621 581 l 621 689 l 729 689 l 729 142 b 767 100 729 115 740 100 l 801 100 l 801 0 l 728 0 b 621 117 669 0 621 35 l 604 117 b 388 -19 560 25 474 -19 m 399 83 b 621 336 528 83 621 183 l 621 353 b 399 606 621 500 526 606 b 176 356 271 606 176 506 l 176 333 b 399 83 176 178 268 83 "},"ặ":{"ha":850,"x_min":0,"x_max":0,"o":"m 401 792 b 251 942 310 792 251 853 l 251 956 l 347 956 l 347 939 b 401 885 347 910 367 885 b 456 939 436 885 456 910 l 456 956 l 551 956 l 551 942 b 401 792 551 853 493 792 m 388 -19 b 65 333 207 -19 65 106 l 65 356 b 385 708 65 581 210 708 b 604 581 479 708 560 667 l 621 581 l 621 689 l 729 689 l 729 142 b 767 100 729 115 740 100 l 801 100 l 801 0 l 728 0 b 621 117 669 0 621 35 l 604 117 b 388 -19 560 25 474 -19 m 399 83 b 621 336 528 83 621 183 l 621 353 b 399 606 621 500 526 606 b 176 356 271 606 176 506 l 176 333 b 399 83 176 178 268 83 m 390 -283 b 293 -186 338 -283 293 -239 b 390 -89 293 -133 338 -89 b 488 -186 443 -89 488 -133 b 390 -283 488 -239 443 -283 "},"ằ":{"ha":850,"x_min":0,"x_max":0,"o":"m 243 1188 l 368 1188 l 460 1024 l 360 1024 m 401 792 b 251 942 310 792 251 853 l 251 956 l 347 956 l 347 939 b 401 885 347 910 367 885 b 456 939 436 885 456 910 l 456 956 l 551 956 l 551 942 b 401 792 551 853 493 792 m 388 -19 b 65 333 207 -19 65 106 l 65 356 b 385 708 65 581 210 708 b 604 581 479 708 560 667 l 621 581 l 621 689 l 729 689 l 729 142 b 767 100 729 115 740 100 l 801 100 l 801 0 l 728 0 b 621 117 669 0 621 35 l 604 117 b 388 -19 560 25 474 -19 m 399 83 b 621 336 528 83 621 183 l 621 353 b 399 606 621 500 526 606 b 176 356 271 606 176 506 l 176 333 b 399 83 176 178 268 83 "},"ẳ":{"ha":850,"x_min":0,"x_max":0,"o":"m 332 1118 l 332 1126 l 438 1126 b 472 1107 443 1115 456 1107 b 521 1160 499 1107 521 1126 b 465 1218 521 1200 493 1218 b 399 1163 425 1218 404 1190 l 332 1188 b 467 1285 346 1243 388 1285 b 596 1158 539 1285 596 1235 b 490 1040 596 1094 554 1040 b 415 1085 451 1040 426 1057 l 407 1085 l 428 990 l 360 990 m 401 792 b 251 942 310 792 251 853 l 251 956 l 347 956 l 347 939 b 401 885 347 910 367 885 b 456 939 436 885 456 910 l 456 956 l 551 956 l 551 942 b 401 792 551 853 493 792 m 388 -19 b 65 333 207 -19 65 106 l 65 356 b 385 708 65 581 210 708 b 604 581 479 708 560 667 l 621 581 l 621 689 l 729 689 l 729 142 b 767 100 729 115 740 100 l 801 100 l 801 0 l 728 0 b 621 117 669 0 621 35 l 604 117 b 388 -19 560 25 474 -19 m 399 83 b 621 336 528 83 621 183 l 621 353 b 399 606 621 500 526 606 b 176 356 271 606 176 506 l 176 333 b 399 83 176 178 268 83 "},"ẵ":{"ha":850,"x_min":0,"x_max":0,"o":"m 478 997 b 376 1063 431 997 401 1019 b 331 1110 358 1096 346 1110 b 294 1088 321 1110 311 1107 l 238 1019 l 169 1078 l 228 1146 b 336 1204 254 1178 286 1204 b 436 1138 390 1204 411 1178 b 483 1092 458 1101 469 1092 b 515 1113 493 1092 501 1096 l 575 1182 l 643 1124 l 586 1056 b 478 997 558 1022 522 997 m 401 792 b 251 942 310 792 251 853 l 251 956 l 347 956 l 347 939 b 401 885 347 910 367 885 b 456 939 436 885 456 910 l 456 956 l 551 956 l 551 942 b 401 792 551 853 493 792 m 388 -19 b 65 333 207 -19 65 106 l 65 356 b 385 708 65 581 210 708 b 604 581 479 708 560 667 l 621 581 l 621 689 l 729 689 l 729 142 b 767 100 729 115 740 100 l 801 100 l 801 0 l 728 0 b 621 117 669 0 621 35 l 604 117 b 388 -19 560 25 474 -19 m 399 83 b 621 336 528 83 621 183 l 621 353 b 399 606 621 500 526 606 b 176 356 271 606 176 506 l 176 333 b 399 83 176 178 268 83 "},"ǎ":{"ha":850,"x_min":0,"x_max":0,"o":"m 204 956 l 321 956 l 393 833 l 410 833 l 482 956 l 599 956 l 488 792 l 315 792 m 388 -19 b 65 333 207 -19 65 106 l 65 356 b 385 708 65 581 210 708 b 604 581 479 708 560 667 l 621 581 l 621 689 l 729 689 l 729 142 b 767 100 729 115 740 100 l 801 100 l 801 0 l 728 0 b 621 117 669 0 621 35 l 604 117 b 388 -19 560 25 474 -19 m 399 83 b 621 336 528 83 621 183 l 621 353 b 399 606 621 500 526 606 b 176 356 271 606 176 506 l 176 333 b 399 83 176 178 268 83 "},"â":{"ha":850,"x_min":0,"x_max":0,"o":"m 315 956 l 488 956 l 599 792 l 482 792 l 410 914 l 393 914 l 321 792 l 204 792 m 388 -19 b 65 333 207 -19 65 106 l 65 356 b 385 708 65 581 210 708 b 604 581 479 708 560 667 l 621 581 l 621 689 l 729 689 l 729 142 b 767 100 729 115 740 100 l 801 100 l 801 0 l 728 0 b 621 117 669 0 621 35 l 604 117 b 388 -19 560 25 474 -19 m 399 83 b 621 336 528 83 621 183 l 621 353 b 399 606 621 500 526 606 b 176 356 271 606 176 506 l 176 333 b 399 83 176 178 268 83 "},"ấ":{"ha":850,"x_min":0,"x_max":0,"o":"m 642 1078 l 767 1078 l 650 914 l 550 914 m 315 956 l 488 956 l 599 792 l 482 792 l 410 914 l 393 914 l 321 792 l 204 792 m 388 -19 b 65 333 207 -19 65 106 l 65 356 b 385 708 65 581 210 708 b 604 581 479 708 560 667 l 621 581 l 621 689 l 729 689 l 729 142 b 767 100 729 115 740 100 l 801 100 l 801 0 l 728 0 b 621 117 669 0 621 35 l 604 117 b 388 -19 560 25 474 -19 m 399 83 b 621 336 528 83 621 183 l 621 353 b 399 606 621 500 526 606 b 176 356 271 606 176 506 l 176 333 b 399 83 176 178 268 83 "},"ậ":{"ha":850,"x_min":0,"x_max":0,"o":"m 315 956 l 488 956 l 599 792 l 482 792 l 410 914 l 393 914 l 321 792 l 204 792 m 388 -19 b 65 333 207 -19 65 106 l 65 356 b 385 708 65 581 210 708 b 604 581 479 708 560 667 l 621 581 l 621 689 l 729 689 l 729 142 b 767 100 729 115 740 100 l 801 100 l 801 0 l 728 0 b 621 117 669 0 621 35 l 604 117 b 388 -19 560 25 474 -19 m 399 83 b 621 336 528 83 621 183 l 621 353 b 399 606 621 500 526 606 b 176 356 271 606 176 506 l 176 333 b 399 83 176 178 268 83 m 390 -283 b 293 -186 338 -283 293 -239 b 390 -89 293 -133 338 -89 b 488 -186 443 -89 488 -133 b 390 -283 488 -239 443 -283 "},"ầ":{"ha":850,"x_min":0,"x_max":0,"o":"m 24 1078 l 149 1078 l 240 914 l 140 914 m 315 956 l 488 956 l 599 792 l 482 792 l 410 914 l 393 914 l 321 792 l 204 792 m 388 -19 b 65 333 207 -19 65 106 l 65 356 b 385 708 65 581 210 708 b 604 581 479 708 560 667 l 621 581 l 621 689 l 729 689 l 729 142 b 767 100 729 115 740 100 l 801 100 l 801 0 l 728 0 b 621 117 669 0 621 35 l 604 117 b 388 -19 560 25 474 -19 m 399 83 b 621 336 528 83 621 183 l 621 353 b 399 606 621 500 526 606 b 176 356 271 606 176 506 l 176 333 b 399 83 176 178 268 83 "},"ẩ":{"ha":850,"x_min":0,"x_max":0,"o":"m 539 1036 l 539 1044 l 644 1044 b 679 1025 650 1033 663 1025 b 728 1078 706 1025 728 1044 b 672 1136 728 1118 700 1136 b 606 1081 632 1136 611 1108 l 539 1106 b 674 1203 553 1161 594 1203 b 803 1076 746 1203 803 1153 b 697 958 803 1013 761 958 b 622 1003 658 958 633 975 l 614 1003 l 635 908 l 567 908 m 315 956 l 488 956 l 599 792 l 482 792 l 410 914 l 393 914 l 321 792 l 204 792 m 388 -19 b 65 333 207 -19 65 106 l 65 356 b 385 708 65 581 210 708 b 604 581 479 708 560 667 l 621 581 l 621 689 l 729 689 l 729 142 b 767 100 729 115 740 100 l 801 100 l 801 0 l 728 0 b 621 117 669 0 621 35 l 604 117 b 388 -19 560 25 474 -19 m 399 83 b 621 336 528 83 621 183 l 621 353 b 399 606 621 500 526 606 b 176 356 271 606 176 506 l 176 333 b 399 83 176 178 268 83 "},"ẫ":{"ha":850,"x_min":0,"x_max":0,"o":"m 478 990 b 376 1056 431 990 401 1013 b 331 1103 358 1089 346 1103 b 294 1081 321 1103 311 1100 l 238 1013 l 169 1071 l 228 1139 b 336 1197 254 1171 286 1197 b 436 1131 390 1197 411 1171 b 483 1085 458 1094 469 1085 b 515 1106 493 1085 501 1089 l 575 1175 l 643 1117 l 586 1049 b 478 990 558 1015 522 990 m 315 956 l 488 956 l 599 792 l 482 792 l 410 914 l 393 914 l 321 792 l 204 792 m 388 -19 b 65 333 207 -19 65 106 l 65 356 b 385 708 65 581 210 708 b 604 581 479 708 560 667 l 621 581 l 621 689 l 729 689 l 729 142 b 767 100 729 115 740 100 l 801 100 l 801 0 l 728 0 b 621 117 669 0 621 35 l 604 117 b 388 -19 560 25 474 -19 m 399 83 b 621 336 528 83 621 183 l 621 353 b 399 606 621 500 526 606 b 176 356 271 606 176 506 l 176 333 b 399 83 176 178 268 83 "},"ä":{"ha":850,"x_min":0,"x_max":0,"o":"m 540 797 b 443 894 488 797 443 842 b 540 992 443 947 488 992 b 638 894 593 992 638 947 b 540 797 638 842 593 797 m 263 797 b 165 894 210 797 165 842 b 263 992 165 947 210 992 b 360 894 315 992 360 947 b 263 797 360 842 315 797 m 388 -19 b 65 333 207 -19 65 106 l 65 356 b 385 708 65 581 210 708 b 604 581 479 708 560 667 l 621 581 l 621 689 l 729 689 l 729 142 b 767 100 729 115 740 100 l 801 100 l 801 0 l 728 0 b 621 117 669 0 621 35 l 604 117 b 388 -19 560 25 474 -19 m 399 83 b 621 336 528 83 621 183 l 621 353 b 399 606 621 500 526 606 b 176 356 271 606 176 506 l 176 333 b 399 83 176 178 268 83 "},"ạ":{"ha":850,"x_min":0,"x_max":0,"o":"m 388 -19 b 65 333 207 -19 65 106 l 65 356 b 385 708 65 581 210 708 b 604 581 479 708 560 667 l 621 581 l 621 689 l 729 689 l 729 142 b 767 100 729 115 740 100 l 801 100 l 801 0 l 728 0 b 621 117 669 0 621 35 l 604 117 b 388 -19 560 25 474 -19 m 399 83 b 621 336 528 83 621 183 l 621 353 b 399 606 621 500 526 606 b 176 356 271 606 176 506 l 176 333 b 399 83 176 178 268 83 m 390 -283 b 293 -186 338 -283 293 -239 b 390 -89 293 -133 338 -89 b 488 -186 443 -89 488 -133 b 390 -283 488 -239 443 -283 "},"à":{"ha":850,"x_min":0,"x_max":0,"o":"m 238 956 l 363 956 l 454 792 l 354 792 m 388 -19 b 65 333 207 -19 65 106 l 65 356 b 385 708 65 581 210 708 b 604 581 479 708 560 667 l 621 581 l 621 689 l 729 689 l 729 142 b 767 100 729 115 740 100 l 801 100 l 801 0 l 728 0 b 621 117 669 0 621 35 l 604 117 b 388 -19 560 25 474 -19 m 399 83 b 621 336 528 83 621 183 l 621 353 b 399 606 621 500 526 606 b 176 356 271 606 176 506 l 176 333 b 399 83 176 178 268 83 "},"ả":{"ha":850,"x_min":0,"x_max":0,"o":"m 326 886 l 326 894 l 432 894 b 467 875 438 883 450 875 b 515 928 493 875 515 894 b 460 986 515 968 488 986 b 393 931 419 986 399 958 l 326 956 b 461 1053 340 1011 382 1053 b 590 926 533 1053 590 1003 b 485 808 590 863 549 808 b 410 853 446 808 421 825 l 401 853 l 422 758 l 354 758 m 388 -19 b 65 333 207 -19 65 106 l 65 356 b 385 708 65 581 210 708 b 604 581 479 708 560 667 l 621 581 l 621 689 l 729 689 l 729 142 b 767 100 729 115 740 100 l 801 100 l 801 0 l 728 0 b 621 117 669 0 621 35 l 604 117 b 388 -19 560 25 474 -19 m 399 83 b 621 336 528 83 621 183 l 621 353 b 399 606 621 500 526 606 b 176 356 271 606 176 506 l 176 333 b 399 83 176 178 268 83 "},"ɑ":{"ha":850,"x_min":0,"x_max":0,"o":"m 388 -19 b 65 333 207 -19 65 106 l 65 356 b 385 708 65 581 210 708 b 604 581 479 708 560 667 l 621 581 l 621 689 l 729 689 l 729 142 b 767 100 729 115 740 100 l 801 100 l 801 0 l 728 0 b 621 117 669 0 621 35 l 604 117 b 388 -19 560 25 474 -19 m 399 83 b 621 336 528 83 621 183 l 621 353 b 399 606 621 500 526 606 b 176 356 271 606 176 506 l 176 333 b 399 83 176 178 268 83 "},"ɒ":{"ha":850,"x_min":0,"x_max":0,"o":"m 479 708 b 801 356 660 708 801 583 l 801 333 b 482 -19 801 108 657 -19 b 263 108 388 -19 307 22 l 246 108 l 246 0 l 138 0 l 138 547 b 100 589 138 574 126 589 l 65 589 l 65 689 l 139 689 b 246 572 197 689 246 654 l 263 572 b 479 708 307 664 393 708 m 468 606 b 246 353 339 606 246 506 l 246 336 b 468 83 246 189 340 83 b 690 333 596 83 690 183 l 690 356 b 468 606 690 511 599 606 "},"ā":{"ha":850,"x_min":0,"x_max":0,"o":"m 219 883 l 583 883 l 583 792 l 219 792 m 388 -19 b 65 333 207 -19 65 106 l 65 356 b 385 708 65 581 210 708 b 604 581 479 708 560 667 l 621 581 l 621 689 l 729 689 l 729 142 b 767 100 729 115 740 100 l 801 100 l 801 0 l 728 0 b 621 117 669 0 621 35 l 604 117 b 388 -19 560 25 474 -19 m 399 83 b 621 336 528 83 621 183 l 621 353 b 399 606 621 500 526 606 b 176 356 271 606 176 506 l 176 333 b 399 83 176 178 268 83 "},"ą":{"ha":850,"x_min":0,"x_max":0,"o":"m 724 -228 b 615 -125 669 -228 615 -193 b 619 -92 615 -115 617 -106 l 647 35 b 621 108 631 53 621 79 l 621 117 l 604 117 b 388 -19 560 25 474 -19 b 65 333 207 -19 65 106 l 65 356 b 385 708 65 581 210 708 b 604 581 479 708 560 667 l 621 581 l 621 689 l 729 689 l 729 142 b 767 100 729 115 740 100 l 801 100 l 801 0 l 735 0 l 713 -94 b 711 -106 711 -101 711 -104 b 743 -136 711 -125 724 -136 l 801 -136 l 801 -228 l 724 -228 m 399 83 b 621 336 528 83 621 183 l 621 353 b 399 606 621 500 526 606 b 176 356 271 606 176 506 l 176 333 b 399 83 176 178 268 83 "},"å":{"ha":850,"x_min":0,"x_max":0,"o":"m 401 792 b 260 933 322 792 260 854 b 401 1075 260 1013 322 1075 b 543 933 481 1075 543 1013 b 401 792 543 854 481 792 m 401 875 b 460 933 435 875 460 900 b 401 992 460 967 435 992 b 343 933 368 992 343 967 b 401 875 343 900 368 875 m 388 -19 b 65 333 207 -19 65 106 l 65 356 b 385 708 65 581 210 708 b 604 581 479 708 560 667 l 621 581 l 621 689 l 729 689 l 729 142 b 767 100 729 115 740 100 l 801 100 l 801 0 l 728 0 b 621 117 669 0 621 35 l 604 117 b 388 -19 560 25 474 -19 m 399 83 b 621 336 528 83 621 183 l 621 353 b 399 606 621 500 526 606 b 176 356 271 606 176 506 l 176 333 b 399 83 176 178 268 83 "},"ã":{"ha":850,"x_min":0,"x_max":0,"o":"m 472 765 b 371 831 425 765 396 788 b 325 878 353 864 340 878 b 289 856 315 878 306 875 l 232 788 l 164 846 l 222 914 b 331 972 249 946 281 972 b 431 906 385 972 406 946 b 478 860 453 869 464 860 b 510 881 488 860 496 864 l 569 950 l 638 892 l 581 824 b 472 765 553 790 517 765 m 388 -19 b 65 333 207 -19 65 106 l 65 356 b 385 708 65 581 210 708 b 604 581 479 708 560 667 l 621 581 l 621 689 l 729 689 l 729 142 b 767 100 729 115 740 100 l 801 100 l 801 0 l 728 0 b 621 117 669 0 621 35 l 604 117 b 388 -19 560 25 474 -19 m 399 83 b 621 336 528 83 621 183 l 621 353 b 399 606 621 500 526 606 b 176 356 271 606 176 506 l 176 333 b 399 83 176 178 268 83 "},"ɐ":{"ha":850,"x_min":0,"x_max":0,"o":"m 496 708 b 738 500 649 708 738 614 l 738 483 b 493 272 738 353 632 272 l 267 272 l 267 244 b 444 81 267 164 319 81 b 618 231 540 81 603 133 l 721 206 b 444 -19 700 85 608 -19 b 158 243 275 -19 158 92 l 158 547 b 121 589 158 574 147 589 l 86 589 l 86 689 l 160 689 b 267 581 222 689 267 643 l 267 572 l 283 572 b 496 708 319 656 390 708 m 486 608 b 268 389 344 608 268 519 l 268 372 l 481 372 b 631 492 574 372 631 411 b 486 608 631 560 578 608 "},"æ":{"ha":850,"x_min":0,"x_max":0,"o":"m 342 -19 b 100 186 189 -19 100 72 l 100 203 b 344 411 100 333 206 411 l 365 411 l 365 607 b 219 458 285 597 233 546 l 117 483 b 393 708 138 604 229 708 l 425 708 b 750 400 651 708 750 522 l 750 311 l 474 311 l 474 86 b 639 225 571 100 617 157 l 742 197 b 425 -19 703 69 600 -19 l 342 -19 m 642 411 b 474 600 636 513 563 582 l 474 411 m 365 81 l 365 311 l 357 311 b 207 194 264 311 207 275 b 351 81 207 126 260 81 "},"b":{"ha":850,"x_min":0,"x_max":0,"o":"m 457 -19 b 221 106 368 -19 268 22 l 204 106 l 204 0 l 96 0 l 96 972 l 204 972 l 204 581 l 221 581 b 460 708 268 664 360 708 b 776 358 629 708 776 581 l 776 331 b 457 -19 776 106 632 -19 m 435 83 b 665 331 567 83 665 178 l 665 358 b 435 606 665 506 565 606 b 204 353 307 606 204 500 l 204 336 b 435 83 204 183 306 83 "},"ƀ":{"ha":850,"x_min":0,"x_max":0,"o":"m 457 -19 b 221 106 368 -19 268 22 l 204 106 l 204 0 l 96 0 l 96 781 l 13 781 l 13 881 l 96 881 l 96 972 l 204 972 l 204 881 l 451 881 l 451 781 l 204 781 l 204 581 l 221 581 b 460 708 268 664 360 708 b 776 358 629 708 776 581 l 776 331 b 457 -19 776 106 632 -19 m 435 83 b 665 331 567 83 665 178 l 665 358 b 435 606 665 506 565 606 b 204 353 307 606 204 500 l 204 336 b 435 83 204 183 306 83 "},"c":{"ha":850,"x_min":0,"x_max":0,"o":"m 438 -19 b 82 333 246 -19 82 108 l 82 350 b 438 708 82 572 246 708 b 763 444 613 708 738 597 l 654 419 b 435 606 643 517 571 606 b 193 350 301 606 193 500 l 193 333 b 438 83 193 178 301 83 b 657 269 574 83 643 175 l 765 244 b 438 -19 738 92 618 -19 "},"ć":{"ha":850,"x_min":0,"x_max":0,"o":"m 476 956 l 601 956 l 485 792 l 385 792 m 438 -19 b 82 333 246 -19 82 108 l 82 350 b 438 708 82 572 246 708 b 763 444 613 708 738 597 l 654 419 b 435 606 643 517 571 606 b 193 350 301 606 193 500 l 193 333 b 438 83 193 178 301 83 b 657 269 574 83 643 175 l 765 244 b 438 -19 738 92 618 -19 "},"č":{"ha":850,"x_min":0,"x_max":0,"o":"m 228 956 l 344 956 l 417 833 l 433 833 l 506 956 l 622 956 l 511 792 l 339 792 m 438 -19 b 82 333 246 -19 82 108 l 82 350 b 438 708 82 572 246 708 b 763 444 613 708 738 597 l 654 419 b 435 606 643 517 571 606 b 193 350 301 606 193 500 l 193 333 b 438 83 193 178 301 83 b 657 269 574 83 643 175 l 765 244 b 438 -19 738 92 618 -19 "},"ç":{"ha":850,"x_min":0,"x_max":0,"o":"m 469 -294 b 335 -197 390 -294 349 -253 l 401 -172 b 468 -228 407 -200 428 -228 b 524 -169 496 -228 524 -210 b 475 -117 524 -136 501 -117 b 440 -136 458 -117 446 -125 l 335 -136 l 335 -128 l 360 -12 b 82 333 203 17 82 139 l 82 350 b 438 708 82 572 246 708 b 763 444 613 708 738 597 l 654 419 b 435 606 643 517 571 606 b 193 350 301 606 193 500 l 193 333 b 438 83 193 178 301 83 b 657 269 574 83 643 175 l 765 244 b 438 -19 738 92 618 -19 l 426 -19 l 410 -94 l 418 -94 b 493 -50 429 -67 454 -50 b 599 -168 557 -50 599 -104 b 469 -294 599 -244 542 -294 "},"ĉ":{"ha":850,"x_min":0,"x_max":0,"o":"m 339 956 l 511 956 l 622 792 l 506 792 l 433 914 l 417 914 l 344 792 l 228 792 m 438 -19 b 82 333 246 -19 82 108 l 82 350 b 438 708 82 572 246 708 b 763 444 613 708 738 597 l 654 419 b 435 606 643 517 571 606 b 193 350 301 606 193 500 l 193 333 b 438 83 193 178 301 83 b 657 269 574 83 643 175 l 765 244 b 438 -19 738 92 618 -19 "},"ċ":{"ha":850,"x_min":0,"x_max":0,"o":"m 425 797 b 328 894 372 797 328 842 b 425 992 328 947 372 992 b 522 894 478 992 522 947 b 425 797 522 842 478 797 m 438 -19 b 82 333 246 -19 82 108 l 82 350 b 438 708 82 572 246 708 b 763 444 613 708 738 597 l 654 419 b 435 606 643 517 571 606 b 193 350 301 606 193 500 l 193 333 b 438 83 193 178 301 83 b 657 269 574 83 643 175 l 765 244 b 438 -19 738 92 618 -19 "},"d":{"ha":850,"x_min":0,"x_max":0,"o":"m 413 -19 b 82 333 229 -19 82 107 l 82 356 b 410 708 82 579 232 708 b 638 581 504 708 593 667 l 654 581 l 654 972 l 763 972 l 763 0 l 654 0 l 654 106 l 638 106 b 413 -19 593 19 496 -19 m 424 83 b 654 336 553 83 654 183 l 654 353 b 424 606 654 500 551 606 b 193 356 293 606 193 504 l 193 333 b 424 83 193 179 292 83 "},"ď":{"ha":850,"x_min":0,"x_max":0,"o":"m 292 -19 b 33 333 144 -19 33 103 l 33 356 b 292 708 33 592 150 708 b 456 614 378 708 431 669 l 472 614 l 472 972 l 581 972 l 581 0 l 472 0 l 472 81 l 456 81 b 292 -19 436 22 386 -19 m 647 706 l 713 706 b 750 747 739 706 750 721 l 750 782 b 726 778 743 779 735 778 b 631 875 675 778 631 822 b 728 972 631 928 675 972 b 825 875 781 972 825 928 l 825 739 b 718 631 825 676 781 631 l 647 631 m 306 83 b 472 336 432 83 472 192 l 472 353 b 308 606 472 492 435 606 b 144 356 207 606 144 519 l 144 333 b 306 83 144 172 204 83 "},"đ":{"ha":850,"x_min":0,"x_max":0,"o":"m 413 -19 b 82 333 229 -19 82 107 l 82 356 b 410 708 82 579 232 708 b 638 581 504 708 593 667 l 654 581 l 654 781 l 410 781 l 410 881 l 654 881 l 654 972 l 763 972 l 763 881 l 846 881 l 846 781 l 763 781 l 763 0 l 654 0 l 654 106 l 638 106 b 413 -19 593 19 496 -19 m 424 83 b 654 336 553 83 654 183 l 654 353 b 424 606 654 500 551 606 b 193 356 293 606 193 504 l 193 333 b 424 83 193 179 292 83 "},"ḍ":{"ha":850,"x_min":0,"x_max":0,"o":"m 413 -19 b 82 333 229 -19 82 107 l 82 356 b 410 708 82 579 232 708 b 638 581 504 708 593 667 l 654 581 l 654 972 l 763 972 l 763 0 l 654 0 l 654 106 l 638 106 b 413 -19 593 19 496 -19 m 424 83 b 654 336 553 83 654 183 l 654 353 b 424 606 654 500 551 606 b 193 356 293 606 193 504 l 193 333 b 424 83 193 179 292 83 m 418 -283 b 321 -186 365 -283 321 -239 b 418 -89 321 -133 365 -89 b 515 -186 471 -89 515 -133 b 418 -283 515 -239 471 -283 "},"ḏ":{"ha":850,"x_min":0,"x_max":0,"o":"m 413 -19 b 82 333 229 -19 82 107 l 82 356 b 410 708 82 579 232 708 b 638 581 504 708 593 667 l 654 581 l 654 972 l 763 972 l 763 0 l 654 0 l 654 106 l 638 106 b 413 -19 593 19 496 -19 m 424 83 b 654 336 553 83 654 183 l 654 353 b 424 606 654 500 551 606 b 193 356 293 606 193 504 l 193 333 b 424 83 193 179 292 83 m 222 -89 l 614 -89 l 614 -181 l 222 -181 "},"ð":{"ha":850,"x_min":0,"x_max":0,"o":"m 425 -19 b 79 336 242 -19 79 108 l 79 353 b 408 708 79 578 242 708 b 606 611 503 708 572 667 l 622 611 b 457 815 597 701 535 769 l 431 760 l 342 800 l 368 856 b 222 889 321 872 271 883 l 247 992 b 414 951 307 983 363 969 l 439 1003 l 526 963 l 501 911 b 771 376 692 807 771 600 b 425 -19 771 111 617 -19 m 425 83 b 660 353 557 83 660 181 b 425 606 660 503 556 606 b 190 353 294 606 190 503 l 190 336 b 425 83 190 181 293 83 "},"e":{"ha":850,"x_min":0,"x_max":0,"o":"m 428 -19 b 92 336 231 -19 92 125 l 92 369 b 431 708 92 564 238 708 b 756 400 657 708 756 522 l 756 311 l 200 311 b 431 83 206 175 289 83 b 644 225 561 83 619 147 l 747 197 b 428 -19 708 69 606 -19 m 647 411 b 431 606 642 531 539 606 b 203 411 308 606 217 522 "},"é":{"ha":850,"x_min":0,"x_max":0,"o":"m 476 956 l 601 956 l 485 792 l 385 792 m 428 -19 b 92 336 231 -19 92 125 l 92 369 b 431 708 92 564 238 708 b 756 400 657 708 756 522 l 756 311 l 200 311 b 431 83 206 175 289 83 b 644 225 561 83 619 147 l 747 197 b 428 -19 708 69 606 -19 m 647 411 b 431 606 642 531 539 606 b 203 411 308 606 217 522 "},"ĕ":{"ha":850,"x_min":0,"x_max":0,"o":"m 425 792 b 275 942 333 792 275 853 l 275 956 l 371 956 l 371 939 b 425 885 371 910 390 885 b 479 939 460 885 479 910 l 479 956 l 575 956 l 575 942 b 425 792 575 853 517 792 m 428 -19 b 92 336 231 -19 92 125 l 92 369 b 431 708 92 564 238 708 b 756 400 657 708 756 522 l 756 311 l 200 311 b 431 83 206 175 289 83 b 644 225 561 83 619 147 l 747 197 b 428 -19 708 69 606 -19 m 647 411 b 431 606 642 531 539 606 b 203 411 308 606 217 522 "},"ě":{"ha":850,"x_min":0,"x_max":0,"o":"m 228 956 l 344 956 l 417 833 l 433 833 l 506 956 l 622 956 l 511 792 l 339 792 m 428 -19 b 92 336 231 -19 92 125 l 92 369 b 431 708 92 564 238 708 b 756 400 657 708 756 522 l 756 311 l 200 311 b 431 83 206 175 289 83 b 644 225 561 83 619 147 l 747 197 b 428 -19 708 69 606 -19 m 647 411 b 431 606 642 531 539 606 b 203 411 308 606 217 522 "},"ê":{"ha":850,"x_min":0,"x_max":0,"o":"m 339 956 l 511 956 l 622 792 l 506 792 l 433 914 l 417 914 l 344 792 l 228 792 m 428 -19 b 92 336 231 -19 92 125 l 92 369 b 431 708 92 564 238 708 b 756 400 657 708 756 522 l 756 311 l 200 311 b 431 83 206 175 289 83 b 644 225 561 83 619 147 l 747 197 b 428 -19 708 69 606 -19 m 647 411 b 431 606 642 531 539 606 b 203 411 308 606 217 522 "},"ế":{"ha":850,"x_min":0,"x_max":0,"o":"m 665 1078 l 790 1078 l 674 914 l 574 914 m 339 956 l 511 956 l 622 792 l 506 792 l 433 914 l 417 914 l 344 792 l 228 792 m 428 -19 b 92 336 231 -19 92 125 l 92 369 b 431 708 92 564 238 708 b 756 400 657 708 756 522 l 756 311 l 200 311 b 431 83 206 175 289 83 b 644 225 561 83 619 147 l 747 197 b 428 -19 708 69 606 -19 m 647 411 b 431 606 642 531 539 606 b 203 411 308 606 217 522 "},"ệ":{"ha":850,"x_min":0,"x_max":0,"o":"m 339 956 l 511 956 l 622 792 l 506 792 l 433 914 l 417 914 l 344 792 l 228 792 m 428 -19 b 92 336 231 -19 92 125 l 92 369 b 431 708 92 564 238 708 b 756 400 657 708 756 522 l 756 311 l 200 311 b 431 83 206 175 289 83 b 644 225 561 83 619 147 l 747 197 b 428 -19 708 69 606 -19 m 647 411 b 431 606 642 531 539 606 b 203 411 308 606 217 522 m 425 -283 b 328 -186 372 -283 328 -239 b 425 -89 328 -133 372 -89 b 522 -186 478 -89 522 -133 b 425 -283 522 -239 478 -283 "},"ề":{"ha":850,"x_min":0,"x_max":0,"o":"m 47 1078 l 172 1078 l 264 914 l 164 914 m 339 956 l 511 956 l 622 792 l 506 792 l 433 914 l 417 914 l 344 792 l 228 792 m 428 -19 b 92 336 231 -19 92 125 l 92 369 b 431 708 92 564 238 708 b 756 400 657 708 756 522 l 756 311 l 200 311 b 431 83 206 175 289 83 b 644 225 561 83 619 147 l 747 197 b 428 -19 708 69 606 -19 m 647 411 b 431 606 642 531 539 606 b 203 411 308 606 217 522 "},"ể":{"ha":850,"x_min":0,"x_max":0,"o":"m 563 1036 l 563 1044 l 668 1044 b 703 1025 674 1033 686 1025 b 751 1078 729 1025 751 1044 b 696 1136 751 1118 724 1136 b 629 1081 656 1136 635 1108 l 563 1106 b 697 1203 576 1161 618 1203 b 826 1076 769 1203 826 1153 b 721 958 826 1013 785 958 b 646 1003 682 958 657 975 l 638 1003 l 658 908 l 590 908 m 339 956 l 511 956 l 622 792 l 506 792 l 433 914 l 417 914 l 344 792 l 228 792 m 428 -19 b 92 336 231 -19 92 125 l 92 369 b 431 708 92 564 238 708 b 756 400 657 708 756 522 l 756 311 l 200 311 b 431 83 206 175 289 83 b 644 225 561 83 619 147 l 747 197 b 428 -19 708 69 606 -19 m 647 411 b 431 606 642 531 539 606 b 203 411 308 606 217 522 "},"ễ":{"ha":850,"x_min":0,"x_max":0,"o":"m 501 990 b 400 1056 454 990 425 1013 b 354 1103 382 1089 369 1103 b 318 1081 344 1103 335 1100 l 261 1013 l 193 1071 l 251 1139 b 360 1197 278 1171 310 1197 b 460 1131 414 1197 435 1171 b 507 1085 482 1094 493 1085 b 539 1106 517 1085 525 1089 l 599 1175 l 667 1117 l 610 1049 b 501 990 582 1015 546 990 m 339 956 l 511 956 l 622 792 l 506 792 l 433 914 l 417 914 l 344 792 l 228 792 m 428 -19 b 92 336 231 -19 92 125 l 92 369 b 431 708 92 564 238 708 b 756 400 657 708 756 522 l 756 311 l 200 311 b 431 83 206 175 289 83 b 644 225 561 83 619 147 l 747 197 b 428 -19 708 69 606 -19 m 647 411 b 431 606 642 531 539 606 b 203 411 308 606 217 522 "},"ë":{"ha":850,"x_min":0,"x_max":0,"o":"m 564 797 b 467 894 511 797 467 842 b 564 992 467 947 511 992 b 661 894 617 992 661 947 b 564 797 661 842 617 797 m 286 797 b 189 894 233 797 189 842 b 286 992 189 947 233 992 b 383 894 339 992 383 947 b 286 797 383 842 339 797 m 428 -19 b 92 336 231 -19 92 125 l 92 369 b 431 708 92 564 238 708 b 756 400 657 708 756 522 l 756 311 l 200 311 b 431 83 206 175 289 83 b 644 225 561 83 619 147 l 747 197 b 428 -19 708 69 606 -19 m 647 411 b 431 606 642 531 539 606 b 203 411 308 606 217 522 "},"ė":{"ha":850,"x_min":0,"x_max":0,"o":"m 425 797 b 328 894 372 797 328 842 b 425 992 328 947 372 992 b 522 894 478 992 522 947 b 425 797 522 842 478 797 m 428 -19 b 92 336 231 -19 92 125 l 92 369 b 431 708 92 564 238 708 b 756 400 657 708 756 522 l 756 311 l 200 311 b 431 83 206 175 289 83 b 644 225 561 83 619 147 l 747 197 b 428 -19 708 69 606 -19 m 647 411 b 431 606 642 531 539 606 b 203 411 308 606 217 522 "},"ẹ":{"ha":850,"x_min":0,"x_max":0,"o":"m 428 -19 b 92 336 231 -19 92 125 l 92 369 b 431 708 92 564 238 708 b 756 400 657 708 756 522 l 756 311 l 200 311 b 431 83 206 175 289 83 b 644 225 561 83 619 147 l 747 197 b 428 -19 708 69 606 -19 m 647 411 b 431 606 642 531 539 606 b 203 411 308 606 217 522 m 425 -283 b 328 -186 372 -283 328 -239 b 425 -89 328 -133 372 -89 b 522 -186 478 -89 522 -133 b 425 -283 522 -239 478 -283 "},"è":{"ha":850,"x_min":0,"x_max":0,"o":"m 261 956 l 386 956 l 478 792 l 378 792 m 428 -19 b 92 336 231 -19 92 125 l 92 369 b 431 708 92 564 238 708 b 756 400 657 708 756 522 l 756 311 l 200 311 b 431 83 206 175 289 83 b 644 225 561 83 619 147 l 747 197 b 428 -19 708 69 606 -19 m 647 411 b 431 606 642 531 539 606 b 203 411 308 606 217 522 "},"ẻ":{"ha":850,"x_min":0,"x_max":0,"o":"m 350 886 l 350 894 l 456 894 b 490 875 461 883 474 875 b 539 928 517 875 539 894 b 483 986 539 968 511 986 b 417 931 443 986 422 958 l 350 956 b 485 1053 364 1011 406 1053 b 614 926 557 1053 614 1003 b 508 808 614 863 572 808 b 433 853 469 808 444 825 l 425 853 l 446 758 l 378 758 m 428 -19 b 92 336 231 -19 92 125 l 92 369 b 431 708 92 564 238 708 b 756 400 657 708 756 522 l 756 311 l 200 311 b 431 83 206 175 289 83 b 644 225 561 83 619 147 l 747 197 b 428 -19 708 69 606 -19 m 647 411 b 431 606 642 531 539 606 b 203 411 308 606 217 522 "},"ē":{"ha":850,"x_min":0,"x_max":0,"o":"m 243 883 l 607 883 l 607 792 l 243 792 m 428 -19 b 92 336 231 -19 92 125 l 92 369 b 431 708 92 564 238 708 b 756 400 657 708 756 522 l 756 311 l 200 311 b 431 83 206 175 289 83 b 644 225 561 83 619 147 l 747 197 b 428 -19 708 69 606 -19 m 647 411 b 431 606 642 531 539 606 b 203 411 308 606 217 522 "},"ę":{"ha":850,"x_min":0,"x_max":0,"o":"m 464 -228 b 356 -125 410 -228 356 -193 b 360 -92 356 -115 357 -106 l 376 -17 b 90 336 206 6 90 143 l 90 369 b 429 708 90 564 236 708 b 754 400 656 708 754 522 l 754 311 l 199 311 b 429 83 204 175 288 83 b 643 225 560 83 618 147 l 746 197 b 471 -17 710 81 621 -3 l 453 -94 b 451 -106 451 -101 451 -104 b 483 -136 451 -125 464 -136 l 542 -136 l 542 -228 l 464 -228 m 646 411 b 429 606 640 531 538 606 b 201 411 307 606 215 522 "},"ɘ":{"ha":850,"x_min":0,"x_max":0,"o":"m 422 -19 b 103 197 244 -19 142 69 l 206 225 b 419 83 231 147 289 83 b 650 311 561 83 644 175 l 94 311 l 94 400 b 419 708 94 522 193 708 b 758 369 613 708 758 564 l 758 336 b 422 -19 758 125 619 -19 m 647 411 b 419 606 633 522 542 606 b 203 411 311 606 208 531 "},"ẽ":{"ha":850,"x_min":0,"x_max":0,"o":"m 496 765 b 394 831 449 765 419 788 b 349 878 376 864 364 878 b 313 856 339 878 329 875 l 256 788 l 188 846 l 246 914 b 354 972 272 946 304 972 b 454 906 408 972 429 946 b 501 860 476 869 488 860 b 533 881 511 860 519 864 l 593 950 l 661 892 l 604 824 b 496 765 576 790 540 765 m 428 -19 b 92 336 231 -19 92 125 l 92 369 b 431 708 92 564 238 708 b 756 400 657 708 756 522 l 756 311 l 200 311 b 431 83 206 175 289 83 b 644 225 561 83 619 147 l 747 197 b 428 -19 708 69 606 -19 m 647 411 b 431 606 642 531 539 606 b 203 411 308 606 217 522 "},"ə":{"ha":850,"x_min":0,"x_max":0,"o":"m 417 -19 b 92 297 188 -19 92 167 l 92 378 l 647 378 b 415 606 642 514 554 606 b 204 461 293 606 233 533 l 107 503 b 417 708 163 631 265 708 b 756 356 611 708 756 572 l 756 322 b 417 -19 756 128 613 -19 m 417 83 b 644 278 539 83 631 167 l 200 278 b 417 83 206 158 308 83 "},"f":{"ha":850,"x_min":0,"x_max":0,"o":"m 326 589 l 114 589 l 114 689 l 326 689 l 326 864 b 433 972 326 926 371 972 l 706 972 l 706 872 l 472 872 b 435 831 446 872 435 857 l 435 689 l 722 689 l 722 589 l 435 589 l 435 0 l 326 0 "},"g":{"ha":850,"x_min":0,"x_max":0,"o":"m 197 -178 l 607 -178 b 644 -136 633 -178 644 -162 l 644 106 l 628 106 b 411 -19 583 22 501 -19 b 72 333 228 -19 72 107 l 72 356 b 408 708 72 579 231 708 b 628 581 508 708 586 664 l 644 581 l 644 689 l 753 689 l 753 -169 b 646 -278 753 -232 708 -278 l 197 -278 m 414 83 b 644 336 543 83 644 183 l 644 353 b 414 606 644 500 542 606 b 183 356 283 606 183 504 l 183 333 b 414 83 183 179 282 83 "},"ğ":{"ha":850,"x_min":0,"x_max":0,"o":"m 410 792 b 260 942 318 792 260 853 l 260 956 l 356 956 l 356 939 b 410 885 356 910 375 885 b 464 939 444 885 464 910 l 464 956 l 560 956 l 560 942 b 410 792 560 853 501 792 m 197 -178 l 607 -178 b 644 -136 633 -178 644 -162 l 644 106 l 628 106 b 411 -19 583 22 501 -19 b 72 333 228 -19 72 107 l 72 356 b 408 708 72 579 231 708 b 628 581 508 708 586 664 l 644 581 l 644 689 l 753 689 l 753 -169 b 646 -278 753 -232 708 -278 l 197 -278 m 414 83 b 644 336 543 83 644 183 l 644 353 b 414 606 644 500 542 606 b 183 356 283 606 183 504 l 183 333 b 414 83 183 179 282 83 "},"ǧ":{"ha":850,"x_min":0,"x_max":0,"o":"m 213 956 l 329 956 l 401 833 l 418 833 l 490 956 l 607 956 l 496 792 l 324 792 m 197 -178 l 607 -178 b 644 -136 633 -178 644 -162 l 644 106 l 628 106 b 411 -19 583 22 501 -19 b 72 333 228 -19 72 107 l 72 356 b 408 708 72 579 231 708 b 628 581 508 708 586 664 l 644 581 l 644 689 l 753 689 l 753 -169 b 646 -278 753 -232 708 -278 l 197 -278 m 414 83 b 644 336 543 83 644 183 l 644 353 b 414 606 644 500 542 606 b 183 356 283 606 183 504 l 183 333 b 414 83 183 179 282 83 "},"ĝ":{"ha":850,"x_min":0,"x_max":0,"o":"m 324 956 l 496 956 l 607 792 l 490 792 l 418 914 l 401 914 l 329 792 l 213 792 m 197 -178 l 607 -178 b 644 -136 633 -178 644 -162 l 644 106 l 628 106 b 411 -19 583 22 501 -19 b 72 333 228 -19 72 107 l 72 356 b 408 708 72 579 231 708 b 628 581 508 708 586 664 l 644 581 l 644 689 l 753 689 l 753 -169 b 646 -278 753 -232 708 -278 l 197 -278 m 414 83 b 644 336 543 83 644 183 l 644 353 b 414 606 644 500 542 606 b 183 356 283 606 183 504 l 183 333 b 414 83 183 179 282 83 "},"ģ":{"ha":850,"x_min":0,"x_max":0,"o":"m 410 797 b 313 894 357 797 313 842 l 313 1031 b 419 1139 313 1093 357 1139 l 490 1139 l 490 1064 l 425 1064 b 388 1022 399 1064 388 1049 l 388 988 b 411 992 394 990 403 992 b 507 894 463 992 507 947 b 410 797 507 842 463 797 m 197 -178 l 607 -178 b 644 -136 633 -178 644 -162 l 644 106 l 628 106 b 411 -19 583 22 501 -19 b 72 333 228 -19 72 107 l 72 356 b 408 708 72 579 231 708 b 628 581 508 708 586 664 l 644 581 l 644 689 l 753 689 l 753 -169 b 646 -278 753 -232 708 -278 l 197 -278 m 414 83 b 644 336 543 83 644 183 l 644 353 b 414 606 644 500 542 606 b 183 356 283 606 183 504 l 183 333 b 414 83 183 179 282 83 "},"ġ":{"ha":850,"x_min":0,"x_max":0,"o":"m 410 797 b 313 894 357 797 313 842 b 410 992 313 947 357 992 b 507 894 463 992 507 947 b 410 797 507 842 463 797 m 197 -178 l 607 -178 b 644 -136 633 -178 644 -162 l 644 106 l 628 106 b 411 -19 583 22 501 -19 b 72 333 228 -19 72 107 l 72 356 b 408 708 72 579 231 708 b 628 581 508 708 586 664 l 644 581 l 644 689 l 753 689 l 753 -169 b 646 -278 753 -232 708 -278 l 197 -278 m 414 83 b 644 336 543 83 644 183 l 644 353 b 414 606 644 500 542 606 b 183 356 283 606 183 504 l 183 333 b 414 83 183 179 282 83 "},"ḡ":{"ha":850,"x_min":0,"x_max":0,"o":"m 228 883 l 592 883 l 592 792 l 228 792 m 197 -178 l 607 -178 b 644 -136 633 -178 644 -162 l 644 106 l 628 106 b 411 -19 583 22 501 -19 b 72 333 228 -19 72 107 l 72 356 b 408 708 72 579 231 708 b 628 581 508 708 586 664 l 644 581 l 644 689 l 753 689 l 753 -169 b 646 -278 753 -232 708 -278 l 197 -278 m 414 83 b 644 336 543 83 644 183 l 644 353 b 414 606 644 500 542 606 b 183 356 283 606 183 504 l 183 333 b 414 83 183 179 282 83 "},"ɡ":{"ha":850,"x_min":0,"x_max":0,"o":"m 197 -178 l 607 -178 b 644 -136 633 -178 644 -162 l 644 106 l 628 106 b 411 -19 583 22 501 -19 b 72 333 228 -19 72 107 l 72 356 b 408 708 72 579 231 708 b 628 581 508 708 586 664 l 644 581 l 644 689 l 753 689 l 753 -169 b 646 -278 753 -232 708 -278 l 197 -278 m 414 83 b 644 336 543 83 644 183 l 644 353 b 414 606 644 500 542 606 b 183 356 283 606 183 504 l 183 333 b 414 83 183 179 282 83 "},"h":{"ha":850,"x_min":0,"x_max":0,"o":"m 121 972 l 229 972 l 229 564 l 246 564 b 476 708 288 653 365 708 b 729 411 626 708 729 608 l 729 0 l 621 0 l 621 389 b 440 606 621 533 551 606 b 229 358 310 606 229 508 l 229 0 l 121 0 "},"ħ":{"ha":850,"x_min":0,"x_max":0,"o":"m 121 781 l 38 781 l 38 881 l 121 881 l 121 972 l 229 972 l 229 881 l 476 881 l 476 781 l 229 781 l 229 564 l 246 564 b 476 708 288 653 365 708 b 729 411 626 708 729 608 l 729 0 l 621 0 l 621 389 b 440 606 621 533 551 606 b 229 358 310 606 229 508 l 229 0 l 121 0 "},"ḫ":{"ha":850,"x_min":0,"x_max":0,"o":"m 121 972 l 229 972 l 229 564 l 246 564 b 476 708 288 653 365 708 b 729 411 626 708 729 608 l 729 0 l 621 0 l 621 389 b 440 606 621 533 551 606 b 229 358 310 606 229 508 l 229 0 l 121 0 m 425 -253 b 275 -103 333 -253 275 -192 l 275 -89 l 371 -89 l 371 -106 b 425 -160 371 -135 390 -160 b 479 -106 460 -160 479 -135 l 479 -89 l 575 -89 l 575 -103 b 425 -253 575 -192 517 -253 "},"ĥ":{"ha":850,"x_min":0,"x_max":0,"o":"m 228 1239 l 400 1239 l 511 1075 l 394 1075 l 322 1197 l 306 1197 l 233 1075 l 117 1075 m 121 972 l 229 972 l 229 564 l 246 564 b 476 708 288 653 365 708 b 729 411 626 708 729 608 l 729 0 l 621 0 l 621 389 b 440 606 621 533 551 606 b 229 358 310 606 229 508 l 229 0 l 121 0 "},"ḥ":{"ha":850,"x_min":0,"x_max":0,"o":"m 121 972 l 229 972 l 229 564 l 246 564 b 476 708 288 653 365 708 b 729 411 626 708 729 608 l 729 0 l 621 0 l 621 389 b 440 606 621 533 551 606 b 229 358 310 606 229 508 l 229 0 l 121 0 m 425 -283 b 328 -186 372 -283 328 -239 b 425 -89 328 -133 372 -89 b 522 -186 478 -89 522 -133 b 425 -283 522 -239 478 -283 "},"ɥ":{"ha":850,"x_min":0,"x_max":0,"o":"m 619 125 l 603 125 b 372 -19 561 36 483 -19 b 119 278 222 -19 119 81 l 119 689 l 228 689 l 228 300 b 408 83 228 156 297 83 b 619 331 539 83 619 181 l 619 689 l 728 689 l 728 -278 l 619 -278 "},"i":{"ha":850,"x_min":0,"x_max":0,"o":"m 432 797 b 335 894 379 797 335 842 b 432 992 335 947 379 992 b 529 894 485 992 529 947 b 432 797 529 842 485 797 m 138 100 l 379 100 l 379 589 l 163 589 l 163 689 l 488 689 l 488 100 l 713 100 l 713 0 l 138 0 "},"ı":{"ha":850,"x_min":0,"x_max":0,"o":"m 138 100 l 379 100 l 379 589 l 163 589 l 163 689 l 488 689 l 488 100 l 713 100 l 713 0 l 138 0 "},"í":{"ha":850,"x_min":0,"x_max":0,"o":"m 453 956 l 578 956 l 461 792 l 361 792 m 138 100 l 379 100 l 379 589 l 163 589 l 163 689 l 488 689 l 488 100 l 713 100 l 713 0 l 138 0 "},"ĭ":{"ha":850,"x_min":0,"x_max":0,"o":"m 401 792 b 251 942 310 792 251 853 l 251 956 l 347 956 l 347 939 b 401 885 347 910 367 885 b 456 939 436 885 456 910 l 456 956 l 551 956 l 551 942 b 401 792 551 853 493 792 m 138 100 l 379 100 l 379 589 l 163 589 l 163 689 l 488 689 l 488 100 l 713 100 l 713 0 l 138 0 "},"ǐ":{"ha":850,"x_min":0,"x_max":0,"o":"m 204 956 l 321 956 l 393 833 l 410 833 l 482 956 l 599 956 l 488 792 l 315 792 m 138 100 l 379 100 l 379 589 l 163 589 l 163 689 l 488 689 l 488 100 l 713 100 l 713 0 l 138 0 "},"î":{"ha":850,"x_min":0,"x_max":0,"o":"m 315 956 l 488 956 l 599 792 l 482 792 l 410 914 l 393 914 l 321 792 l 204 792 m 138 100 l 379 100 l 379 589 l 163 589 l 163 689 l 488 689 l 488 100 l 713 100 l 713 0 l 138 0 "},"ï":{"ha":850,"x_min":0,"x_max":0,"o":"m 540 797 b 443 894 488 797 443 842 b 540 992 443 947 488 992 b 638 894 593 992 638 947 b 540 797 638 842 593 797 m 263 797 b 165 894 210 797 165 842 b 263 992 165 947 210 992 b 360 894 315 992 360 947 b 263 797 360 842 315 797 m 138 100 l 379 100 l 379 589 l 163 589 l 163 689 l 488 689 l 488 100 l 713 100 l 713 0 l 138 0 "},"ị":{"ha":850,"x_min":0,"x_max":0,"o":"m 432 797 b 335 894 379 797 335 842 b 432 992 335 947 379 992 b 529 894 485 992 529 947 b 432 797 529 842 485 797 m 138 100 l 379 100 l 379 589 l 163 589 l 163 689 l 488 689 l 488 100 l 713 100 l 713 0 l 138 0 m 425 -283 b 328 -186 372 -283 328 -239 b 425 -89 328 -133 372 -89 b 522 -186 478 -89 522 -133 b 425 -283 522 -239 478 -283 "},"ì":{"ha":850,"x_min":0,"x_max":0,"o":"m 238 956 l 363 956 l 454 792 l 354 792 m 138 100 l 379 100 l 379 589 l 163 589 l 163 689 l 488 689 l 488 100 l 713 100 l 713 0 l 138 0 "},"ỉ":{"ha":850,"x_min":0,"x_max":0,"o":"m 326 886 l 326 894 l 432 894 b 467 875 438 883 450 875 b 515 928 493 875 515 894 b 460 986 515 968 488 986 b 393 931 419 986 399 958 l 326 956 b 461 1053 340 1011 382 1053 b 590 926 533 1053 590 1003 b 485 808 590 863 549 808 b 410 853 446 808 421 825 l 401 853 l 422 758 l 354 758 m 138 100 l 379 100 l 379 589 l 163 589 l 163 689 l 488 689 l 488 100 l 713 100 l 713 0 l 138 0 "},"ī":{"ha":850,"x_min":0,"x_max":0,"o":"m 150 883 l 514 883 l 514 792 l 150 792 m 138 100 l 379 100 l 379 589 l 163 589 l 163 689 l 488 689 l 488 100 l 713 100 l 713 0 l 138 0 "},"į":{"ha":850,"x_min":0,"x_max":0,"o":"m 432 797 b 335 894 379 797 335 842 b 432 992 335 947 379 992 b 529 894 485 992 529 947 b 432 797 529 842 485 797 m 701 -228 b 593 -125 646 -228 593 -193 b 597 -92 593 -115 594 -106 l 617 0 l 138 0 l 138 100 l 379 100 l 379 589 l 163 589 l 163 689 l 488 689 l 488 100 l 713 100 l 713 0 l 690 -94 b 689 -106 689 -101 689 -104 b 721 -136 689 -125 701 -136 l 779 -136 l 779 -228 l 701 -228 "},"ĩ":{"ha":850,"x_min":0,"x_max":0,"o":"m 472 765 b 371 831 425 765 396 788 b 325 878 353 864 340 878 b 289 856 315 878 306 875 l 232 788 l 164 846 l 222 914 b 331 972 249 946 281 972 b 431 906 385 972 406 946 b 478 860 453 869 464 860 b 510 881 488 860 496 864 l 569 950 l 638 892 l 581 824 b 472 765 553 790 517 765 m 138 100 l 379 100 l 379 589 l 163 589 l 163 689 l 488 689 l 488 100 l 713 100 l 713 0 l 138 0 "},"ĳ":{"ha":850,"x_min":0,"x_max":0,"o":"m 175 797 b 78 894 122 797 78 842 b 175 992 78 947 122 992 b 272 894 228 992 272 947 b 175 797 272 842 228 797 m 675 797 b 578 894 622 797 578 842 b 675 992 578 947 622 992 b 772 894 728 992 772 947 b 675 797 772 842 728 797 m 313 -178 l 583 -178 b 621 -136 610 -178 621 -162 l 621 125 l 604 125 b 379 -19 560 36 490 -19 b 121 278 226 -19 121 81 l 121 689 l 229 689 l 229 292 b 410 83 229 147 288 83 b 621 331 540 83 621 181 l 621 689 l 729 689 l 729 -169 b 622 -278 729 -232 685 -278 l 313 -278 "},"j":{"ha":850,"x_min":0,"x_max":0,"o":"m 524 797 b 426 894 471 797 426 842 b 524 992 426 947 471 992 b 621 894 576 992 621 947 b 524 797 621 842 576 797 m 163 -178 l 433 -178 b 471 -136 460 -178 471 -162 l 471 589 l 196 589 l 196 689 l 579 689 l 579 -169 b 472 -278 579 -232 535 -278 l 163 -278 "},"ȷ":{"ha":850,"x_min":0,"x_max":0,"o":"m 163 -178 l 433 -178 b 471 -136 460 -178 471 -162 l 471 589 l 196 589 l 196 689 l 579 689 l 579 -169 b 472 -278 579 -232 535 -278 l 163 -278 "},"ĵ":{"ha":850,"x_min":0,"x_max":0,"o":"m 339 956 l 511 956 l 622 792 l 506 792 l 433 914 l 417 914 l 344 792 l 228 792 m 163 -178 l 433 -178 b 471 -136 460 -178 471 -162 l 471 589 l 196 589 l 196 689 l 579 689 l 579 -169 b 472 -278 579 -232 535 -278 l 163 -278 "},"k":{"ha":850,"x_min":0,"x_max":0,"o":"m 190 972 l 299 972 l 299 403 l 322 403 l 585 689 l 718 689 l 718 681 l 432 365 l 432 340 l 751 8 l 751 0 l 618 0 l 325 303 l 299 303 l 299 0 l 190 0 "},"ķ":{"ha":850,"x_min":0,"x_max":0,"o":"m 190 972 l 299 972 l 299 403 l 322 403 l 585 689 l 718 689 l 718 681 l 432 365 l 432 340 l 751 8 l 751 0 l 618 0 l 325 303 l 299 303 l 299 0 l 190 0 m 344 -331 l 410 -331 b 447 -289 436 -331 447 -315 l 447 -254 b 424 -258 440 -257 432 -258 b 328 -161 372 -258 328 -214 b 425 -64 328 -108 372 -64 b 522 -161 478 -64 522 -108 l 522 -297 b 415 -406 522 -360 478 -406 l 344 -406 "},"ĸ":{"ha":850,"x_min":0,"x_max":0,"o":"m 190 689 l 299 689 l 299 403 l 322 403 l 585 689 l 718 689 l 718 681 l 432 365 l 432 340 l 751 8 l 751 0 l 618 0 l 325 303 l 299 303 l 299 0 l 190 0 "},"ʞ":{"ha":850,"x_min":0,"x_max":0,"o":"m 551 286 l 528 286 l 265 0 l 132 0 l 132 8 l 418 324 l 418 349 l 99 681 l 99 689 l 232 689 l 525 386 l 551 386 l 551 689 l 660 689 l 660 -278 l 551 -278 "},"l":{"ha":850,"x_min":0,"x_max":0,"o":"m 121 100 l 371 100 l 371 872 l 129 872 l 129 972 l 479 972 l 479 100 l 729 100 l 729 0 l 121 0 "},"ĺ":{"ha":850,"x_min":0,"x_max":0,"o":"m 463 1239 l 588 1239 l 471 1075 l 371 1075 m 121 100 l 371 100 l 371 872 l 129 872 l 129 972 l 479 972 l 479 100 l 729 100 l 729 0 l 121 0 "},"ľ":{"ha":850,"x_min":0,"x_max":0,"o":"m 121 100 l 371 100 l 371 872 l 129 872 l 129 972 l 479 972 l 479 100 l 729 100 l 729 0 l 121 0 m 553 706 l 618 706 b 656 747 644 706 656 721 l 656 782 b 632 778 649 779 640 778 b 536 875 581 778 536 822 b 633 972 536 928 581 972 b 731 875 686 972 731 928 l 731 739 b 624 631 731 676 686 631 l 553 631 "},"ļ":{"ha":850,"x_min":0,"x_max":0,"o":"m 121 100 l 371 100 l 371 872 l 129 872 l 129 972 l 479 972 l 479 100 l 729 100 l 729 0 l 121 0 m 344 -331 l 410 -331 b 447 -289 436 -331 447 -315 l 447 -254 b 424 -258 440 -257 432 -258 b 328 -161 372 -258 328 -214 b 425 -64 328 -108 372 -64 b 522 -161 478 -64 522 -108 l 522 -297 b 415 -406 522 -360 478 -406 l 344 -406 "},"ḷ":{"ha":850,"x_min":0,"x_max":0,"o":"m 121 100 l 371 100 l 371 872 l 129 872 l 129 972 l 479 972 l 479 100 l 729 100 l 729 0 l 121 0 m 425 -283 b 328 -186 372 -283 328 -239 b 425 -89 328 -133 372 -89 b 522 -186 478 -89 522 -133 b 425 -283 522 -239 478 -283 "},"ḹ":{"ha":850,"x_min":0,"x_max":0,"o":"m 129 1167 l 479 1167 l 479 1075 l 129 1075 m 121 100 l 371 100 l 371 872 l 129 872 l 129 972 l 479 972 l 479 100 l 729 100 l 729 0 l 121 0 m 425 -283 b 328 -186 372 -283 328 -239 b 425 -89 328 -133 372 -89 b 522 -186 478 -89 522 -133 b 425 -283 522 -239 478 -283 "},"ḻ":{"ha":850,"x_min":0,"x_max":0,"o":"m 121 100 l 371 100 l 371 872 l 129 872 l 129 972 l 479 972 l 479 100 l 729 100 l 729 0 l 121 0 m 229 -89 l 621 -89 l 621 -181 l 229 -181 "},"ł":{"ha":850,"x_min":0,"x_max":0,"o":"m 121 100 l 371 100 l 371 382 l 283 338 l 235 432 l 371 500 l 371 872 l 129 872 l 129 972 l 479 972 l 479 556 l 569 601 l 617 508 l 479 438 l 479 100 l 729 100 l 729 0 l 121 0 "},"m":{"ha":850,"x_min":0,"x_max":0,"o":"m 67 689 l 175 689 l 175 614 l 192 614 b 326 708 215 678 264 708 b 454 614 393 708 438 669 l 471 614 b 621 708 501 675 551 708 b 783 531 724 708 783 636 l 783 0 l 675 0 l 675 494 b 582 606 675 558 646 606 b 479 467 521 606 479 560 l 479 0 l 371 0 l 371 500 b 279 606 371 561 335 606 b 175 475 213 606 175 553 l 175 0 l 67 0 "},"ṃ":{"ha":850,"x_min":0,"x_max":0,"o":"m 67 689 l 175 689 l 175 614 l 192 614 b 326 708 215 678 264 708 b 454 614 393 708 438 669 l 471 614 b 621 708 501 675 551 708 b 783 531 724 708 783 636 l 783 0 l 675 0 l 675 494 b 582 606 675 558 646 606 b 479 467 521 606 479 560 l 479 0 l 371 0 l 371 500 b 279 606 371 561 335 606 b 175 475 213 606 175 553 l 175 0 l 67 0 m 425 -283 b 328 -186 372 -283 328 -239 b 425 -89 328 -133 372 -89 b 522 -186 478 -89 522 -133 b 425 -283 522 -239 478 -283 "},"ɯ":{"ha":850,"x_min":0,"x_max":0,"o":"m 783 0 l 675 0 l 675 75 l 658 75 b 524 -19 635 11 586 -19 b 396 75 457 -19 413 19 l 379 75 b 229 -19 349 14 299 -19 b 67 158 126 -19 67 53 l 67 689 l 175 689 l 175 194 b 268 83 175 131 204 83 b 371 222 329 83 371 129 l 371 689 l 479 689 l 479 189 b 571 83 479 128 515 83 b 675 214 638 83 675 136 l 675 689 l 783 689 "},"n":{"ha":850,"x_min":0,"x_max":0,"o":"m 121 689 l 229 689 l 229 572 l 246 572 b 468 708 288 661 363 708 b 729 411 626 708 729 608 l 729 0 l 621 0 l 621 389 b 440 606 621 533 551 606 b 229 358 310 606 229 508 l 229 0 l 121 0 "},"ń":{"ha":850,"x_min":0,"x_max":0,"o":"m 504 956 l 629 956 l 513 792 l 413 792 m 121 689 l 229 689 l 229 572 l 246 572 b 468 708 288 661 363 708 b 729 411 626 708 729 608 l 729 0 l 621 0 l 621 389 b 440 606 621 533 551 606 b 229 358 310 606 229 508 l 229 0 l 121 0 "},"ŉ":{"ha":850,"x_min":0,"x_max":0,"o":"m 119 872 l 185 872 b 222 914 211 872 222 888 l 222 949 b 199 944 215 946 207 944 b 103 1042 147 944 103 989 b 200 1139 103 1094 147 1139 b 297 1042 253 1139 297 1094 l 297 906 b 190 797 297 843 253 797 l 119 797 m 121 689 l 229 689 l 229 572 l 246 572 b 468 708 288 661 363 708 b 729 411 626 708 729 608 l 729 0 l 621 0 l 621 389 b 440 606 621 533 551 606 b 229 358 310 606 229 508 l 229 0 l 121 0 "},"ň":{"ha":850,"x_min":0,"x_max":0,"o":"m 256 956 l 372 956 l 444 833 l 461 833 l 533 956 l 650 956 l 539 792 l 367 792 m 121 689 l 229 689 l 229 572 l 246 572 b 468 708 288 661 363 708 b 729 411 626 708 729 608 l 729 0 l 621 0 l 621 389 b 440 606 621 533 551 606 b 229 358 310 606 229 508 l 229 0 l 121 0 "},"ņ":{"ha":850,"x_min":0,"x_max":0,"o":"m 121 689 l 229 689 l 229 572 l 246 572 b 468 708 288 661 363 708 b 729 411 626 708 729 608 l 729 0 l 621 0 l 621 389 b 440 606 621 533 551 606 b 229 358 310 606 229 508 l 229 0 l 121 0 m 344 -331 l 410 -331 b 447 -289 436 -331 447 -315 l 447 -254 b 424 -258 440 -257 432 -258 b 328 -161 372 -258 328 -214 b 425 -64 328 -108 372 -64 b 522 -161 478 -64 522 -108 l 522 -297 b 415 -406 522 -360 478 -406 l 344 -406 "},"ṅ":{"ha":850,"x_min":0,"x_max":0,"o":"m 453 797 b 356 894 400 797 356 842 b 453 992 356 947 400 992 b 550 894 506 992 550 947 b 453 797 550 842 506 797 m 121 689 l 229 689 l 229 572 l 246 572 b 468 708 288 661 363 708 b 729 411 626 708 729 608 l 729 0 l 621 0 l 621 389 b 440 606 621 533 551 606 b 229 358 310 606 229 508 l 229 0 l 121 0 "},"ṇ":{"ha":850,"x_min":0,"x_max":0,"o":"m 121 689 l 229 689 l 229 572 l 246 572 b 468 708 288 661 363 708 b 729 411 626 708 729 608 l 729 0 l 621 0 l 621 389 b 440 606 621 533 551 606 b 229 358 310 606 229 508 l 229 0 l 121 0 m 425 -283 b 328 -186 372 -283 328 -239 b 425 -89 328 -133 372 -89 b 522 -186 478 -89 522 -133 b 425 -283 522 -239 478 -283 "},"ṉ":{"ha":850,"x_min":0,"x_max":0,"o":"m 121 689 l 229 689 l 229 572 l 246 572 b 468 708 288 661 363 708 b 729 411 626 708 729 608 l 729 0 l 621 0 l 621 389 b 440 606 621 533 551 606 b 229 358 310 606 229 508 l 229 0 l 121 0 m 229 -89 l 621 -89 l 621 -181 l 229 -181 "},"ñ":{"ha":850,"x_min":0,"x_max":0,"o":"m 524 765 b 422 831 476 765 447 788 b 376 878 404 864 392 878 b 340 856 367 878 357 875 l 283 788 l 215 846 l 274 914 b 382 972 300 946 332 972 b 482 906 436 972 457 946 b 529 860 504 869 515 860 b 561 881 539 860 547 864 l 621 950 l 689 892 l 632 824 b 524 765 604 790 568 765 m 121 689 l 229 689 l 229 572 l 246 572 b 468 708 288 661 363 708 b 729 411 626 708 729 608 l 729 0 l 621 0 l 621 389 b 440 606 621 533 551 606 b 229 358 310 606 229 508 l 229 0 l 121 0 "},"ŋ":{"ha":850,"x_min":0,"x_max":0,"o":"m 440 -178 l 583 -178 b 621 -136 610 -178 621 -162 l 621 389 b 440 606 621 533 551 606 b 229 358 310 606 229 508 l 229 0 l 121 0 l 121 689 l 229 689 l 229 572 l 246 572 b 468 708 288 661 363 708 b 729 411 626 708 729 608 l 729 -169 b 622 -278 729 -232 685 -278 l 440 -278 "},"o":{"ha":850,"x_min":0,"x_max":0,"o":"m 425 -19 b 79 336 242 -19 79 108 l 79 353 b 425 708 79 578 243 708 b 771 353 607 708 771 578 l 771 336 b 425 -19 771 108 608 -19 m 425 83 b 660 336 557 83 660 181 l 660 353 b 425 606 660 503 556 606 b 190 353 294 606 190 503 l 190 336 b 425 83 190 181 293 83 "},"ó":{"ha":850,"x_min":0,"x_max":0,"o":"m 476 956 l 601 956 l 485 792 l 385 792 m 425 -19 b 79 336 242 -19 79 108 l 79 353 b 425 708 79 578 243 708 b 771 353 607 708 771 578 l 771 336 b 425 -19 771 108 608 -19 m 425 83 b 660 336 557 83 660 181 l 660 353 b 425 606 660 503 556 606 b 190 353 294 606 190 503 l 190 336 b 425 83 190 181 293 83 "},"ŏ":{"ha":850,"x_min":0,"x_max":0,"o":"m 425 792 b 275 942 333 792 275 853 l 275 956 l 371 956 l 371 939 b 425 885 371 910 390 885 b 479 939 460 885 479 910 l 479 956 l 575 956 l 575 942 b 425 792 575 853 517 792 m 425 -19 b 79 336 242 -19 79 108 l 79 353 b 425 708 79 578 243 708 b 771 353 607 708 771 578 l 771 336 b 425 -19 771 108 608 -19 m 425 83 b 660 336 557 83 660 181 l 660 353 b 425 606 660 503 556 606 b 190 353 294 606 190 503 l 190 336 b 425 83 190 181 293 83 "},"ǒ":{"ha":850,"x_min":0,"x_max":0,"o":"m 228 956 l 344 956 l 417 833 l 433 833 l 506 956 l 622 956 l 511 792 l 339 792 m 425 -19 b 79 336 242 -19 79 108 l 79 353 b 425 708 79 578 243 708 b 771 353 607 708 771 578 l 771 336 b 425 -19 771 108 608 -19 m 425 83 b 660 336 557 83 660 181 l 660 353 b 425 606 660 503 556 606 b 190 353 294 606 190 503 l 190 336 b 425 83 190 181 293 83 "},"ô":{"ha":850,"x_min":0,"x_max":0,"o":"m 339 956 l 511 956 l 622 792 l 506 792 l 433 914 l 417 914 l 344 792 l 228 792 m 425 -19 b 79 336 242 -19 79 108 l 79 353 b 425 708 79 578 243 708 b 771 353 607 708 771 578 l 771 336 b 425 -19 771 108 608 -19 m 425 83 b 660 336 557 83 660 181 l 660 353 b 425 606 660 503 556 606 b 190 353 294 606 190 503 l 190 336 b 425 83 190 181 293 83 "},"ố":{"ha":850,"x_min":0,"x_max":0,"o":"m 665 1078 l 790 1078 l 674 914 l 574 914 m 339 956 l 511 956 l 622 792 l 506 792 l 433 914 l 417 914 l 344 792 l 228 792 m 425 -19 b 79 336 242 -19 79 108 l 79 353 b 425 708 79 578 243 708 b 771 353 607 708 771 578 l 771 336 b 425 -19 771 108 608 -19 m 425 83 b 660 336 557 83 660 181 l 660 353 b 425 606 660 503 556 606 b 190 353 294 606 190 503 l 190 336 b 425 83 190 181 293 83 "},"ộ":{"ha":850,"x_min":0,"x_max":0,"o":"m 339 956 l 511 956 l 622 792 l 506 792 l 433 914 l 417 914 l 344 792 l 228 792 m 425 -19 b 79 336 242 -19 79 108 l 79 353 b 425 708 79 578 243 708 b 771 353 607 708 771 578 l 771 336 b 425 -19 771 108 608 -19 m 425 83 b 660 336 557 83 660 181 l 660 353 b 425 606 660 503 556 606 b 190 353 294 606 190 503 l 190 336 b 425 83 190 181 293 83 m 425 -283 b 328 -186 372 -283 328 -239 b 425 -89 328 -133 372 -89 b 522 -186 478 -89 522 -133 b 425 -283 522 -239 478 -283 "},"ồ":{"ha":850,"x_min":0,"x_max":0,"o":"m 47 1078 l 172 1078 l 264 914 l 164 914 m 339 956 l 511 956 l 622 792 l 506 792 l 433 914 l 417 914 l 344 792 l 228 792 m 425 -19 b 79 336 242 -19 79 108 l 79 353 b 425 708 79 578 243 708 b 771 353 607 708 771 578 l 771 336 b 425 -19 771 108 608 -19 m 425 83 b 660 336 557 83 660 181 l 660 353 b 425 606 660 503 556 606 b 190 353 294 606 190 503 l 190 336 b 425 83 190 181 293 83 "},"ổ":{"ha":850,"x_min":0,"x_max":0,"o":"m 563 1036 l 563 1044 l 668 1044 b 703 1025 674 1033 686 1025 b 751 1078 729 1025 751 1044 b 696 1136 751 1118 724 1136 b 629 1081 656 1136 635 1108 l 563 1106 b 697 1203 576 1161 618 1203 b 826 1076 769 1203 826 1153 b 721 958 826 1013 785 958 b 646 1003 682 958 657 975 l 638 1003 l 658 908 l 590 908 m 339 956 l 511 956 l 622 792 l 506 792 l 433 914 l 417 914 l 344 792 l 228 792 m 425 -19 b 79 336 242 -19 79 108 l 79 353 b 425 708 79 578 243 708 b 771 353 607 708 771 578 l 771 336 b 425 -19 771 108 608 -19 m 425 83 b 660 336 557 83 660 181 l 660 353 b 425 606 660 503 556 606 b 190 353 294 606 190 503 l 190 336 b 425 83 190 181 293 83 "},"ỗ":{"ha":850,"x_min":0,"x_max":0,"o":"m 501 990 b 400 1056 454 990 425 1013 b 354 1103 382 1089 369 1103 b 318 1081 344 1103 335 1100 l 261 1013 l 193 1071 l 251 1139 b 360 1197 278 1171 310 1197 b 460 1131 414 1197 435 1171 b 507 1085 482 1094 493 1085 b 539 1106 517 1085 525 1089 l 599 1175 l 667 1117 l 610 1049 b 501 990 582 1015 546 990 m 339 956 l 511 956 l 622 792 l 506 792 l 433 914 l 417 914 l 344 792 l 228 792 m 425 -19 b 79 336 242 -19 79 108 l 79 353 b 425 708 79 578 243 708 b 771 353 607 708 771 578 l 771 336 b 425 -19 771 108 608 -19 m 425 83 b 660 336 557 83 660 181 l 660 353 b 425 606 660 503 556 606 b 190 353 294 606 190 503 l 190 336 b 425 83 190 181 293 83 "},"ö":{"ha":850,"x_min":0,"x_max":0,"o":"m 564 797 b 467 894 511 797 467 842 b 564 992 467 947 511 992 b 661 894 617 992 661 947 b 564 797 661 842 617 797 m 286 797 b 189 894 233 797 189 842 b 286 992 189 947 233 992 b 383 894 339 992 383 947 b 286 797 383 842 339 797 m 425 -19 b 79 336 242 -19 79 108 l 79 353 b 425 708 79 578 243 708 b 771 353 607 708 771 578 l 771 336 b 425 -19 771 108 608 -19 m 425 83 b 660 336 557 83 660 181 l 660 353 b 425 606 660 503 556 606 b 190 353 294 606 190 503 l 190 336 b 425 83 190 181 293 83 "},"ọ":{"ha":850,"x_min":0,"x_max":0,"o":"m 425 -19 b 79 336 242 -19 79 108 l 79 353 b 425 708 79 578 243 708 b 771 353 607 708 771 578 l 771 336 b 425 -19 771 108 608 -19 m 425 83 b 660 336 557 83 660 181 l 660 353 b 425 606 660 503 556 606 b 190 353 294 606 190 503 l 190 336 b 425 83 190 181 293 83 m 425 -283 b 328 -186 372 -283 328 -239 b 425 -89 328 -133 372 -89 b 522 -186 478 -89 522 -133 b 425 -283 522 -239 478 -283 "},"ò":{"ha":850,"x_min":0,"x_max":0,"o":"m 261 956 l 386 956 l 478 792 l 378 792 m 425 -19 b 79 336 242 -19 79 108 l 79 353 b 425 708 79 578 243 708 b 771 353 607 708 771 578 l 771 336 b 425 -19 771 108 608 -19 m 425 83 b 660 336 557 83 660 181 l 660 353 b 425 606 660 503 556 606 b 190 353 294 606 190 503 l 190 336 b 425 83 190 181 293 83 "},"ỏ":{"ha":850,"x_min":0,"x_max":0,"o":"m 350 886 l 350 894 l 456 894 b 490 875 461 883 474 875 b 539 928 517 875 539 894 b 483 986 539 968 511 986 b 417 931 443 986 422 958 l 350 956 b 485 1053 364 1011 406 1053 b 614 926 557 1053 614 1003 b 508 808 614 863 572 808 b 433 853 469 808 444 825 l 425 853 l 446 758 l 378 758 m 425 -19 b 79 336 242 -19 79 108 l 79 353 b 425 708 79 578 243 708 b 771 353 607 708 771 578 l 771 336 b 425 -19 771 108 608 -19 m 425 83 b 660 336 557 83 660 181 l 660 353 b 425 606 660 503 556 606 b 190 353 294 606 190 503 l 190 336 b 425 83 190 181 293 83 "},"ơ":{"ha":850,"x_min":0,"x_max":0,"o":"m 351 -19 b 56 336 174 -19 56 111 l 56 353 b 351 708 56 575 175 708 b 643 422 508 708 621 603 l 729 422 b 767 464 756 422 767 438 l 767 499 b 743 494 760 496 751 494 b 647 592 692 494 647 539 b 744 689 647 644 692 689 b 842 592 797 689 842 644 l 842 456 b 735 347 842 393 797 347 l 647 347 l 647 336 b 351 -19 647 111 529 -19 m 351 83 b 536 336 475 83 536 181 l 536 353 b 351 606 536 503 474 606 b 167 353 229 606 167 503 l 167 336 b 351 83 167 181 228 83 "},"ớ":{"ha":850,"x_min":0,"x_max":0,"o":"m 392 956 l 517 956 l 400 792 l 300 792 m 351 -19 b 56 336 174 -19 56 111 l 56 353 b 351 708 56 575 175 708 b 643 422 508 708 621 603 l 729 422 b 767 464 756 422 767 438 l 767 499 b 743 494 760 496 751 494 b 647 592 692 494 647 539 b 744 689 647 644 692 689 b 842 592 797 689 842 644 l 842 456 b 735 347 842 393 797 347 l 647 347 l 647 336 b 351 -19 647 111 529 -19 m 351 83 b 536 336 475 83 536 181 l 536 353 b 351 606 536 503 474 606 b 167 353 229 606 167 503 l 167 336 b 351 83 167 181 228 83 "},"ợ":{"ha":850,"x_min":0,"x_max":0,"o":"m 351 -19 b 56 336 174 -19 56 111 l 56 353 b 351 708 56 575 175 708 b 643 422 508 708 621 603 l 729 422 b 767 464 756 422 767 438 l 767 499 b 743 494 760 496 751 494 b 647 592 692 494 647 539 b 744 689 647 644 692 689 b 842 592 797 689 842 644 l 842 456 b 735 347 842 393 797 347 l 647 347 l 647 336 b 351 -19 647 111 529 -19 m 351 83 b 536 336 475 83 536 181 l 536 353 b 351 606 536 503 474 606 b 167 353 229 606 167 503 l 167 336 b 351 83 167 181 228 83 m 350 -283 b 253 -186 297 -283 253 -239 b 350 -89 253 -133 297 -89 b 447 -186 403 -89 447 -133 b 350 -283 447 -239 403 -283 "},"ờ":{"ha":850,"x_min":0,"x_max":0,"o":"m 176 956 l 301 956 l 393 792 l 293 792 m 351 -19 b 56 336 174 -19 56 111 l 56 353 b 351 708 56 575 175 708 b 643 422 508 708 621 603 l 729 422 b 767 464 756 422 767 438 l 767 499 b 743 494 760 496 751 494 b 647 592 692 494 647 539 b 744 689 647 644 692 689 b 842 592 797 689 842 644 l 842 456 b 735 347 842 393 797 347 l 647 347 l 647 336 b 351 -19 647 111 529 -19 m 351 83 b 536 336 475 83 536 181 l 536 353 b 351 606 536 503 474 606 b 167 353 229 606 167 503 l 167 336 b 351 83 167 181 228 83 "},"ở":{"ha":850,"x_min":0,"x_max":0,"o":"m 265 886 l 265 894 l 371 894 b 406 875 376 883 389 875 b 454 928 432 875 454 894 b 399 986 454 968 426 986 b 332 931 358 986 338 958 l 265 956 b 400 1053 279 1011 321 1053 b 529 926 472 1053 529 1003 b 424 808 529 863 488 808 b 349 853 385 808 360 825 l 340 853 l 361 758 l 293 758 m 351 -19 b 56 336 174 -19 56 111 l 56 353 b 351 708 56 575 175 708 b 643 422 508 708 621 603 l 729 422 b 767 464 756 422 767 438 l 767 499 b 743 494 760 496 751 494 b 647 592 692 494 647 539 b 744 689 647 644 692 689 b 842 592 797 689 842 644 l 842 456 b 735 347 842 393 797 347 l 647 347 l 647 336 b 351 -19 647 111 529 -19 m 351 83 b 536 336 475 83 536 181 l 536 353 b 351 606 536 503 474 606 b 167 353 229 606 167 503 l 167 336 b 351 83 167 181 228 83 "},"ỡ":{"ha":850,"x_min":0,"x_max":0,"o":"m 411 765 b 310 831 364 765 335 788 b 264 878 292 864 279 878 b 228 856 254 878 244 875 l 171 788 l 103 846 l 161 914 b 269 972 188 946 219 972 b 369 906 324 972 344 946 b 417 860 392 869 403 860 b 449 881 426 860 435 864 l 508 950 l 576 892 l 519 824 b 411 765 492 790 456 765 m 351 -19 b 56 336 174 -19 56 111 l 56 353 b 351 708 56 575 175 708 b 643 422 508 708 621 603 l 729 422 b 767 464 756 422 767 438 l 767 499 b 743 494 760 496 751 494 b 647 592 692 494 647 539 b 744 689 647 644 692 689 b 842 592 797 689 842 644 l 842 456 b 735 347 842 393 797 347 l 647 347 l 647 336 b 351 -19 647 111 529 -19 m 351 83 b 536 336 475 83 536 181 l 536 353 b 351 606 536 503 474 606 b 167 353 229 606 167 503 l 167 336 b 351 83 167 181 228 83 "},"ő":{"ha":850,"x_min":0,"x_max":0,"o":"m 558 956 l 683 956 l 567 792 l 467 792 m 358 956 l 483 956 l 367 792 l 267 792 m 425 -19 b 79 336 242 -19 79 108 l 79 353 b 425 708 79 578 243 708 b 771 353 607 708 771 578 l 771 336 b 425 -19 771 108 608 -19 m 425 83 b 660 336 557 83 660 181 l 660 353 b 425 606 660 503 556 606 b 190 353 294 606 190 503 l 190 336 b 425 83 190 181 293 83 "},"ō":{"ha":850,"x_min":0,"x_max":0,"o":"m 243 883 l 607 883 l 607 792 l 243 792 m 425 -19 b 79 336 242 -19 79 108 l 79 353 b 425 708 79 578 243 708 b 771 353 607 708 771 578 l 771 336 b 425 -19 771 108 608 -19 m 425 83 b 660 336 557 83 660 181 l 660 353 b 425 606 660 503 556 606 b 190 353 294 606 190 503 l 190 336 b 425 83 190 181 293 83 "},"ǫ":{"ha":850,"x_min":0,"x_max":0,"o":"m 464 -228 b 356 -125 410 -228 356 -193 b 360 -92 356 -115 357 -106 l 376 -17 b 79 336 214 4 79 128 l 79 353 b 425 708 79 578 243 708 b 771 353 607 708 771 578 l 771 336 b 471 -17 771 128 635 3 l 453 -94 b 451 -106 451 -101 451 -104 b 483 -136 451 -125 464 -136 l 542 -136 l 542 -228 l 464 -228 m 425 83 b 660 336 557 83 660 181 l 660 353 b 425 606 660 503 556 606 b 190 353 294 606 190 503 l 190 336 b 425 83 190 181 293 83 "},"ɔ":{"ha":850,"x_min":0,"x_max":0,"o":"m 410 -19 b 82 244 229 -19 110 92 l 190 269 b 410 83 204 175 274 83 b 654 333 546 83 654 178 l 654 350 b 413 606 654 500 546 606 b 193 419 276 606 204 517 l 85 444 b 410 708 110 597 235 708 b 765 350 601 708 765 572 l 765 333 b 410 -19 765 108 601 -19 "},"ø":{"ha":850,"x_min":0,"x_max":0,"o":"m 238 -64 l 264 17 b 79 336 156 69 79 179 l 79 353 b 425 708 79 578 243 708 b 489 703 446 708 468 706 l 513 775 l 610 744 l 586 671 b 771 353 693 617 771 507 l 771 336 b 425 -19 771 108 608 -19 b 363 -14 403 -19 382 -18 l 336 -94 m 456 604 b 425 606 446 606 435 606 b 190 353 294 606 190 503 l 190 336 b 297 119 190 236 232 161 m 425 83 b 660 336 557 83 660 181 l 660 353 b 551 568 660 449 617 525 l 394 85 b 425 83 404 83 414 83 "},"õ":{"ha":850,"x_min":0,"x_max":0,"o":"m 496 765 b 394 831 449 765 419 788 b 349 878 376 864 364 878 b 313 856 339 878 329 875 l 256 788 l 188 846 l 246 914 b 354 972 272 946 304 972 b 454 906 408 972 429 946 b 501 860 476 869 488 860 b 533 881 511 860 519 864 l 593 950 l 661 892 l 604 824 b 496 765 576 790 540 765 m 425 -19 b 79 336 242 -19 79 108 l 79 353 b 425 708 79 578 243 708 b 771 353 607 708 771 578 l 771 336 b 425 -19 771 108 608 -19 m 425 83 b 660 336 557 83 660 181 l 660 353 b 425 606 660 503 556 606 b 190 353 294 606 190 503 l 190 336 b 425 83 190 181 293 83 "},"œ":{"ha":850,"x_min":0,"x_max":0,"o":"m 440 -19 b 94 336 257 -19 94 108 l 94 353 b 440 708 94 578 258 708 b 765 400 667 708 765 522 l 765 311 l 489 311 l 489 86 b 654 225 586 100 632 157 l 757 197 b 440 -19 718 69 615 -19 m 657 411 b 489 600 651 513 578 582 l 489 411 m 381 597 b 206 353 279 571 206 479 l 206 336 b 381 90 206 204 278 115 "},"p":{"ha":850,"x_min":0,"x_max":0,"o":"m 96 689 l 204 689 l 204 581 l 221 581 b 460 708 268 664 360 708 b 776 358 629 708 776 581 l 776 331 b 457 -19 776 106 632 -19 b 221 106 368 -19 268 22 l 204 106 l 204 -278 l 96 -278 m 435 83 b 665 331 567 83 665 178 l 665 358 b 435 606 665 506 565 606 b 204 353 307 606 204 500 l 204 336 b 435 83 204 183 306 83 "},"þ":{"ha":850,"x_min":0,"x_max":0,"o":"m 96 972 l 204 972 l 204 581 l 221 581 b 460 708 268 664 360 708 b 776 358 629 708 776 581 l 776 331 b 457 -19 776 106 632 -19 b 221 106 368 -19 268 22 l 204 106 l 204 -278 l 96 -278 m 435 83 b 665 331 567 83 665 178 l 665 358 b 435 606 665 506 565 606 b 204 353 307 606 204 500 l 204 336 b 435 83 204 183 306 83 "},"q":{"ha":850,"x_min":0,"x_max":0,"o":"m 649 106 l 632 106 b 407 -19 585 22 490 -19 b 76 333 224 -19 76 107 l 76 356 b 404 708 76 579 226 708 b 632 581 499 708 585 664 l 649 581 l 649 689 l 757 689 l 757 -278 l 649 -278 m 418 83 b 649 336 547 83 649 183 l 649 353 b 418 606 649 500 546 606 b 188 356 288 606 188 504 l 188 333 b 418 83 188 179 286 83 "},"r":{"ha":850,"x_min":0,"x_max":0,"o":"m 65 100 l 224 100 l 224 589 l 82 589 l 82 689 l 332 689 l 332 597 l 349 597 b 535 708 383 672 453 708 b 771 442 672 708 765 615 l 657 425 b 499 606 657 553 588 606 b 332 392 385 606 332 511 l 332 100 l 507 100 l 507 0 l 65 0 "},"ŕ":{"ha":850,"x_min":0,"x_max":0,"o":"m 493 956 l 618 956 l 501 792 l 401 792 m 65 100 l 224 100 l 224 589 l 82 589 l 82 689 l 332 689 l 332 597 l 349 597 b 535 708 383 672 453 708 b 771 442 672 708 765 615 l 657 425 b 499 606 657 553 588 606 b 332 392 385 606 332 511 l 332 100 l 507 100 l 507 0 l 65 0 "},"ř":{"ha":850,"x_min":0,"x_max":0,"o":"m 244 956 l 361 956 l 433 833 l 450 833 l 522 956 l 639 956 l 528 792 l 356 792 m 65 100 l 224 100 l 224 589 l 82 589 l 82 689 l 332 689 l 332 597 l 349 597 b 535 708 383 672 453 708 b 771 442 672 708 765 615 l 657 425 b 499 606 657 553 588 606 b 332 392 385 606 332 511 l 332 100 l 507 100 l 507 0 l 65 0 "},"ŗ":{"ha":850,"x_min":0,"x_max":0,"o":"m 65 100 l 224 100 l 224 589 l 82 589 l 82 689 l 332 689 l 332 597 l 349 597 b 535 708 383 672 453 708 b 771 442 672 708 765 615 l 657 425 b 499 606 657 553 588 606 b 332 392 385 606 332 511 l 332 100 l 507 100 l 507 0 l 65 0 m 197 -331 l 263 -331 b 300 -289 289 -331 300 -315 l 300 -254 b 276 -258 293 -257 285 -258 b 181 -161 225 -258 181 -214 b 278 -64 181 -108 225 -64 b 375 -161 331 -64 375 -108 l 375 -297 b 268 -406 375 -360 331 -406 l 197 -406 "},"ṛ":{"ha":850,"x_min":0,"x_max":0,"o":"m 65 100 l 224 100 l 224 589 l 82 589 l 82 689 l 332 689 l 332 597 l 349 597 b 535 708 383 672 453 708 b 771 442 672 708 765 615 l 657 425 b 499 606 657 553 588 606 b 332 392 385 606 332 511 l 332 100 l 507 100 l 507 0 l 65 0 m 278 -283 b 181 -186 225 -283 181 -239 b 278 -89 181 -133 225 -89 b 375 -186 331 -89 375 -133 b 278 -283 375 -239 331 -283 "},"ṝ":{"ha":850,"x_min":0,"x_max":0,"o":"m 260 883 l 624 883 l 624 792 l 260 792 m 65 100 l 224 100 l 224 589 l 82 589 l 82 689 l 332 689 l 332 597 l 349 597 b 535 708 383 672 453 708 b 771 442 672 708 765 615 l 657 425 b 499 606 657 553 588 606 b 332 392 385 606 332 511 l 332 100 l 507 100 l 507 0 l 65 0 m 278 -283 b 181 -186 225 -283 181 -239 b 278 -89 181 -133 225 -89 b 375 -186 331 -89 375 -133 b 278 -283 375 -239 331 -283 "},"ṟ":{"ha":850,"x_min":0,"x_max":0,"o":"m 65 100 l 224 100 l 224 589 l 82 589 l 82 689 l 332 689 l 332 597 l 349 597 b 535 708 383 672 453 708 b 771 442 672 708 765 615 l 657 425 b 499 606 657 553 588 606 b 332 392 385 606 332 511 l 332 100 l 507 100 l 507 0 l 65 0 m 82 -89 l 474 -89 l 474 -181 l 82 -181 "},"ɹ":{"ha":850,"x_min":0,"x_max":0,"o":"m 785 589 l 626 589 l 626 100 l 768 100 l 768 0 l 518 0 l 518 92 l 501 92 b 315 -19 467 17 397 -19 b 79 247 178 -19 85 74 l 193 264 b 351 83 193 136 263 83 b 518 297 465 83 518 178 l 518 589 l 343 589 l 343 689 l 785 689 "},"s":{"ha":850,"x_min":0,"x_max":0,"o":"m 436 -19 b 122 231 222 -19 131 108 l 225 256 b 431 81 233 150 311 81 b 600 194 532 81 600 122 b 406 310 600 272 542 300 b 158 503 247 321 158 383 l 158 511 b 408 708 158 642 281 708 b 692 494 592 708 678 600 l 589 469 b 414 611 581 558 514 611 b 264 511 336 611 264 578 b 461 400 264 444 311 411 b 708 203 621 388 708 325 l 708 194 b 436 -19 708 61 597 -19 "},"ś":{"ha":850,"x_min":0,"x_max":0,"o":"m 461 956 l 586 956 l 469 792 l 369 792 m 436 -19 b 122 231 222 -19 131 108 l 225 256 b 431 81 233 150 311 81 b 600 194 532 81 600 122 b 406 310 600 272 542 300 b 158 503 247 321 158 383 l 158 511 b 408 708 158 642 281 708 b 692 494 592 708 678 600 l 589 469 b 414 611 581 558 514 611 b 264 511 336 611 264 578 b 461 400 264 444 311 411 b 708 203 621 388 708 325 l 708 194 b 436 -19 708 61 597 -19 "},"š":{"ha":850,"x_min":0,"x_max":0,"o":"m 213 956 l 329 956 l 401 833 l 418 833 l 490 956 l 607 956 l 496 792 l 324 792 m 436 -19 b 122 231 222 -19 131 108 l 225 256 b 431 81 233 150 311 81 b 600 194 532 81 600 122 b 406 310 600 272 542 300 b 158 503 247 321 158 383 l 158 511 b 408 708 158 642 281 708 b 692 494 592 708 678 600 l 589 469 b 414 611 581 558 514 611 b 264 511 336 611 264 578 b 461 400 264 444 311 411 b 708 203 621 388 708 325 l 708 194 b 436 -19 708 61 597 -19 "},"ş":{"ha":850,"x_min":0,"x_max":0,"o":"m 468 -294 b 333 -197 389 -294 347 -253 l 400 -172 b 467 -228 406 -200 426 -228 b 522 -169 494 -228 522 -210 b 474 -117 522 -136 500 -117 b 439 -136 457 -117 444 -125 l 333 -136 l 333 -128 l 358 -12 b 122 231 200 14 129 124 l 225 256 b 431 81 233 150 311 81 b 600 194 532 81 600 122 b 406 310 600 272 542 300 b 158 503 247 321 158 383 l 158 511 b 408 708 158 642 281 708 b 692 494 592 708 678 600 l 589 469 b 414 611 581 558 514 611 b 264 511 336 611 264 578 b 461 400 264 444 311 411 b 708 203 621 388 708 325 l 708 194 b 436 -19 708 61 597 -19 l 425 -19 l 408 -94 l 417 -94 b 492 -50 428 -67 453 -50 b 597 -168 556 -50 597 -104 b 468 -294 597 -244 540 -294 "},"ŝ":{"ha":850,"x_min":0,"x_max":0,"o":"m 324 956 l 496 956 l 607 792 l 490 792 l 418 914 l 401 914 l 329 792 l 213 792 m 436 -19 b 122 231 222 -19 131 108 l 225 256 b 431 81 233 150 311 81 b 600 194 532 81 600 122 b 406 310 600 272 542 300 b 158 503 247 321 158 383 l 158 511 b 408 708 158 642 281 708 b 692 494 592 708 678 600 l 589 469 b 414 611 581 558 514 611 b 264 511 336 611 264 578 b 461 400 264 444 311 411 b 708 203 621 388 708 325 l 708 194 b 436 -19 708 61 597 -19 "},"ș":{"ha":850,"x_min":0,"x_max":0,"o":"m 436 -19 b 122 231 222 -19 131 108 l 225 256 b 431 81 233 150 311 81 b 600 194 532 81 600 122 b 406 310 600 272 542 300 b 158 503 247 321 158 383 l 158 511 b 408 708 158 642 281 708 b 692 494 592 708 678 600 l 589 469 b 414 611 581 558 514 611 b 264 511 336 611 264 578 b 461 400 264 444 311 411 b 708 203 621 388 708 325 l 708 194 b 436 -19 708 61 597 -19 m 344 -331 l 410 -331 b 447 -289 436 -331 447 -315 l 447 -254 b 424 -258 440 -257 432 -258 b 328 -161 372 -258 328 -214 b 425 -64 328 -108 372 -64 b 522 -161 478 -64 522 -108 l 522 -297 b 415 -406 522 -360 478 -406 l 344 -406 "},"ṡ":{"ha":850,"x_min":0,"x_max":0,"o":"m 410 797 b 313 894 357 797 313 842 b 410 992 313 947 357 992 b 507 894 463 992 507 947 b 410 797 507 842 463 797 m 436 -19 b 122 231 222 -19 131 108 l 225 256 b 431 81 233 150 311 81 b 600 194 532 81 600 122 b 406 310 600 272 542 300 b 158 503 247 321 158 383 l 158 511 b 408 708 158 642 281 708 b 692 494 592 708 678 600 l 589 469 b 414 611 581 558 514 611 b 264 511 336 611 264 578 b 461 400 264 444 311 411 b 708 203 621 388 708 325 l 708 194 b 436 -19 708 61 597 -19 "},"ṣ":{"ha":850,"x_min":0,"x_max":0,"o":"m 436 -19 b 122 231 222 -19 131 108 l 225 256 b 431 81 233 150 311 81 b 600 194 532 81 600 122 b 406 310 600 272 542 300 b 158 503 247 321 158 383 l 158 511 b 408 708 158 642 281 708 b 692 494 592 708 678 600 l 589 469 b 414 611 581 558 514 611 b 264 511 336 611 264 578 b 461 400 264 444 311 411 b 708 203 621 388 708 325 l 708 194 b 436 -19 708 61 597 -19 m 425 -283 b 328 -186 372 -283 328 -239 b 425 -89 328 -133 372 -89 b 522 -186 478 -89 522 -133 b 425 -283 522 -239 478 -283 "},"ß":{"ha":850,"x_min":0,"x_max":0,"o":"m 536 -19 b 294 203 372 -19 297 93 l 397 219 b 531 81 397 135 450 81 b 674 232 613 81 674 126 b 469 393 674 349 585 393 l 394 393 l 394 597 l 425 597 b 576 739 518 597 576 651 l 576 746 b 415 892 576 833 504 892 b 244 697 313 892 244 819 l 244 0 l 136 0 l 136 589 l 53 589 l 53 689 l 136 689 l 136 708 b 415 992 136 886 254 992 b 685 746 571 992 685 897 l 685 738 b 476 510 685 593 579 522 l 476 493 l 511 493 b 782 236 653 493 782 403 l 782 228 b 536 -19 782 81 681 -19 "},"ſ":{"ha":850,"x_min":0,"x_max":0,"o":"m 333 589 l 250 589 l 250 689 l 333 689 l 333 864 b 440 972 333 926 378 972 l 713 972 l 713 872 l 479 872 b 442 831 453 872 442 857 l 442 0 l 333 0 "},"t":{"ha":850,"x_min":0,"x_max":0,"o":"m 421 0 b 314 108 358 0 314 46 l 314 589 l 97 589 l 97 689 l 314 689 l 314 972 l 422 972 l 422 689 l 689 689 l 689 589 l 422 589 l 422 142 b 460 100 422 115 433 100 l 656 100 l 656 0 l 421 0 "},"ŧ":{"ha":850,"x_min":0,"x_max":0,"o":"m 421 0 b 314 108 358 0 314 46 l 314 386 l 147 386 l 147 486 l 314 486 l 314 589 l 97 589 l 97 689 l 314 689 l 314 972 l 422 972 l 422 689 l 689 689 l 689 589 l 422 589 l 422 486 l 639 486 l 639 386 l 422 386 l 422 142 b 460 100 422 115 433 100 l 656 100 l 656 0 l 421 0 "},"ť":{"ha":850,"x_min":0,"x_max":0,"o":"m 421 0 b 314 108 358 0 314 46 l 314 589 l 97 589 l 97 689 l 314 689 l 314 972 l 422 972 l 422 689 l 522 689 l 522 589 l 422 589 l 422 142 b 460 100 422 115 433 100 l 656 100 l 656 0 l 421 0 m 564 664 l 629 664 b 667 706 656 664 667 679 l 667 782 b 643 778 660 779 651 778 b 547 875 592 778 547 822 b 644 972 547 928 592 972 b 742 875 697 972 742 928 l 742 697 b 635 589 742 635 697 589 l 564 589 "},"ţ":{"ha":850,"x_min":0,"x_max":0,"o":"m 528 -294 b 393 -197 449 -294 407 -253 l 460 -172 b 526 -228 465 -200 486 -228 b 582 -169 554 -228 582 -210 b 533 -117 582 -136 560 -117 b 499 -136 517 -117 504 -125 l 393 -136 l 393 -128 l 421 0 b 314 108 358 0 314 46 l 314 589 l 97 589 l 97 689 l 314 689 l 314 972 l 422 972 l 422 689 l 689 689 l 689 589 l 422 589 l 422 142 b 460 100 422 115 433 100 l 656 100 l 656 0 l 489 0 l 468 -94 l 476 -94 b 551 -50 488 -67 513 -50 b 657 -168 615 -50 657 -104 b 528 -294 657 -244 600 -294 "},"ț":{"ha":850,"x_min":0,"x_max":0,"o":"m 421 0 b 314 108 358 0 314 46 l 314 589 l 97 589 l 97 689 l 314 689 l 314 972 l 422 972 l 422 689 l 689 689 l 689 589 l 422 589 l 422 142 b 460 100 422 115 433 100 l 656 100 l 656 0 l 421 0 m 306 -331 l 371 -331 b 408 -289 397 -331 408 -315 l 408 -254 b 385 -258 401 -257 393 -258 b 289 -161 333 -258 289 -214 b 386 -64 289 -108 333 -64 b 483 -161 439 -64 483 -108 l 483 -297 b 376 -406 483 -360 439 -406 l 306 -406 "},"ẗ":{"ha":850,"x_min":0,"x_max":0,"o":"m 508 1081 b 411 1178 456 1081 411 1125 b 508 1275 411 1231 456 1275 b 606 1178 561 1275 606 1231 b 508 1081 606 1125 561 1081 m 231 1081 b 133 1178 178 1081 133 1125 b 231 1275 133 1231 178 1275 b 328 1178 283 1275 328 1231 b 231 1081 328 1125 283 1081 m 421 0 b 314 108 358 0 314 46 l 314 589 l 97 589 l 97 689 l 314 689 l 314 972 l 422 972 l 422 689 l 689 689 l 689 589 l 422 589 l 422 142 b 460 100 422 115 433 100 l 656 100 l 656 0 l 421 0 "},"ṭ":{"ha":850,"x_min":0,"x_max":0,"o":"m 421 0 b 314 108 358 0 314 46 l 314 589 l 97 589 l 97 689 l 314 689 l 314 972 l 422 972 l 422 689 l 689 689 l 689 589 l 422 589 l 422 142 b 460 100 422 115 433 100 l 656 100 l 656 0 l 421 0 m 386 -283 b 289 -186 333 -283 289 -239 b 386 -89 289 -133 333 -89 b 483 -186 439 -89 483 -133 b 386 -283 483 -239 439 -283 "},"ṯ":{"ha":850,"x_min":0,"x_max":0,"o":"m 421 0 b 314 108 358 0 314 46 l 314 589 l 97 589 l 97 689 l 314 689 l 314 972 l 422 972 l 422 689 l 689 689 l 689 589 l 422 589 l 422 142 b 460 100 422 115 433 100 l 656 100 l 656 0 l 421 0 m 317 -89 l 708 -89 l 708 -181 l 317 -181 "},"ʇ":{"ha":850,"x_min":0,"x_max":0,"o":"m 408 0 l 142 0 l 142 100 l 408 100 l 408 547 b 371 589 408 574 397 589 l 175 589 l 175 689 l 410 689 b 517 581 472 689 517 643 l 517 100 l 733 100 l 733 0 l 517 0 l 517 -278 l 408 -278 "},"u":{"ha":850,"x_min":0,"x_max":0,"o":"m 371 -19 b 113 278 218 -19 113 81 l 113 689 l 221 689 l 221 292 b 401 83 221 147 279 83 b 613 331 532 83 613 181 l 613 689 l 721 689 l 721 0 l 613 0 l 613 125 l 596 125 b 371 -19 551 36 482 -19 "},"ú":{"ha":850,"x_min":0,"x_max":0,"o":"m 463 956 l 588 956 l 471 792 l 371 792 m 371 -19 b 113 278 218 -19 113 81 l 113 689 l 221 689 l 221 292 b 401 83 221 147 279 83 b 613 331 532 83 613 181 l 613 689 l 721 689 l 721 0 l 613 0 l 613 125 l 596 125 b 371 -19 551 36 482 -19 "},"ŭ":{"ha":850,"x_min":0,"x_max":0,"o":"m 411 792 b 261 942 319 792 261 853 l 261 956 l 357 956 l 357 939 b 411 885 357 910 376 885 b 465 939 446 885 465 910 l 465 956 l 561 956 l 561 942 b 411 792 561 853 503 792 m 371 -19 b 113 278 218 -19 113 81 l 113 689 l 221 689 l 221 292 b 401 83 221 147 279 83 b 613 331 532 83 613 181 l 613 689 l 721 689 l 721 0 l 613 0 l 613 125 l 596 125 b 371 -19 551 36 482 -19 "},"ǔ":{"ha":850,"x_min":0,"x_max":0,"o":"m 214 956 l 331 956 l 403 833 l 419 833 l 492 956 l 608 956 l 497 792 l 325 792 m 371 -19 b 113 278 218 -19 113 81 l 113 689 l 221 689 l 221 292 b 401 83 221 147 279 83 b 613 331 532 83 613 181 l 613 689 l 721 689 l 721 0 l 613 0 l 613 125 l 596 125 b 371 -19 551 36 482 -19 "},"û":{"ha":850,"x_min":0,"x_max":0,"o":"m 325 956 l 497 956 l 608 792 l 492 792 l 419 914 l 403 914 l 331 792 l 214 792 m 371 -19 b 113 278 218 -19 113 81 l 113 689 l 221 689 l 221 292 b 401 83 221 147 279 83 b 613 331 532 83 613 181 l 613 689 l 721 689 l 721 0 l 613 0 l 613 125 l 596 125 b 371 -19 551 36 482 -19 "},"ü":{"ha":850,"x_min":0,"x_max":0,"o":"m 550 797 b 453 894 497 797 453 842 b 550 992 453 947 497 992 b 647 894 603 992 647 947 b 550 797 647 842 603 797 m 272 797 b 175 894 219 797 175 842 b 272 992 175 947 219 992 b 369 894 325 992 369 947 b 272 797 369 842 325 797 m 371 -19 b 113 278 218 -19 113 81 l 113 689 l 221 689 l 221 292 b 401 83 221 147 279 83 b 613 331 532 83 613 181 l 613 689 l 721 689 l 721 0 l 613 0 l 613 125 l 596 125 b 371 -19 551 36 482 -19 "},"ǘ":{"ha":850,"x_min":0,"x_max":0,"o":"m 463 1193 l 588 1193 l 471 1029 l 371 1029 m 550 797 b 453 894 497 797 453 842 b 550 992 453 947 497 992 b 647 894 603 992 647 947 b 550 797 647 842 603 797 m 272 797 b 175 894 219 797 175 842 b 272 992 175 947 219 992 b 369 894 325 992 369 947 b 272 797 369 842 325 797 m 371 -19 b 113 278 218 -19 113 81 l 113 689 l 221 689 l 221 292 b 401 83 221 147 279 83 b 613 331 532 83 613 181 l 613 689 l 721 689 l 721 0 l 613 0 l 613 125 l 596 125 b 371 -19 551 36 482 -19 "},"ǚ":{"ha":850,"x_min":0,"x_max":0,"o":"m 214 1193 l 331 1193 l 403 1071 l 419 1071 l 492 1193 l 608 1193 l 497 1029 l 325 1029 m 550 797 b 453 894 497 797 453 842 b 550 992 453 947 497 992 b 647 894 603 992 647 947 b 550 797 647 842 603 797 m 272 797 b 175 894 219 797 175 842 b 272 992 175 947 219 992 b 369 894 325 992 369 947 b 272 797 369 842 325 797 m 371 -19 b 113 278 218 -19 113 81 l 113 689 l 221 689 l 221 292 b 401 83 221 147 279 83 b 613 331 532 83 613 181 l 613 689 l 721 689 l 721 0 l 613 0 l 613 125 l 596 125 b 371 -19 551 36 482 -19 "},"ǜ":{"ha":850,"x_min":0,"x_max":0,"o":"m 247 1193 l 372 1193 l 464 1029 l 364 1029 m 550 797 b 453 894 497 797 453 842 b 550 992 453 947 497 992 b 647 894 603 992 647 947 b 550 797 647 842 603 797 m 272 797 b 175 894 219 797 175 842 b 272 992 175 947 219 992 b 369 894 325 992 369 947 b 272 797 369 842 325 797 m 371 -19 b 113 278 218 -19 113 81 l 113 689 l 221 689 l 221 292 b 401 83 221 147 279 83 b 613 331 532 83 613 181 l 613 689 l 721 689 l 721 0 l 613 0 l 613 125 l 596 125 b 371 -19 551 36 482 -19 "},"ǖ":{"ha":850,"x_min":0,"x_max":0,"o":"m 229 1121 l 593 1121 l 593 1029 l 229 1029 m 550 797 b 453 894 497 797 453 842 b 550 992 453 947 497 992 b 647 894 603 992 647 947 b 550 797 647 842 603 797 m 272 797 b 175 894 219 797 175 842 b 272 992 175 947 219 992 b 369 894 325 992 369 947 b 272 797 369 842 325 797 m 371 -19 b 113 278 218 -19 113 81 l 113 689 l 221 689 l 221 292 b 401 83 221 147 279 83 b 613 331 532 83 613 181 l 613 689 l 721 689 l 721 0 l 613 0 l 613 125 l 596 125 b 371 -19 551 36 482 -19 "},"ụ":{"ha":850,"x_min":0,"x_max":0,"o":"m 371 -19 b 113 278 218 -19 113 81 l 113 689 l 221 689 l 221 292 b 401 83 221 147 279 83 b 613 331 532 83 613 181 l 613 689 l 721 689 l 721 0 l 613 0 l 613 125 l 596 125 b 371 -19 551 36 482 -19 m 425 -283 b 328 -186 372 -283 328 -239 b 425 -89 328 -133 372 -89 b 522 -186 478 -89 522 -133 b 425 -283 522 -239 478 -283 "},"ù":{"ha":850,"x_min":0,"x_max":0,"o":"m 247 956 l 372 956 l 464 792 l 364 792 m 371 -19 b 113 278 218 -19 113 81 l 113 689 l 221 689 l 221 292 b 401 83 221 147 279 83 b 613 331 532 83 613 181 l 613 689 l 721 689 l 721 0 l 613 0 l 613 125 l 596 125 b 371 -19 551 36 482 -19 "},"ủ":{"ha":850,"x_min":0,"x_max":0,"o":"m 336 886 l 336 894 l 442 894 b 476 875 447 883 460 875 b 525 928 503 875 525 894 b 469 986 525 968 497 986 b 403 931 429 986 408 958 l 336 956 b 471 1053 350 1011 392 1053 b 600 926 543 1053 600 1003 b 494 808 600 863 558 808 b 419 853 456 808 431 825 l 411 853 l 432 758 l 364 758 m 371 -19 b 113 278 218 -19 113 81 l 113 689 l 221 689 l 221 292 b 401 83 221 147 279 83 b 613 331 532 83 613 181 l 613 689 l 721 689 l 721 0 l 613 0 l 613 125 l 596 125 b 371 -19 551 36 482 -19 "},"ư":{"ha":850,"x_min":0,"x_max":0,"o":"m 289 -19 b 56 231 144 -19 56 69 l 56 689 l 164 689 l 164 250 b 314 83 164 133 217 83 b 489 289 433 83 489 164 l 489 689 l 597 689 l 597 422 l 729 422 b 767 464 756 422 767 438 l 767 499 b 743 494 760 496 751 494 b 647 592 692 494 647 539 b 744 689 647 644 692 689 b 842 592 797 689 842 644 l 842 456 b 735 347 842 393 797 347 l 597 347 l 597 0 l 489 0 l 489 94 l 472 94 b 289 -19 442 28 392 -19 "},"ứ":{"ha":850,"x_min":0,"x_max":0,"o":"m 351 956 l 476 956 l 360 792 l 260 792 m 289 -19 b 56 231 144 -19 56 69 l 56 689 l 164 689 l 164 250 b 314 83 164 133 217 83 b 489 289 433 83 489 164 l 489 689 l 597 689 l 597 422 l 729 422 b 767 464 756 422 767 438 l 767 499 b 743 494 760 496 751 494 b 647 592 692 494 647 539 b 744 689 647 644 692 689 b 842 592 797 689 842 644 l 842 456 b 735 347 842 393 797 347 l 597 347 l 597 0 l 489 0 l 489 94 l 472 94 b 289 -19 442 28 392 -19 "},"ự":{"ha":850,"x_min":0,"x_max":0,"o":"m 289 -19 b 56 231 144 -19 56 69 l 56 689 l 164 689 l 164 250 b 314 83 164 133 217 83 b 489 289 433 83 489 164 l 489 689 l 597 689 l 597 422 l 729 422 b 767 464 756 422 767 438 l 767 499 b 743 494 760 496 751 494 b 647 592 692 494 647 539 b 744 689 647 644 692 689 b 842 592 797 689 842 644 l 842 456 b 735 347 842 393 797 347 l 597 347 l 597 0 l 489 0 l 489 94 l 472 94 b 289 -19 442 28 392 -19 m 314 -283 b 217 -186 261 -283 217 -239 b 314 -89 217 -133 261 -89 b 411 -186 367 -89 411 -133 b 314 -283 411 -239 367 -283 "},"ừ":{"ha":850,"x_min":0,"x_max":0,"o":"m 136 956 l 261 956 l 353 792 l 253 792 m 289 -19 b 56 231 144 -19 56 69 l 56 689 l 164 689 l 164 250 b 314 83 164 133 217 83 b 489 289 433 83 489 164 l 489 689 l 597 689 l 597 422 l 729 422 b 767 464 756 422 767 438 l 767 499 b 743 494 760 496 751 494 b 647 592 692 494 647 539 b 744 689 647 644 692 689 b 842 592 797 689 842 644 l 842 456 b 735 347 842 393 797 347 l 597 347 l 597 0 l 489 0 l 489 94 l 472 94 b 289 -19 442 28 392 -19 "},"ử":{"ha":850,"x_min":0,"x_max":0,"o":"m 225 886 l 225 894 l 331 894 b 365 875 336 883 349 875 b 414 928 392 875 414 894 b 358 986 414 968 386 986 b 292 931 318 986 297 958 l 225 956 b 360 1053 239 1011 281 1053 b 489 926 432 1053 489 1003 b 383 808 489 863 447 808 b 308 853 344 808 319 825 l 300 853 l 321 758 l 253 758 m 289 -19 b 56 231 144 -19 56 69 l 56 689 l 164 689 l 164 250 b 314 83 164 133 217 83 b 489 289 433 83 489 164 l 489 689 l 597 689 l 597 422 l 729 422 b 767 464 756 422 767 438 l 767 499 b 743 494 760 496 751 494 b 647 592 692 494 647 539 b 744 689 647 644 692 689 b 842 592 797 689 842 644 l 842 456 b 735 347 842 393 797 347 l 597 347 l 597 0 l 489 0 l 489 94 l 472 94 b 289 -19 442 28 392 -19 "},"ữ":{"ha":850,"x_min":0,"x_max":0,"o":"m 371 765 b 269 831 324 765 294 788 b 224 878 251 864 239 878 b 188 856 214 878 204 875 l 131 788 l 63 846 l 121 914 b 229 972 147 946 179 972 b 329 906 283 972 304 946 b 376 860 351 869 363 860 b 408 881 386 860 394 864 l 468 950 l 536 892 l 479 824 b 371 765 451 790 415 765 m 289 -19 b 56 231 144 -19 56 69 l 56 689 l 164 689 l 164 250 b 314 83 164 133 217 83 b 489 289 433 83 489 164 l 489 689 l 597 689 l 597 422 l 729 422 b 767 464 756 422 767 438 l 767 499 b 743 494 760 496 751 494 b 647 592 692 494 647 539 b 744 689 647 644 692 689 b 842 592 797 689 842 644 l 842 456 b 735 347 842 393 797 347 l 597 347 l 597 0 l 489 0 l 489 94 l 472 94 b 289 -19 442 28 392 -19 "},"ű":{"ha":850,"x_min":0,"x_max":0,"o":"m 544 956 l 669 956 l 553 792 l 453 792 m 344 956 l 469 956 l 353 792 l 253 792 m 371 -19 b 113 278 218 -19 113 81 l 113 689 l 221 689 l 221 292 b 401 83 221 147 279 83 b 613 331 532 83 613 181 l 613 689 l 721 689 l 721 0 l 613 0 l 613 125 l 596 125 b 371 -19 551 36 482 -19 "},"ū":{"ha":850,"x_min":0,"x_max":0,"o":"m 229 883 l 593 883 l 593 792 l 229 792 m 371 -19 b 113 278 218 -19 113 81 l 113 689 l 221 689 l 221 292 b 401 83 221 147 279 83 b 613 331 532 83 613 181 l 613 689 l 721 689 l 721 0 l 613 0 l 613 125 l 596 125 b 371 -19 551 36 482 -19 "},"ų":{"ha":850,"x_min":0,"x_max":0,"o":"m 669 -228 b 561 -125 615 -228 561 -193 b 565 -92 561 -115 563 -106 l 613 125 l 596 125 b 371 -19 551 36 482 -19 b 113 278 218 -19 113 81 l 113 689 l 221 689 l 221 292 b 401 83 221 147 279 83 b 613 331 532 83 613 181 l 613 689 l 721 689 l 721 0 l 681 0 l 658 -94 b 657 -106 657 -101 657 -104 b 689 -136 657 -125 669 -136 l 747 -136 l 747 -228 l 669 -228 "},"ů":{"ha":850,"x_min":0,"x_max":0,"o":"m 411 792 b 269 933 332 792 269 854 b 411 1075 269 1013 332 1075 b 553 933 490 1075 553 1013 b 411 792 553 854 490 792 m 411 875 b 469 933 444 875 469 900 b 411 992 469 967 444 992 b 353 933 378 992 353 967 b 411 875 353 900 378 875 m 371 -19 b 113 278 218 -19 113 81 l 113 689 l 221 689 l 221 292 b 401 83 221 147 279 83 b 613 331 532 83 613 181 l 613 689 l 721 689 l 721 0 l 613 0 l 613 125 l 596 125 b 371 -19 551 36 482 -19 "},"ũ":{"ha":850,"x_min":0,"x_max":0,"o":"m 482 765 b 381 831 435 765 406 788 b 335 878 363 864 350 878 b 299 856 325 878 315 875 l 242 788 l 174 846 l 232 914 b 340 972 258 946 290 972 b 440 906 394 972 415 946 b 488 860 463 869 474 860 b 519 881 497 860 506 864 l 579 950 l 647 892 l 590 824 b 482 765 563 790 526 765 m 371 -19 b 113 278 218 -19 113 81 l 113 689 l 221 689 l 221 292 b 401 83 221 147 279 83 b 613 331 532 83 613 181 l 613 689 l 721 689 l 721 0 l 613 0 l 613 125 l 596 125 b 371 -19 551 36 482 -19 "},"v":{"ha":850,"x_min":0,"x_max":0,"o":"m 76 689 l 204 689 l 415 50 l 432 50 l 643 689 l 771 689 l 531 0 l 317 0 "},"ʌ":{"ha":850,"x_min":0,"x_max":0,"o":"m 771 0 l 643 0 l 432 639 l 415 639 l 204 0 l 76 0 l 317 689 l 531 689 "},"w":{"ha":850,"x_min":0,"x_max":0,"o":"m 25 689 l 136 689 l 228 50 l 244 50 l 325 689 l 525 689 l 606 50 l 622 50 l 714 689 l 825 689 l 717 0 l 517 0 l 433 639 l 417 639 l 333 0 l 133 0 "},"ẃ":{"ha":850,"x_min":0,"x_max":0,"o":"m 463 956 l 588 956 l 471 792 l 371 792 m 25 689 l 136 689 l 228 50 l 244 50 l 325 689 l 525 689 l 606 50 l 622 50 l 714 689 l 825 689 l 717 0 l 517 0 l 433 639 l 417 639 l 333 0 l 133 0 "},"ŵ":{"ha":850,"x_min":0,"x_max":0,"o":"m 325 956 l 497 956 l 608 792 l 492 792 l 419 914 l 403 914 l 331 792 l 214 792 m 25 689 l 136 689 l 228 50 l 244 50 l 325 689 l 525 689 l 606 50 l 622 50 l 714 689 l 825 689 l 717 0 l 517 0 l 433 639 l 417 639 l 333 0 l 133 0 "},"ẅ":{"ha":850,"x_min":0,"x_max":0,"o":"m 550 797 b 453 894 497 797 453 842 b 550 992 453 947 497 992 b 647 894 603 992 647 947 b 550 797 647 842 603 797 m 272 797 b 175 894 219 797 175 842 b 272 992 175 947 219 992 b 369 894 325 992 369 947 b 272 797 369 842 325 797 m 25 689 l 136 689 l 228 50 l 244 50 l 325 689 l 525 689 l 606 50 l 622 50 l 714 689 l 825 689 l 717 0 l 517 0 l 433 639 l 417 639 l 333 0 l 133 0 "},"ẁ":{"ha":850,"x_min":0,"x_max":0,"o":"m 247 956 l 372 956 l 464 792 l 364 792 m 25 689 l 136 689 l 228 50 l 244 50 l 325 689 l 525 689 l 606 50 l 622 50 l 714 689 l 825 689 l 717 0 l 517 0 l 433 639 l 417 639 l 333 0 l 133 0 "},"ʍ":{"ha":850,"x_min":0,"x_max":0,"o":"m 825 0 l 714 0 l 622 639 l 606 639 l 525 0 l 325 0 l 244 639 l 228 639 l 136 0 l 25 0 l 133 689 l 333 689 l 417 50 l 433 50 l 517 689 l 717 689 "},"x":{"ha":850,"x_min":0,"x_max":0,"o":"m 318 344 l 318 361 l 115 689 l 239 689 l 413 403 l 438 403 l 611 689 l 735 689 l 532 361 l 532 344 l 751 0 l 625 0 l 438 303 l 413 303 l 225 0 l 99 0 "},"y":{"ha":850,"x_min":0,"x_max":0,"o":"m 229 -178 l 583 -178 b 621 -136 610 -178 621 -162 l 621 125 l 604 125 b 379 -19 560 36 490 -19 b 121 278 226 -19 121 81 l 121 689 l 229 689 l 229 292 b 410 83 229 147 288 83 b 621 331 540 83 621 181 l 621 689 l 729 689 l 729 -169 b 622 -278 729 -232 685 -278 l 229 -278 "},"ý":{"ha":850,"x_min":0,"x_max":0,"o":"m 463 956 l 588 956 l 471 792 l 371 792 m 229 -178 l 583 -178 b 621 -136 610 -178 621 -162 l 621 125 l 604 125 b 379 -19 560 36 490 -19 b 121 278 226 -19 121 81 l 121 689 l 229 689 l 229 292 b 410 83 229 147 288 83 b 621 331 540 83 621 181 l 621 689 l 729 689 l 729 -169 b 622 -278 729 -232 685 -278 l 229 -278 "},"ŷ":{"ha":850,"x_min":0,"x_max":0,"o":"m 325 956 l 497 956 l 608 792 l 492 792 l 419 914 l 403 914 l 331 792 l 214 792 m 229 -178 l 583 -178 b 621 -136 610 -178 621 -162 l 621 125 l 604 125 b 379 -19 560 36 490 -19 b 121 278 226 -19 121 81 l 121 689 l 229 689 l 229 292 b 410 83 229 147 288 83 b 621 331 540 83 621 181 l 621 689 l 729 689 l 729 -169 b 622 -278 729 -232 685 -278 l 229 -278 "},"ÿ":{"ha":850,"x_min":0,"x_max":0,"o":"m 550 797 b 453 894 497 797 453 842 b 550 992 453 947 497 992 b 647 894 603 992 647 947 b 550 797 647 842 603 797 m 272 797 b 175 894 219 797 175 842 b 272 992 175 947 219 992 b 369 894 325 992 369 947 b 272 797 369 842 325 797 m 229 -178 l 583 -178 b 621 -136 610 -178 621 -162 l 621 125 l 604 125 b 379 -19 560 36 490 -19 b 121 278 226 -19 121 81 l 121 689 l 229 689 l 229 292 b 410 83 229 147 288 83 b 621 331 540 83 621 181 l 621 689 l 729 689 l 729 -169 b 622 -278 729 -232 685 -278 l 229 -278 "},"ẏ":{"ha":850,"x_min":0,"x_max":0,"o":"m 411 797 b 314 894 358 797 314 842 b 411 992 314 947 358 992 b 508 894 464 992 508 947 b 411 797 508 842 464 797 m 229 -178 l 583 -178 b 621 -136 610 -178 621 -162 l 621 125 l 604 125 b 379 -19 560 36 490 -19 b 121 278 226 -19 121 81 l 121 689 l 229 689 l 229 292 b 410 83 229 147 288 83 b 621 331 540 83 621 181 l 621 689 l 729 689 l 729 -169 b 622 -278 729 -232 685 -278 l 229 -278 "},"ỵ":{"ha":850,"x_min":0,"x_max":0,"o":"m 218 -283 b 121 -186 165 -283 121 -239 b 218 -89 121 -133 165 -89 b 315 -178 268 -89 310 -129 l 583 -178 b 621 -136 610 -178 621 -162 l 621 125 l 604 125 b 379 -19 560 36 490 -19 b 121 278 226 -19 121 81 l 121 689 l 229 689 l 229 292 b 410 83 229 147 288 83 b 621 331 540 83 621 181 l 621 689 l 729 689 l 729 -169 b 622 -278 729 -232 685 -278 l 250 -278 b 218 -283 240 -282 229 -283 "},"ỳ":{"ha":850,"x_min":0,"x_max":0,"o":"m 247 956 l 372 956 l 464 792 l 364 792 m 229 -178 l 583 -178 b 621 -136 610 -178 621 -162 l 621 125 l 604 125 b 379 -19 560 36 490 -19 b 121 278 226 -19 121 81 l 121 689 l 229 689 l 229 292 b 410 83 229 147 288 83 b 621 331 540 83 621 181 l 621 689 l 729 689 l 729 -169 b 622 -278 729 -232 685 -278 l 229 -278 "},"ỷ":{"ha":850,"x_min":0,"x_max":0,"o":"m 336 886 l 336 894 l 442 894 b 476 875 447 883 460 875 b 525 928 503 875 525 894 b 469 986 525 968 497 986 b 403 931 429 986 408 958 l 336 956 b 471 1053 350 1011 392 1053 b 600 926 543 1053 600 1003 b 494 808 600 863 558 808 b 419 853 456 808 431 825 l 411 853 l 432 758 l 364 758 m 229 -178 l 583 -178 b 621 -136 610 -178 621 -162 l 621 125 l 604 125 b 379 -19 560 36 490 -19 b 121 278 226 -19 121 81 l 121 689 l 229 689 l 229 292 b 410 83 229 147 288 83 b 621 331 540 83 621 181 l 621 689 l 729 689 l 729 -169 b 622 -278 729 -232 685 -278 l 229 -278 "},"ỹ":{"ha":850,"x_min":0,"x_max":0,"o":"m 482 765 b 381 831 435 765 406 788 b 335 878 363 864 350 878 b 299 856 325 878 315 875 l 242 788 l 174 846 l 232 914 b 340 972 258 946 290 972 b 440 906 394 972 415 946 b 488 860 463 869 474 860 b 519 881 497 860 506 864 l 579 950 l 647 892 l 590 824 b 482 765 563 790 526 765 m 229 -178 l 583 -178 b 621 -136 610 -178 621 -162 l 621 125 l 604 125 b 379 -19 560 36 490 -19 b 121 278 226 -19 121 81 l 121 689 l 229 689 l 229 292 b 410 83 229 147 288 83 b 621 331 540 83 621 181 l 621 689 l 729 689 l 729 -169 b 622 -278 729 -232 685 -278 l 229 -278 "},"ʎ":{"ha":850,"x_min":0,"x_max":0,"o":"m 329 689 l 371 689 l 371 864 b 478 972 371 926 415 972 l 747 972 l 747 872 l 517 872 b 479 831 490 872 479 857 l 479 689 l 521 689 l 772 0 l 644 0 l 433 606 l 417 606 l 206 0 l 78 0 "},"z":{"ha":850,"x_min":0,"x_max":0,"o":"m 126 172 l 618 572 l 618 589 l 135 589 l 135 689 l 710 689 l 710 522 l 215 117 l 215 100 l 726 100 l 726 0 l 126 0 "},"ź":{"ha":850,"x_min":0,"x_max":0,"o":"m 476 956 l 601 956 l 485 792 l 385 792 m 126 172 l 618 572 l 618 589 l 135 589 l 135 689 l 710 689 l 710 522 l 215 117 l 215 100 l 726 100 l 726 0 l 126 0 "},"ž":{"ha":850,"x_min":0,"x_max":0,"o":"m 228 956 l 344 956 l 417 833 l 433 833 l 506 956 l 622 956 l 511 792 l 339 792 m 126 172 l 618 572 l 618 589 l 135 589 l 135 689 l 710 689 l 710 522 l 215 117 l 215 100 l 726 100 l 726 0 l 126 0 "},"ż":{"ha":850,"x_min":0,"x_max":0,"o":"m 425 797 b 328 894 372 797 328 842 b 425 992 328 947 372 992 b 522 894 478 992 522 947 b 425 797 522 842 478 797 m 126 172 l 618 572 l 618 589 l 135 589 l 135 689 l 710 689 l 710 522 l 215 117 l 215 100 l 726 100 l 726 0 l 126 0 "},"ẓ":{"ha":850,"x_min":0,"x_max":0,"o":"m 126 172 l 618 572 l 618 589 l 135 589 l 135 689 l 710 689 l 710 522 l 215 117 l 215 100 l 726 100 l 726 0 l 126 0 m 425 -283 b 328 -186 372 -283 328 -239 b 425 -89 328 -133 372 -89 b 522 -186 478 -89 522 -133 b 425 -283 522 -239 478 -283 "},"ﬁ":{"ha":850,"x_min":0,"x_max":0,"o":"m 631 797 b 533 894 578 797 533 842 b 631 992 533 947 578 992 b 728 894 683 992 728 947 b 631 797 728 842 683 797 m 229 589 l 67 589 l 67 689 l 229 689 l 229 836 b 336 944 229 899 274 944 l 483 944 l 483 844 l 375 844 b 338 803 349 844 338 829 l 338 689 l 686 689 l 686 0 l 578 0 l 578 589 l 338 589 l 338 0 l 229 0 "},"ﬂ":{"ha":850,"x_min":0,"x_max":0,"o":"m 229 589 l 67 589 l 67 689 l 229 689 l 229 864 b 336 972 229 926 274 972 l 686 972 l 686 0 l 578 0 l 578 872 l 375 872 b 338 831 349 872 338 857 l 338 689 l 511 689 l 511 589 l 338 589 l 338 0 l 229 0 "},"ₔ":{"ha":850,"x_min":0,"x_max":0,"o":"m 421 -286 b 235 -103 290 -286 235 -181 l 235 -58 l 540 -58 b 424 64 538 18 486 64 b 311 -15 360 64 328 26 l 246 13 b 421 131 275 86 336 131 b 615 -71 533 131 615 53 l 615 -90 b 421 -286 615 -203 535 -286 m 421 -219 b 539 -125 494 -219 528 -172 l 310 -125 b 421 -219 315 -174 354 -219 "},"ª":{"ha":850,"x_min":0,"x_max":0,"o":"m 401 564 b 218 772 301 564 218 639 b 404 981 218 904 301 981 b 518 925 460 981 497 961 l 526 925 l 526 969 l 618 969 l 618 679 b 640 656 618 665 625 656 l 660 656 l 660 572 l 593 572 b 526 628 557 572 529 592 l 518 628 b 401 564 500 583 451 564 m 418 647 b 526 772 476 647 526 686 b 418 897 526 856 483 897 b 310 772 351 897 310 844 b 418 647 310 692 351 647 "},"º":{"ha":850,"x_min":0,"x_max":0,"o":"m 425 564 b 218 772 319 564 218 636 b 425 981 218 908 319 981 b 632 772 531 981 632 908 b 425 564 632 636 531 564 m 425 647 b 540 772 488 647 540 692 b 425 897 540 853 488 897 b 310 772 363 897 310 853 b 425 647 310 692 363 647 "},"ⁱ":{"ha":850,"x_min":0,"x_max":0,"o":"m 443 1028 b 381 1090 408 1028 381 1056 b 443 1153 381 1125 408 1153 b 506 1090 478 1153 506 1125 b 443 1028 506 1056 478 1028 m 272 639 l 406 639 l 406 906 l 283 906 l 283 972 l 481 972 l 481 639 l 606 639 l 606 572 l 272 572 "},"ⁿ":{"ha":850,"x_min":0,"x_max":0,"o":"m 258 972 l 333 972 l 333 917 l 342 917 b 458 981 363 956 403 981 b 608 814 553 981 608 925 l 608 572 l 533 572 l 533 800 b 436 914 533 875 500 914 b 333 786 364 914 333 861 l 333 572 l 258 572 "},"π":{"ha":850,"x_min":0,"x_max":0,"o":"m 194 589 l 94 589 l 94 689 l 758 689 l 758 589 l 658 589 l 658 142 b 696 100 658 115 669 100 l 758 100 l 758 0 l 657 0 b 550 108 594 0 550 46 l 550 589 l 303 589 l 303 0 l 194 0 "},"⁄":{"ha":850,"x_min":0,"x_max":0,"o":"m 81 351 l 738 686 l 771 622 l 114 288 "},"½":{"ha":850,"x_min":0,"x_max":0,"o":"m 79 639 l 188 639 l 188 931 l 175 931 l 144 801 l 71 801 l 115 972 l 263 972 l 263 639 l 361 639 l 361 572 l 79 572 m 81 351 l 738 686 l 771 622 l 114 288 m 496 75 b 629 211 496 153 540 192 b 696 281 690 225 696 254 b 632 342 696 311 676 342 b 563 267 590 342 563 314 l 563 242 l 488 242 l 488 267 b 635 408 488 344 540 408 b 771 283 724 408 771 347 b 654 147 771 217 743 165 b 571 75 588 133 571 111 l 571 67 l 767 67 l 767 0 l 496 0 "},"⅓":{"ha":850,"x_min":0,"x_max":0,"o":"m 79 639 l 188 639 l 188 931 l 175 931 l 144 801 l 71 801 l 115 972 l 263 972 l 263 639 l 361 639 l 361 572 l 79 572 m 81 351 l 738 686 l 771 622 l 114 288 m 643 -8 b 499 125 554 -8 499 53 l 499 147 l 574 147 l 574 128 b 640 58 574 86 599 58 b 707 119 682 58 707 83 b 643 181 707 164 674 181 l 599 181 l 599 286 l 713 325 l 713 333 l 511 333 l 511 400 l 771 400 l 771 283 l 657 244 l 657 236 l 665 236 b 782 125 732 236 782 197 b 643 -8 782 46 726 -8 "},"⅔":{"ha":850,"x_min":0,"x_max":0,"o":"m 81 647 b 214 783 81 725 125 764 b 281 853 275 797 281 826 b 217 914 281 883 261 914 b 147 839 175 914 147 886 l 147 814 l 72 814 l 72 839 b 219 981 72 917 125 981 b 356 856 308 981 356 919 b 239 719 356 789 328 738 b 156 647 172 706 156 683 l 156 639 l 351 639 l 351 572 l 81 572 m 81 351 l 738 686 l 771 622 l 114 288 m 643 -8 b 499 125 554 -8 499 53 l 499 147 l 574 147 l 574 128 b 640 58 574 86 599 58 b 707 119 682 58 707 83 b 643 181 707 164 674 181 l 599 181 l 599 286 l 713 325 l 713 333 l 511 333 l 511 400 l 771 400 l 771 283 l 657 244 l 657 236 l 665 236 b 782 125 732 236 782 197 b 643 -8 782 46 726 -8 "},"¼":{"ha":850,"x_min":0,"x_max":0,"o":"m 79 639 l 188 639 l 188 931 l 175 931 l 144 801 l 71 801 l 115 972 l 263 972 l 263 639 l 361 639 l 361 572 l 79 572 m 81 351 l 738 686 l 771 622 l 114 288 m 632 75 l 451 75 l 451 167 l 569 400 l 707 400 l 707 142 l 763 142 l 763 75 l 707 75 l 707 0 l 632 0 m 632 142 l 632 358 l 624 358 l 518 150 l 518 142 "},"¾":{"ha":850,"x_min":0,"x_max":0,"o":"m 211 564 b 67 697 122 564 67 625 l 67 719 l 142 719 l 142 700 b 208 631 142 658 167 631 b 275 692 250 631 275 656 b 211 753 275 736 242 753 l 167 753 l 167 858 l 281 897 l 281 906 l 79 906 l 79 972 l 339 972 l 339 856 l 225 817 l 225 808 l 233 808 b 350 697 300 808 350 769 b 211 564 350 618 294 564 m 81 351 l 738 686 l 771 622 l 114 288 m 632 75 l 451 75 l 451 167 l 569 400 l 707 400 l 707 142 l 763 142 l 763 75 l 707 75 l 707 0 l 632 0 m 632 142 l 632 358 l 624 358 l 518 150 l 518 142 "},"⅛":{"ha":850,"x_min":0,"x_max":0,"o":"m 79 639 l 188 639 l 188 931 l 175 931 l 144 801 l 71 801 l 115 972 l 263 972 l 263 639 l 361 639 l 361 572 l 79 572 m 81 351 l 738 686 l 771 622 l 114 288 m 632 -8 b 493 108 560 -8 493 28 b 567 203 493 164 531 194 l 567 211 b 501 303 535 219 501 247 b 632 408 501 367 557 408 b 763 303 707 408 763 367 b 697 211 763 247 729 219 l 697 203 b 771 108 733 194 771 164 b 632 -8 771 28 704 -8 m 632 242 b 696 292 667 242 696 258 b 632 342 696 325 667 342 b 568 292 597 342 568 325 b 632 242 568 258 597 242 m 632 58 b 696 117 668 58 696 81 b 632 175 696 153 668 175 b 568 117 596 175 568 153 b 632 58 568 81 596 58 "},"⅜":{"ha":850,"x_min":0,"x_max":0,"o":"m 213 564 b 68 697 124 564 68 625 l 68 719 l 143 719 l 143 700 b 210 631 143 658 168 631 b 276 692 251 631 276 656 b 213 753 276 736 243 753 l 168 753 l 168 858 l 282 897 l 282 906 l 81 906 l 81 972 l 340 972 l 340 856 l 226 817 l 226 808 l 235 808 b 351 697 301 808 351 769 b 213 564 351 618 296 564 m 81 351 l 738 686 l 771 622 l 114 288 m 632 -8 b 493 108 560 -8 493 28 b 567 203 493 164 531 194 l 567 211 b 501 303 535 219 501 247 b 632 408 501 367 557 408 b 763 303 707 408 763 367 b 697 211 763 247 729 219 l 697 203 b 771 108 733 194 771 164 b 632 -8 771 28 704 -8 m 632 242 b 696 292 667 242 696 258 b 632 342 696 325 667 342 b 568 292 597 342 568 325 b 632 242 568 258 597 242 m 632 58 b 696 117 668 58 696 81 b 632 175 696 153 668 175 b 568 117 596 175 568 153 b 632 58 568 81 596 58 "},"⅝":{"ha":850,"x_min":0,"x_max":0,"o":"m 219 564 b 72 693 114 564 72 628 l 72 701 l 147 701 b 222 631 147 656 174 631 b 292 714 267 631 292 661 b 239 776 292 756 267 776 b 197 749 215 776 201 763 l 81 749 l 81 972 l 342 972 l 342 906 l 156 906 l 156 794 l 164 794 b 250 843 179 825 210 843 b 367 714 319 843 367 794 b 219 564 367 628 319 564 m 81 351 l 738 686 l 771 622 l 114 288 m 632 -8 b 493 108 560 -8 493 28 b 567 203 493 164 531 194 l 567 211 b 501 303 535 219 501 247 b 632 408 501 367 557 408 b 763 303 707 408 763 367 b 697 211 763 247 729 219 l 697 203 b 771 108 733 194 771 164 b 632 -8 771 28 704 -8 m 632 242 b 696 292 667 242 696 258 b 632 342 696 325 667 342 b 568 292 597 342 568 325 b 632 242 568 258 597 242 m 632 58 b 696 117 668 58 696 81 b 632 175 696 153 668 175 b 568 117 596 175 568 153 b 632 58 568 81 596 58 "},"⅞":{"ha":850,"x_min":0,"x_max":0,"o":"m 124 593 b 158 675 124 622 136 642 l 306 894 l 306 903 l 97 903 l 97 972 l 364 972 l 364 850 l 228 643 b 206 589 214 622 206 608 l 206 572 l 124 572 m 81 351 l 738 686 l 771 622 l 114 288 m 632 -8 b 493 108 560 -8 493 28 b 567 203 493 164 531 194 l 567 211 b 501 303 535 219 501 247 b 632 408 501 367 557 408 b 763 303 707 408 763 367 b 697 211 763 247 729 219 l 697 203 b 771 108 733 194 771 164 b 632 -8 771 28 704 -8 m 632 242 b 696 292 667 242 696 258 b 632 342 696 325 667 342 b 568 292 597 342 568 325 b 632 242 568 258 597 242 m 632 58 b 696 117 668 58 696 81 b 632 175 696 153 668 175 b 568 117 596 175 568 153 b 632 58 568 81 596 58 "},"₀":{"ha":850,"x_min":0,"x_max":0,"o":"m 426 -286 b 281 -140 335 -286 281 -225 l 281 -15 b 426 131 281 69 336 131 b 569 -15 519 131 569 69 l 569 -140 b 426 -286 569 -225 519 -286 m 426 -219 b 494 -149 469 -219 494 -189 l 494 -7 b 426 64 494 33 469 64 b 356 -7 383 64 356 33 l 356 -149 b 426 -219 356 -189 383 -219 m 425 -121 b 381 -78 401 -121 381 -103 b 425 -33 381 -53 401 -33 b 468 -78 450 -33 468 -53 b 425 -121 468 -103 450 -121 "},"₁":{"ha":850,"x_min":0,"x_max":0,"o":"m 299 -211 l 407 -211 l 407 81 l 394 81 l 364 -49 l 290 -49 l 335 122 l 482 122 l 482 -211 l 581 -211 l 581 -278 l 299 -278 "},"₂":{"ha":850,"x_min":0,"x_max":0,"o":"m 292 -203 b 425 -67 292 -125 336 -86 b 492 3 486 -53 492 -24 b 428 64 492 33 472 64 b 358 -11 386 64 358 36 l 358 -36 l 283 -36 l 283 -11 b 431 131 283 67 336 131 b 567 6 519 131 567 69 b 450 -131 567 -61 539 -112 b 367 -203 383 -144 367 -167 l 367 -211 l 563 -211 l 563 -278 l 292 -278 "},"₃":{"ha":850,"x_min":0,"x_max":0,"o":"m 428 -286 b 283 -153 339 -286 283 -225 l 283 -131 l 358 -131 l 358 -150 b 425 -219 358 -192 383 -219 b 492 -158 467 -219 492 -194 b 428 -97 492 -114 458 -97 l 383 -97 l 383 8 l 497 47 l 497 56 l 296 56 l 296 122 l 556 122 l 556 6 l 442 -33 l 442 -42 l 450 -42 b 567 -153 517 -42 567 -81 b 428 -286 567 -232 511 -286 "},"₄":{"ha":850,"x_min":0,"x_max":0,"o":"m 461 -203 l 281 -203 l 281 -111 l 399 122 l 536 122 l 536 -136 l 592 -136 l 592 -203 l 536 -203 l 536 -278 l 461 -278 m 461 -136 l 461 81 l 453 81 l 347 -128 l 347 -136 "},"₅":{"ha":850,"x_min":0,"x_max":0,"o":"m 433 -286 b 286 -157 328 -286 286 -222 l 286 -149 l 361 -149 b 436 -219 361 -194 388 -219 b 506 -136 481 -219 506 -189 b 453 -74 506 -94 481 -74 b 411 -101 429 -74 415 -87 l 294 -101 l 294 122 l 556 122 l 556 56 l 369 56 l 369 -56 l 378 -56 b 464 -7 393 -25 424 -7 b 581 -136 533 -7 581 -56 b 433 -286 581 -222 533 -286 "},"₆":{"ha":850,"x_min":0,"x_max":0,"o":"m 425 -286 b 286 -153 343 -286 286 -233 l 286 -3 b 422 131 286 81 343 131 b 557 6 503 131 557 83 l 482 6 b 421 64 482 39 461 64 b 361 -3 382 64 361 38 l 361 -56 l 369 -56 b 446 -14 379 -33 400 -14 b 564 -147 518 -14 564 -72 b 425 -286 564 -233 504 -286 m 425 -219 b 489 -150 464 -219 489 -192 b 425 -81 489 -108 464 -81 b 361 -150 386 -81 361 -108 b 425 -219 361 -192 386 -219 "},"₇":{"ha":850,"x_min":0,"x_max":0,"o":"m 332 -257 b 367 -175 332 -228 344 -208 l 514 44 l 514 53 l 306 53 l 306 122 l 572 122 l 572 0 l 436 -207 b 414 -261 422 -228 414 -242 l 414 -278 l 332 -278 "},"₈":{"ha":850,"x_min":0,"x_max":0,"o":"m 425 -286 b 286 -169 353 -286 286 -250 b 360 -75 286 -114 324 -83 l 360 -67 b 294 25 328 -58 294 -31 b 425 131 294 89 350 131 b 556 25 500 131 556 89 b 490 -67 556 -31 522 -58 l 490 -75 b 564 -169 526 -83 564 -114 b 425 -286 564 -250 497 -286 m 425 -36 b 489 14 460 -36 489 -19 b 425 64 489 47 460 64 b 361 14 390 64 361 47 b 425 -36 361 -19 390 -36 m 425 -219 b 489 -161 461 -219 489 -197 b 425 -103 489 -125 461 -103 b 361 -161 389 -103 361 -125 b 425 -219 361 -197 389 -219 "},"₉":{"ha":850,"x_min":0,"x_max":0,"o":"m 428 -286 b 293 -161 347 -286 293 -239 l 368 -161 b 429 -219 368 -194 389 -219 b 489 -153 468 -219 489 -193 l 489 -100 l 481 -100 b 404 -142 471 -122 450 -142 b 286 -8 332 -142 286 -83 b 425 131 286 78 346 131 b 564 -3 507 131 564 78 l 564 -153 b 428 -286 564 -236 507 -286 m 425 -75 b 489 -6 464 -75 489 -47 b 425 64 489 36 464 64 b 361 -6 386 64 361 36 b 425 -75 361 -47 386 -75 "},"⁰":{"ha":850,"x_min":0,"x_max":0,"o":"m 426 564 b 281 710 335 564 281 625 l 281 835 b 426 981 281 919 336 981 b 569 835 519 981 569 919 l 569 710 b 426 564 569 625 519 564 m 426 631 b 494 701 469 631 494 661 l 494 843 b 426 914 494 883 469 914 b 356 843 383 914 356 883 l 356 701 b 426 631 356 661 383 631 m 425 729 b 381 772 401 729 381 747 b 425 817 381 797 401 817 b 468 772 450 817 468 797 b 425 729 468 747 450 729 "},"¹":{"ha":850,"x_min":0,"x_max":0,"o":"m 299 639 l 407 639 l 407 931 l 394 931 l 364 801 l 290 801 l 335 972 l 482 972 l 482 639 l 581 639 l 581 572 l 299 572 "},"²":{"ha":850,"x_min":0,"x_max":0,"o":"m 292 647 b 425 783 292 725 336 764 b 492 853 486 797 492 826 b 428 914 492 883 472 914 b 358 839 386 914 358 886 l 358 814 l 283 814 l 283 839 b 431 981 283 917 336 981 b 567 856 519 981 567 919 b 450 719 567 789 539 738 b 367 647 383 706 367 683 l 367 639 l 563 639 l 563 572 l 292 572 "},"³":{"ha":850,"x_min":0,"x_max":0,"o":"m 428 564 b 283 697 339 564 283 625 l 283 719 l 358 719 l 358 700 b 425 631 358 658 383 631 b 492 692 467 631 492 656 b 428 753 492 736 458 753 l 383 753 l 383 858 l 497 897 l 497 906 l 296 906 l 296 972 l 556 972 l 556 856 l 442 817 l 442 808 l 450 808 b 567 697 517 808 567 769 b 428 564 567 618 511 564 "},"⁴":{"ha":850,"x_min":0,"x_max":0,"o":"m 461 647 l 281 647 l 281 739 l 399 972 l 536 972 l 536 714 l 592 714 l 592 647 l 536 647 l 536 572 l 461 572 m 461 714 l 461 931 l 453 931 l 347 722 l 347 714 "},"⁵":{"ha":850,"x_min":0,"x_max":0,"o":"m 433 564 b 286 693 328 564 286 628 l 286 701 l 361 701 b 436 631 361 656 388 631 b 506 714 481 631 506 661 b 453 776 506 756 481 776 b 411 749 429 776 415 763 l 294 749 l 294 972 l 556 972 l 556 906 l 369 906 l 369 794 l 378 794 b 464 843 393 825 424 843 b 581 714 533 843 581 794 b 433 564 581 628 533 564 "},"⁶":{"ha":850,"x_min":0,"x_max":0,"o":"m 425 564 b 286 697 343 564 286 617 l 286 847 b 422 981 286 931 343 981 b 557 856 503 981 557 933 l 482 856 b 421 914 482 889 461 914 b 361 847 382 914 361 888 l 361 794 l 369 794 b 446 836 379 817 400 836 b 564 703 518 836 564 778 b 425 564 564 617 504 564 m 425 631 b 489 700 464 631 489 658 b 425 769 489 742 464 769 b 361 700 386 769 361 742 b 425 631 361 658 386 631 "},"⁷":{"ha":850,"x_min":0,"x_max":0,"o":"m 332 593 b 367 675 332 622 344 642 l 514 894 l 514 903 l 306 903 l 306 972 l 572 972 l 572 850 l 436 643 b 414 589 422 622 414 608 l 414 572 l 332 572 "},"⁸":{"ha":850,"x_min":0,"x_max":0,"o":"m 425 564 b 286 681 353 564 286 600 b 360 775 286 736 324 767 l 360 783 b 294 875 328 792 294 819 b 425 981 294 939 350 981 b 556 875 500 981 556 939 b 490 783 556 819 522 792 l 490 775 b 564 681 526 767 564 736 b 425 564 564 600 497 564 m 425 814 b 489 864 460 814 489 831 b 425 914 489 897 460 914 b 361 864 390 914 361 897 b 425 814 361 831 390 814 m 425 631 b 489 689 461 631 489 653 b 425 747 489 725 461 747 b 361 689 389 747 361 725 b 425 631 361 653 389 631 "},"⁹":{"ha":850,"x_min":0,"x_max":0,"o":"m 428 564 b 293 689 347 564 293 611 l 368 689 b 429 631 368 656 389 631 b 489 697 468 631 489 657 l 489 750 l 481 750 b 404 708 471 728 450 708 b 286 842 332 708 286 767 b 425 981 286 928 346 981 b 564 847 507 981 564 928 l 564 697 b 428 564 564 614 507 564 m 425 775 b 489 844 464 775 489 803 b 425 914 489 886 464 914 b 361 844 386 914 361 886 b 425 775 361 803 386 775 "}," ":{"ha":850,"x_min":0,"x_max":0,"o":""}," ":{"ha":850,"x_min":0,"x_max":0,"o":""},".":{"ha":850,"x_min":0,"x_max":0,"o":"m 425 -19 b 328 78 372 -19 328 25 b 425 175 328 131 372 175 b 522 78 478 175 522 131 b 425 -19 522 25 478 -19 "},",":{"ha":850,"x_min":0,"x_max":0,"o":"m 344 -92 l 410 -92 b 447 -50 436 -92 447 -76 l 447 -15 b 424 -19 440 -18 432 -19 b 328 78 372 -19 328 25 b 425 175 328 131 372 175 b 522 78 478 175 522 131 l 522 -58 b 415 -167 522 -121 478 -167 l 344 -167 "},":":{"ha":850,"x_min":0,"x_max":0,"o":"m 425 514 b 328 611 372 514 328 558 b 425 708 328 664 372 708 b 522 611 478 708 522 664 b 425 514 522 558 478 514 m 425 -19 b 328 78 372 -19 328 25 b 425 175 328 131 372 175 b 522 78 478 175 522 131 b 425 -19 522 25 478 -19 "},";":{"ha":850,"x_min":0,"x_max":0,"o":"m 425 514 b 328 611 372 514 328 558 b 425 708 328 664 372 708 b 522 611 478 708 522 664 b 425 514 522 558 478 514 m 344 -92 l 410 -92 b 447 -50 436 -92 447 -76 l 447 -15 b 424 -19 440 -18 432 -19 b 328 78 372 -19 328 25 b 425 175 328 131 372 175 b 522 78 478 175 522 131 l 522 -58 b 415 -167 522 -121 478 -167 l 344 -167 "},"…":{"ha":850,"x_min":0,"x_max":0,"o":"m 669 -19 b 572 78 617 -19 572 25 b 669 175 572 131 617 175 b 767 78 722 175 767 131 b 669 -19 767 25 722 -19 m 181 -19 b 83 78 128 -19 83 25 b 181 175 83 131 128 175 b 278 78 233 175 278 131 b 181 -19 278 25 233 -19 m 425 -19 b 328 78 372 -19 328 25 b 425 175 328 131 372 175 b 522 78 478 175 522 131 b 425 -19 522 25 478 -19 "},"!":{"ha":850,"x_min":0,"x_max":0,"o":"m 369 972 l 481 972 l 481 258 l 369 258 m 425 -19 b 328 78 372 -19 328 25 b 425 175 328 131 372 175 b 522 78 478 175 522 131 b 425 -19 522 25 478 -19 "},"¡":{"ha":850,"x_min":0,"x_max":0,"o":"m 425 714 b 522 617 478 714 522 669 b 425 519 522 564 478 519 b 328 617 372 519 328 564 b 425 714 328 669 372 714 m 481 436 l 481 -278 l 369 -278 l 369 436 "},"?":{"ha":850,"x_min":0,"x_max":0,"o":"m 333 389 b 453 508 333 458 383 508 l 489 508 b 633 675 572 508 633 575 l 633 683 b 431 883 633 794 553 883 b 217 661 297 883 217 794 l 217 603 l 100 603 l 100 669 b 433 992 100 839 214 992 b 750 696 619 992 750 856 l 750 671 b 503 403 750 525 644 403 l 483 403 b 444 361 456 403 444 389 l 444 258 l 333 258 m 390 -19 b 293 78 338 -19 293 25 b 390 175 293 131 338 175 b 488 78 443 175 488 131 b 390 -19 488 25 443 -19 "},"¿":{"ha":850,"x_min":0,"x_max":0,"o":"m 460 717 b 557 619 513 717 557 672 b 460 522 557 567 513 522 b 363 619 407 522 363 567 b 460 717 363 672 407 717 m 517 308 b 397 189 517 239 467 189 l 361 189 b 217 22 278 189 217 122 l 217 14 b 419 -186 217 -97 297 -186 b 633 36 553 -186 633 -97 l 633 94 l 750 94 l 750 28 b 417 -294 750 -142 636 -294 b 100 1 231 -294 100 -158 l 100 26 b 347 294 100 172 206 294 l 367 294 b 406 336 394 294 406 308 l 406 439 l 517 439 "},"·":{"ha":850,"x_min":0,"x_max":0,"o":"m 425 389 b 328 486 372 389 328 433 b 425 583 328 539 372 583 b 522 486 478 583 522 539 b 425 389 522 433 478 389 "},"•":{"ha":850,"x_min":0,"x_max":0,"o":"m 425 322 b 261 486 336 322 261 397 b 425 650 261 575 336 650 b 589 486 514 650 589 575 b 425 322 589 397 514 322 "},"*":{"ha":850,"x_min":0,"x_max":0,"o":"m 375 329 l 394 392 l 378 399 l 339 329 l 217 207 l 146 278 l 268 400 l 338 439 l 331 456 l 268 436 l 81 436 l 81 536 l 268 536 l 331 517 l 338 533 l 268 572 l 146 694 l 217 765 l 339 643 l 378 574 l 394 581 l 375 643 l 375 831 l 475 831 l 475 643 l 456 581 l 472 574 l 511 643 l 633 765 l 704 694 l 582 572 l 513 533 l 519 517 l 582 536 l 769 536 l 769 436 l 582 436 l 519 456 l 513 439 l 582 400 l 704 278 l 633 207 l 511 329 l 472 399 l 456 392 l 475 329 l 475 142 l 375 142 "},"#":{"ha":850,"x_min":0,"x_max":0,"o":"m 250 311 l 97 311 l 97 411 l 250 411 l 250 561 l 97 561 l 97 661 l 250 661 l 250 831 l 350 831 l 350 661 l 500 661 l 500 831 l 600 831 l 600 661 l 753 661 l 753 561 l 600 561 l 600 411 l 753 411 l 753 311 l 600 311 l 600 142 l 500 142 l 500 311 l 350 311 l 350 142 l 250 142 m 500 411 l 500 561 l 350 561 l 350 411 "},"/":{"ha":850,"x_min":0,"x_max":0,"o":"m 174 -117 l 579 1119 l 676 1089 l 272 -147 "},"\\":{"ha":850,"x_min":0,"x_max":0,"o":"m 174 1089 l 271 1119 l 676 -117 l 578 -147 "},"-":{"ha":850,"x_min":0,"x_max":0,"o":"m 217 411 l 633 411 l 633 311 l 217 311 "},"–":{"ha":850,"x_min":0,"x_max":0,"o":"m 101 411 l 749 411 l 749 311 l 101 311 "},"—":{"ha":850,"x_min":0,"x_max":0,"o":"m 17 411 l 833 411 l 833 311 l 17 311 "},"_":{"ha":850,"x_min":0,"x_max":0,"o":"m 101 -67 l 749 -67 l 749 -167 l 101 -167 "},"₍":{"ha":850,"x_min":0,"x_max":0,"o":"m 536 -429 b 289 -165 403 -429 289 -331 l 289 10 b 536 274 289 175 403 274 l 561 274 l 561 207 l 536 207 b 356 7 436 207 356 125 l 356 -162 b 536 -362 356 -281 436 -362 l 561 -362 l 561 -429 l 536 -429 "},"₎":{"ha":850,"x_min":0,"x_max":0,"o":"m 289 -362 l 314 -362 b 494 -162 414 -362 494 -281 l 494 7 b 314 207 494 125 414 207 l 289 207 l 289 274 l 314 274 b 561 10 447 274 561 175 l 561 -165 b 314 -429 561 -331 447 -429 l 289 -429 "},"(":{"ha":850,"x_min":0,"x_max":0,"o":"m 708 -217 b 217 311 450 -217 217 -17 l 217 661 b 708 1189 217 989 450 1189 l 758 1189 l 758 1086 l 708 1086 b 325 656 508 1086 325 922 l 325 317 b 708 -114 325 50 508 -114 l 758 -114 l 758 -217 l 708 -217 "},")":{"ha":850,"x_min":0,"x_max":0,"o":"m 92 -114 l 142 -114 b 525 317 342 -114 525 50 l 525 656 b 142 1086 525 922 342 1086 l 92 1086 l 92 1189 l 142 1189 b 633 661 400 1189 633 989 l 633 311 b 142 -217 633 -17 400 -217 l 92 -217 "},"{":{"ha":850,"x_min":0,"x_max":0,"o":"m 493 -217 b 386 -108 431 -217 386 -171 l 386 371 b 349 411 386 397 375 411 l 278 411 l 278 561 l 349 561 b 386 601 375 561 386 575 l 386 1081 b 493 1189 386 1143 431 1189 l 628 1189 l 628 1089 l 532 1089 b 494 1047 506 1089 494 1074 l 494 603 b 386 494 494 540 451 494 l 369 494 l 369 478 l 386 478 b 494 369 451 478 494 432 l 494 -75 b 532 -117 494 -101 506 -117 l 628 -117 l 628 -217 l 493 -217 "},"}":{"ha":850,"x_min":0,"x_max":0,"o":"m 222 -117 l 318 -117 b 356 -75 344 -117 356 -101 l 356 369 b 464 478 356 432 399 478 l 481 478 l 481 494 l 464 494 b 356 603 399 494 356 540 l 356 1047 b 318 1089 356 1074 344 1089 l 222 1089 l 222 1189 l 357 1189 b 464 1081 419 1189 464 1143 l 464 601 b 501 561 464 575 475 561 l 572 561 l 572 411 l 501 411 b 464 371 475 411 464 397 l 464 -108 b 357 -217 464 -171 419 -217 l 222 -217 "},"[":{"ha":850,"x_min":0,"x_max":0,"o":"m 474 -217 b 367 -108 411 -217 367 -171 l 367 1081 b 474 1189 367 1143 411 1189 l 608 1189 l 608 1089 l 513 1089 b 475 1047 486 1089 475 1074 l 475 -75 b 513 -117 475 -101 486 -117 l 608 -117 l 608 -217 l 474 -217 "},"]":{"ha":850,"x_min":0,"x_max":0,"o":"m 242 -117 l 338 -117 b 375 -75 364 -117 375 -101 l 375 1047 b 338 1089 375 1074 364 1089 l 242 1089 l 242 1189 l 376 1189 b 483 1081 439 1189 483 1143 l 483 -108 b 376 -217 483 -171 439 -217 l 242 -217 "},"⁽":{"ha":850,"x_min":0,"x_max":0,"o":"m 536 421 b 289 685 403 421 289 519 l 289 860 b 536 1124 289 1025 403 1124 l 561 1124 l 561 1057 l 536 1057 b 356 857 436 1057 356 975 l 356 688 b 536 488 356 569 436 488 l 561 488 l 561 421 l 536 421 "},"⁾":{"ha":850,"x_min":0,"x_max":0,"o":"m 289 488 l 314 488 b 494 688 414 488 494 569 l 494 857 b 314 1057 494 975 414 1057 l 289 1057 l 289 1124 l 314 1124 b 561 860 447 1124 561 1025 l 561 685 b 314 421 561 519 447 421 l 289 421 "},"‚":{"ha":850,"x_min":0,"x_max":0,"o":"m 344 -72 l 410 -72 b 447 -31 436 -72 447 -57 l 447 4 b 424 0 440 1 432 0 b 328 97 372 0 328 44 b 425 194 328 150 372 194 b 522 97 478 194 522 150 l 522 -39 b 415 -147 522 -101 478 -147 l 344 -147 "},"„":{"ha":850,"x_min":0,"x_max":0,"o":"m 471 -72 l 536 -72 b 574 -31 563 -72 574 -57 l 574 4 b 550 0 567 1 558 0 b 454 97 499 0 454 44 b 551 194 454 150 499 194 b 649 97 604 194 649 150 l 649 -39 b 542 -147 649 -101 604 -147 l 471 -147 m 218 -72 l 283 -72 b 321 -31 310 -72 321 -57 l 321 4 b 297 0 314 1 306 0 b 201 97 246 0 201 44 b 299 194 201 150 246 194 b 396 97 351 194 396 150 l 396 -39 b 289 -147 396 -101 351 -147 l 218 -147 "},"“":{"ha":850,"x_min":0,"x_max":0,"o":"m 551 650 b 454 747 499 650 454 694 l 454 883 b 561 992 454 946 499 992 l 632 992 l 632 917 l 567 917 b 529 875 540 917 529 901 l 529 840 b 553 844 536 843 544 844 b 649 747 604 844 649 800 b 551 650 649 694 604 650 m 299 650 b 201 747 246 650 201 694 l 201 883 b 308 992 201 946 246 992 l 379 992 l 379 917 l 314 917 b 276 875 288 917 276 901 l 276 840 b 300 844 283 843 292 844 b 396 747 351 844 396 800 b 299 650 396 694 351 650 "},"”":{"ha":850,"x_min":0,"x_max":0,"o":"m 471 725 l 536 725 b 574 767 563 725 574 740 l 574 801 b 550 797 567 799 558 797 b 454 894 499 797 454 842 b 551 992 454 947 499 992 b 649 894 604 992 649 947 l 649 758 b 542 650 649 696 604 650 l 471 650 m 218 725 l 283 725 b 321 767 310 725 321 740 l 321 801 b 297 797 314 799 306 797 b 201 894 246 797 201 842 b 299 992 201 947 246 992 b 396 894 351 992 396 947 l 396 758 b 289 650 396 696 351 650 l 218 650 "},"‘":{"ha":850,"x_min":0,"x_max":0,"o":"m 425 650 b 328 747 372 650 328 694 l 328 883 b 435 992 328 946 372 992 l 506 992 l 506 917 l 440 917 b 403 875 414 917 403 901 l 403 840 b 426 844 410 843 418 844 b 522 747 478 844 522 800 b 425 650 522 694 478 650 "},"’":{"ha":850,"x_min":0,"x_max":0,"o":"m 344 725 l 410 725 b 447 767 436 725 447 740 l 447 801 b 424 797 440 799 432 797 b 328 894 372 797 328 842 b 425 992 328 947 372 992 b 522 894 478 992 522 947 l 522 758 b 415 650 522 696 478 650 l 344 650 "},"«":{"ha":850,"x_min":0,"x_max":0,"o":"m 408 236 l 408 453 l 733 672 l 742 672 l 742 550 l 450 353 l 450 336 l 742 139 l 742 17 l 733 17 m 108 236 l 108 453 l 433 672 l 442 672 l 442 550 l 150 353 l 150 336 l 442 139 l 442 17 l 433 17 "},"»":{"ha":850,"x_min":0,"x_max":0,"o":"m 408 139 l 700 336 l 700 353 l 408 550 l 408 672 l 417 672 l 742 453 l 742 236 l 417 17 l 408 17 m 108 139 l 400 336 l 400 353 l 108 550 l 108 672 l 117 672 l 442 453 l 442 236 l 117 17 l 108 17 "},"‹":{"ha":850,"x_min":0,"x_max":0,"o":"m 258 236 l 258 453 l 583 672 l 592 672 l 592 550 l 300 353 l 300 336 l 592 139 l 592 17 l 583 17 "},"›":{"ha":850,"x_min":0,"x_max":0,"o":"m 258 139 l 550 336 l 550 353 l 258 550 l 258 672 l 267 672 l 592 453 l 592 236 l 267 17 l 258 17 "},"\"":{"ha":850,"x_min":0,"x_max":0,"o":"m 514 804 b 454 894 479 819 454 854 b 551 992 454 947 499 992 b 649 894 604 992 649 947 b 589 804 649 854 624 819 l 589 650 l 514 650 m 261 804 b 201 894 226 819 201 854 b 299 992 201 947 246 992 b 396 894 351 992 396 947 b 336 804 396 854 371 819 l 336 650 l 261 650 "},"'":{"ha":850,"x_min":0,"x_max":0,"o":"m 388 804 b 328 894 353 819 328 854 b 425 992 328 947 372 992 b 522 894 478 992 522 947 b 463 804 522 854 497 819 l 463 650 l 388 650 "},"ƒ":{"ha":850,"x_min":0,"x_max":0,"o":"m 175 242 l 333 242 b 371 283 360 242 371 257 l 371 508 l 246 508 l 246 608 l 371 608 l 371 722 b 478 831 371 785 415 831 l 675 831 l 675 731 l 517 731 b 479 689 490 731 479 715 l 479 608 l 604 608 l 604 508 l 479 508 l 479 250 b 372 142 479 188 435 142 l 175 142 "},"@":{"ha":850,"x_min":0,"x_max":0,"o":"m 289 -19 b 53 282 153 -19 53 96 l 53 307 b 286 608 53 492 156 608 b 442 514 371 608 410 575 l 458 514 l 458 589 l 567 589 l 567 142 b 604 100 567 115 578 100 l 638 100 b 675 142 664 100 675 115 l 675 525 b 500 708 675 644 619 708 l 108 708 l 108 808 l 511 808 b 783 536 681 808 783 719 l 783 108 b 676 0 783 46 739 0 l 565 0 b 467 92 497 0 467 42 l 450 92 b 289 -19 428 22 375 -19 m 310 83 b 458 282 422 83 458 171 l 458 307 b 310 506 458 413 422 506 b 161 307 217 506 161 418 l 161 282 b 310 83 161 165 217 83 "},"&":{"ha":850,"x_min":0,"x_max":0,"o":"m 360 0 b 72 254 174 0 72 108 l 72 271 b 236 479 72 375 144 454 l 236 496 b 72 703 144 521 72 597 l 72 719 b 360 972 72 864 174 972 l 538 972 l 538 864 l 368 864 b 183 711 260 864 183 806 l 183 703 b 364 542 183 603 253 542 l 554 542 l 554 689 l 671 689 l 671 542 l 806 542 l 806 433 l 671 433 l 671 0 l 360 0 m 554 108 l 554 433 l 364 433 b 183 271 253 433 183 369 l 183 263 b 368 108 183 167 260 108 "},"¶":{"ha":850,"x_min":0,"x_max":0,"o":"m 374 589 b 172 790 263 589 172 679 b 374 992 172 901 263 992 l 624 992 l 624 303 l 524 303 l 524 892 l 474 892 l 474 303 l 374 303 m 374 892 b 272 790 318 892 272 846 b 374 689 272 735 318 689 "},"§":{"ha":850,"x_min":0,"x_max":0,"o":"m 433 303 b 239 482 306 303 239 381 l 239 499 l 333 499 l 333 490 b 436 394 333 439 367 394 b 521 460 501 394 521 429 b 408 536 521 497 497 519 b 256 686 332 550 256 581 b 281 757 256 715 267 738 b 256 839 268 778 256 806 b 433 992 256 933 335 992 b 610 839 550 992 610 917 l 610 817 l 515 817 l 515 825 b 428 900 515 864 482 900 b 353 840 379 900 353 875 b 472 769 353 807 378 786 b 618 622 568 753 618 708 b 594 549 618 594 607 572 b 618 467 611 525 618 497 b 433 303 618 372 546 303 m 519 600 b 521 618 521 604 521 614 b 408 693 521 651 497 676 b 356 707 392 696 372 701 b 353 685 354 703 353 690 b 472 613 353 654 378 629 b 519 600 488 610 507 604 "},"©":{"ha":850,"x_min":0,"x_max":0,"o":"m 425 428 b 81 772 235 428 81 582 b 425 1117 81 963 235 1117 b 769 772 615 1117 769 963 b 425 428 769 582 615 428 m 425 494 b 703 772 579 494 703 618 b 425 1050 703 926 579 1050 b 147 772 271 1050 147 926 b 425 494 147 618 271 494 m 425 564 b 279 710 333 564 279 625 l 279 835 b 425 981 279 919 335 981 b 568 835 518 981 568 919 l 568 818 l 493 818 l 493 843 b 425 914 493 883 468 914 b 354 843 382 914 354 883 l 354 701 b 425 631 354 661 382 631 b 493 701 468 631 493 661 l 493 726 l 568 726 l 568 710 b 425 564 568 625 518 564 "},"®":{"ha":850,"x_min":0,"x_max":0,"o":"m 425 428 b 81 772 235 428 81 582 b 425 1117 81 963 235 1117 b 769 772 615 1117 769 963 b 425 428 769 582 615 428 m 425 494 b 703 772 579 494 703 618 b 425 1050 703 926 579 1050 b 147 772 271 1050 147 926 b 425 494 147 618 271 494 m 308 972 l 442 972 b 567 861 525 972 567 919 b 511 763 567 814 553 781 l 511 754 b 558 697 544 751 558 724 l 558 572 l 483 572 l 483 688 b 449 722 483 707 471 722 l 383 722 l 383 572 l 308 572 m 428 789 b 492 850 469 789 492 815 b 428 907 492 885 469 907 l 383 907 l 383 789 "}}}
